<?xml version="1.0" encoding="UTF-8" standalone="no"?>
<svg
   xmlns:dc="http://purl.org/dc/elements/1.1/"
   xmlns:cc="http://creativecommons.org/ns#"
   xmlns:rdf="http://www.w3.org/1999/02/22-rdf-syntax-ns#"
   xmlns:svg="http://www.w3.org/2000/svg"
   xmlns="http://www.w3.org/2000/svg"
   viewBox="0 0 115.1205 128.47749"
   height="128.47749"
   width="115.1205"
   xml:space="preserve"
   version="1.1"
   id="svg5548"><metadata
     id="metadata5554"><rdf:RDF><cc:Work
         rdf:about=""><dc:format>image/svg+xml</dc:format><dc:type
           rdf:resource="http://purl.org/dc/dcmitype/StillImage" /><dc:title></dc:title></cc:Work></rdf:RDF></metadata><defs
     id="defs5552"><clipPath
       id="clipPath5562"
       clipPathUnits="userSpaceOnUse"><path
         id="path5564"
         d="m 0,870.236 623.626,0 L 623.626,0 0,0 0,870.236 Z" /></clipPath><clipPath
       id="clipPath5574"
       clipPathUnits="userSpaceOnUse"><path
         id="path5576"
         d="m 0,870.236 623.626,0 L 623.626,0 0,0 0,870.236 Z" /></clipPath><clipPath
       id="clipPath5802"
       clipPathUnits="userSpaceOnUse"><path
         id="path5804"
         d="m 0,870.236 623.626,0 L 623.626,0 0,0 0,870.236 Z" /></clipPath><clipPath
       id="clipPath5810"
       clipPathUnits="userSpaceOnUse"><path
         id="path5812"
         d="m -80.514,14.173 -595.276,0 0,841.89 595.276,0 0,-841.89 z" /></clipPath></defs><g
     transform="matrix(1.25,0,0,-1.25,-332.20613,795.7385)"
     id="g5556"><g
       transform="translate(288.7891,571.9068)"
       id="g5578"><path
         id="path5580"
         style="fill:#4c9edc;fill-opacity:1;fill-rule:nonzero;stroke:none"
         d="m 0,0 0,0 -21.482,-12.403 c 0.994,-1.721 2.433,-3.185 4.214,-4.213 L 0,-26.586 0,0 Z" /></g><g
       transform="translate(265.7649,585.1998)"
       id="g5582"><path
         id="path5584"
         style="fill:#498cd2;fill-opacity:1;fill-rule:nonzero;stroke:none"
         d="m 0,0 0,-19.939 c 0,-2.057 0.549,-4.035 1.542,-5.756 L 23.024,-13.293 0,0 Z" /></g><g
       transform="translate(288.7891,571.9068)"
       id="g5586"><path
         id="path5588"
         style="fill:#487dc8;fill-opacity:1;fill-rule:nonzero;stroke:none"
         d="m 0,0 0,26.586 -23.024,-13.293 0,0 L 0,0 Z" /></g><g
       transform="translate(288.7891,545.3209)"
       id="g5590"><path
         id="path5592"
         style="fill:#5295d6;fill-opacity:1;fill-rule:nonzero;stroke:none"
         d="m 0,0 0,0 17.268,-9.97 c 1.781,-1.028 3.769,-1.542 5.756,-1.542 l 0,24.805 L 0,0 Z" /></g><g
       transform="translate(267.3072,610.8954)"
       id="g5594"><path
         id="path5596"
         style="fill:#476bbc;fill-opacity:1;fill-rule:nonzero;stroke:none"
         d="m 0,0 c -0.994,-1.721 -1.542,-3.7 -1.542,-5.756 l 0,-19.94 23.024,13.293 L 0,0 Z" /></g><g
       transform="translate(334.8373,545.3209)"
       id="g5598"><path
         id="path5600"
         style="fill:#7f9ad6;fill-opacity:1;fill-rule:nonzero;stroke:none"
         d="M 0,0 0,26.586 -23.024,13.293 0,0 Z" /></g><g
       transform="translate(356.3192,559.5043)"
       id="g5602"><path
         id="path5604"
         style="fill:#727ebd;fill-opacity:1;fill-rule:nonzero;stroke:none"
         d="m 0,0 c 0.994,1.721 1.542,3.7 1.542,5.756 l 0,19.939 L -21.482,12.402 0,0 Z" /></g><g
       transform="translate(334.8373,571.9068)"
       id="g5606"><path
         id="path5608"
         style="fill:#8f9fd8;fill-opacity:1;fill-rule:nonzero;stroke:none"
         d="m 0,0 0,-26.586 17.268,9.97 c 1.781,1.028 3.22,2.492 4.214,4.214 L 0,0 Z" /></g><g
       transform="translate(334.8373,598.4928)"
       id="g5610"><path
         id="path5612"
         style="fill:#425da2;fill-opacity:1;fill-rule:nonzero;stroke:none"
         d="m 0,0 0,0 0,-26.586 23.024,13.293 0,0 L 0,0 Z" /></g><g
       transform="translate(311.8132,558.6138)"
       id="g5614"><path
         id="path5616"
         style="fill:#6495d5;fill-opacity:1;fill-rule:nonzero;stroke:none"
         d="m 0,0 0,-24.805 c 1.987,0 3.975,0.514 5.756,1.542 l 17.268,9.97 L 0,0 Z" /></g><g
       transform="translate(311.8132,611.7858)"
       id="g5618"><path
         id="path5620"
         style="fill:#3a64ad;fill-opacity:1;fill-rule:nonzero;stroke:none"
         d="m 0,0 -23.024,13.293 0,-26.586 L 0,0 Z" /></g><g
       transform="translate(311.8132,611.7858)"
       id="g5622"><path
         id="path5624"
         style="fill:#3a61a3;fill-opacity:1;fill-rule:nonzero;stroke:none"
         d="m 0,0 23.024,-13.293 0,26.586 L 0,0 Z" /></g><g
       transform="translate(267.3072,610.8954)"
       id="g5626"><path
         id="path5628"
         style="fill:#32549d;fill-opacity:1;fill-rule:nonzero;stroke:none"
         d="m 0,0 21.482,-12.403 0,26.586 L 4.214,4.214 C 2.433,3.185 0.994,1.721 0,0" /></g><g
       transform="translate(334.8373,598.4928)"
       id="g5630"><path
         id="path5632"
         style="fill:#2f5296;fill-opacity:1;fill-rule:nonzero;stroke:none"
         d="m 0,0 23.024,-13.293 0,19.939 c 0,2.057 -0.548,4.035 -1.542,5.757 L 0,0 Z" /></g><g
       transform="translate(334.8373,598.4928)"
       id="g5634"><path
         id="path5636"
         style="fill:#325295;fill-opacity:1;fill-rule:nonzero;stroke:none"
         d="m 0,0 21.482,12.403 c -0.994,1.721 -2.433,3.185 -4.214,4.213 L 0,26.586 0,0 Z" /></g><g
       transform="translate(288.7891,571.9068)"
       id="g5638"><path
         id="path5640"
         style="fill:#6aaee3;fill-opacity:1;fill-rule:nonzero;stroke:none"
         d="m 0,0 23.024,-13.293 0,19.939 c 0,2.057 -0.548,4.035 -1.542,5.757 L 0,0 Z" /></g><g
       transform="translate(288.7891,571.9068)"
       id="g5642"><path
         id="path5644"
         style="fill:#50a0dd;fill-opacity:1;fill-rule:nonzero;stroke:none"
         d="m 0,0 21.482,12.403 c -0.994,1.721 -2.433,3.185 -4.214,4.213 L 0,26.586 0,0 Z" /></g><g
       transform="translate(334.8373,625.0788)"
       id="g5646"><path
         id="path5648"
         style="fill:#4379c6;fill-opacity:1;fill-rule:nonzero;stroke:none"
         d="m 0,0 -17.269,9.97 c -1.781,1.028 -3.768,1.542 -5.755,1.542 l 0,-24.805 L 0,0 Z" /></g><g
       transform="translate(311.8132,611.7858)"
       id="g5650"><path
         id="path5652"
         style="fill:#3f73bd;fill-opacity:1;fill-rule:nonzero;stroke:none"
         d="m 0,0 0,24.805 c -1.987,0 -3.975,-0.514 -5.755,-1.542 L -23.024,13.293 0,0 Z" /></g><g
       transform="translate(288.7891,545.3209)"
       id="g5654"><path
         id="path5656"
         style="fill:#50a0dd;fill-opacity:1;fill-rule:nonzero;stroke:none"
         d="M 0,0 23.024,13.293 0,26.586 0,0 Z" /></g></g></svg>