<?xml version="1.0" encoding="UTF-8" standalone="no"?>
<svg
   xmlns:dc="http://purl.org/dc/elements/1.1/"
   xmlns:cc="http://creativecommons.org/ns#"
   xmlns:rdf="http://www.w3.org/1999/02/22-rdf-syntax-ns#"
   xmlns:svg="http://www.w3.org/2000/svg"
   xmlns="http://www.w3.org/2000/svg"
   viewBox="0 0 173.6525 193.8025"
   height="193.80251"
   width="173.6525"
   xml:space="preserve"
   version="1.1"
   id="svg2"><metadata
     id="metadata8"><rdf:RDF><cc:Work
         rdf:about=""><dc:format>image/svg+xml</dc:format><dc:type
           rdf:resource="http://purl.org/dc/dcmitype/StillImage" /><dc:title></dc:title></cc:Work></rdf:RDF></metadata><defs
     id="defs6"><clipPath
       id="clipPath66"
       clipPathUnits="userSpaceOnUse"><path
         id="path68"
         d="m 285.84,237.381 100.699,0 0,-142.418 -100.699,0 0,142.418 z" /></clipPath><clipPath
       id="clipPath76"
       clipPathUnits="userSpaceOnUse"><path
         id="path78"
         d="m 313,138 46,0 0,57 -46,0 0,-57 z" /></clipPath><clipPath
       id="clipPath178"
       clipPathUnits="userSpaceOnUse"><path
         id="path180"
         d="m 317.16,532.51 201.406,0 0,-284.844 -201.406,0 0,284.844 z" /></clipPath><clipPath
       id="clipPath188"
       clipPathUnits="userSpaceOnUse"><path
         id="path190"
         d="m 372,334 90,0 0,113 -90,0 0,-113 z" /></clipPath></defs><g
     transform="matrix(1.25,0,0,-1.25,-439.355,584.72375)"
     id="g10"><path
       d="m 386.215,370.205 -32.406,-18.711 c 1.5,-2.593 3.671,-4.8 6.359,-6.351 l 26.047,-15.043 0,40.105 z"
       style="fill:#4c9edc;fill-opacity:1;fill-rule:nonzero;stroke:none"
       id="path126" /><path
       d="m 351.484,390.256 0,-30.074 c 0,-3.106 0.828,-6.09 2.325,-8.684 l 32.406,18.707 -34.731,20.051 z"
       style="fill:#498cd2;fill-opacity:1;fill-rule:nonzero;stroke:none"
       id="path128" /><path
       d="m 386.215,370.205 0,40.106 -34.731,-20.055 34.731,-20.051 z"
       style="fill:#487dc8;fill-opacity:1;fill-rule:nonzero;stroke:none"
       id="path130" /><path
       d="m 386.215,330.104 26.047,-15.043 c 2.687,-1.551 5.687,-2.324 8.683,-2.324 l 0,37.417 -34.73,-20.05 z"
       style="fill:#5295d6;fill-opacity:1;fill-rule:nonzero;stroke:none"
       id="path132" /><path
       d="m 353.809,429.018 c -1.497,-2.594 -2.325,-5.582 -2.325,-8.684 l 0,-30.078 34.731,20.055 -32.406,18.707 z"
       style="fill:#476bbc;fill-opacity:1;fill-rule:nonzero;stroke:none"
       id="path134" /><path
       d="m 455.676,330.104 0,40.101 -34.731,-20.051 34.731,-20.05 z"
       style="fill:#7f9ad6;fill-opacity:1;fill-rule:nonzero;stroke:none"
       id="path136" /><path
       d="m 488.082,351.498 c 1.5,2.594 2.324,5.578 2.324,8.68 l 0,30.078 -34.73,-20.051 32.406,-18.707 z"
       style="fill:#727ebd;fill-opacity:1;fill-rule:nonzero;stroke:none"
       id="path138" /><path
       d="m 455.676,370.205 0,-40.105 26.051,15.043 c 2.683,1.551 4.855,3.758 6.355,6.355 l -32.406,18.707 z"
       style="fill:#8f9fd8;fill-opacity:1;fill-rule:nonzero;stroke:none"
       id="path140" /><path
       d="m 455.676,410.311 0,-40.106 34.73,20.051 -34.73,20.055 z"
       style="fill:#425da2;fill-opacity:1;fill-rule:nonzero;stroke:none"
       id="path142" /><path
       d="m 420.945,350.154 0,-37.417 c 2.996,0 5.996,0.773 8.684,2.324 l 26.047,15.039 -34.731,20.054 z"
       style="fill:#6495d5;fill-opacity:1;fill-rule:nonzero;stroke:none"
       id="path144" /><path
       d="m 420.945,430.362 -34.73,20.05 0,-40.101 34.73,20.051 z"
       style="fill:#3a64ad;fill-opacity:1;fill-rule:nonzero;stroke:none"
       id="path146" /><path
       d="m 420.945,430.362 34.731,-20.051 0,40.101 -34.731,-20.05 z"
       style="fill:#3a61a3;fill-opacity:1;fill-rule:nonzero;stroke:none"
       id="path148" /><path
       d="m 353.809,429.018 32.406,-18.707 0,40.101 -26.047,-15.035 c -2.688,-1.555 -4.859,-3.762 -6.359,-6.359"
       style="fill:#32549d;fill-opacity:1;fill-rule:nonzero;stroke:none"
       id="path150" /><path
       d="m 455.676,410.311 34.73,-20.055 0,30.078 c 0,3.106 -0.824,6.086 -2.324,8.684 l -32.406,-18.707 z"
       style="fill:#2f5296;fill-opacity:1;fill-rule:nonzero;stroke:none"
       id="path152" /><path
       d="m 455.676,410.311 32.406,18.707 c -1.5,2.597 -3.672,4.804 -6.355,6.355 l -26.051,15.039 0,-40.101 z"
       style="fill:#325295;fill-opacity:1;fill-rule:nonzero;stroke:none"
       id="path154" /><path
       d="m 455.676,450.412 -26.047,15.039 c -2.688,1.551 -5.684,2.328 -8.684,2.328 l 0,-37.417 34.731,20.05 z"
       style="fill:#4379c6;fill-opacity:1;fill-rule:nonzero;stroke:none"
       id="path156" /><path
       d="m 420.945,430.362 0,37.417 c -2.996,0 -5.996,-0.777 -8.679,-2.328 l -26.051,-15.039 34.73,-20.05 z"
       style="fill:#3f73bd;fill-opacity:1;fill-rule:nonzero;stroke:none"
       id="path158" /><path
       d="m 386.215,330.104 34.73,20.05 -34.73,20.051 0,-40.101 z"
       style="fill:#50a0dd;fill-opacity:1;fill-rule:nonzero;stroke:none"
       id="path160" /><path
       d="m 386.215,410.311 34.73,-20.055 0,40.106 -34.73,-20.051 z"
       style="fill:#487dc8;fill-opacity:1;fill-rule:nonzero;stroke:none"
       id="path162" /><path
       d="m 386.215,370.205 34.73,-20.051 0,40.102 -34.73,-20.051 z"
       style="fill:#6aaee3;fill-opacity:1;fill-rule:nonzero;stroke:none"
       id="path164" /><path
       d="m 420.945,390.256 34.731,-20.051 0,40.106 -34.731,-20.055 z"
       style="fill:#476bbc;fill-opacity:1;fill-rule:nonzero;stroke:none"
       id="path166" /><path
       d="m 420.945,390.256 -34.73,20.055 0,-40.106 34.73,20.051 z"
       style="fill:#50a0dd;fill-opacity:1;fill-rule:nonzero;stroke:none"
       id="path168" /><path
       d="m 455.676,410.311 -34.731,20.051 0,-40.106 34.731,20.055 z"
       style="fill:#3a64ad;fill-opacity:1;fill-rule:nonzero;stroke:none"
       id="path170" /><path
       d="m 455.676,370.205 -34.731,20.051 0,-40.102 34.731,20.051 z"
       style="fill:#487dc8;fill-opacity:1;fill-rule:nonzero;stroke:none"
       id="path172" /><g
       id="g174"><g
         clip-path="url(#clipPath178)"
         id="g176"><g
           transform="translate(0,-0.724426)"
           id="g182"><g
             id="g184"><g
               clip-path="url(#clipPath188)"
               id="g186"><g
                 id="g192"><path
                   id="path194"
                   style="fill:#ffffff;fill-opacity:1;fill-rule:nonzero;stroke:none"
                   d="m 423.398,398.441 c -1.636,-3.664 -4.511,-3.101 -4.511,-3.101 0,0 2.008,0.324 3.383,4.14 1.375,3.813 3.664,6.461 3.664,6.461 -1.411,-1.804 -0.903,-3.832 -2.536,-7.5 m -9.812,-4.734 c 1.578,0.789 2.707,3.324 4.277,6.766 1.571,3.441 4.407,4.793 4.407,4.793 0,0 -2.254,-1.746 -3.329,-5.977 -1.351,-6.148 -5.355,-5.582 -5.355,-5.582 m 41.445,-38.996 1.438,-0.168 c -3.551,5.668 -1.606,11.164 0,12.605 -13.703,0.082 -15.649,15.731 -15.649,15.731 0,0 15.227,0.93 15.227,19.961 0,20.726 -13.449,22.5 -15.141,22.5 -1.691,0 -6.258,-1.098 -6.258,-5.074 0,-3.977 3.043,-5.414 3.043,-5.414 0,0 0.676,0 0.676,1.183 0,1.184 -1.183,2.707 -1.183,3.637 0,0.933 0.507,2.117 3.128,2.117 6.852,0 12.774,-6.684 12.774,-17.426 0,-10.742 -4.906,-14.125 -4.906,-14.125 0,5.75 -7.188,13.11 -7.188,19.625 0,2.453 3.129,8.035 3.129,8.035 0,0 0.547,1.774 -0.34,1.774 -1.945,0 -5.668,-3.719 -5.668,-10.488 0,-6.766 7.106,-13.024 7.106,-17.297 0,-1.395 -1.946,-4.949 -4.145,-4.949 -2.199,0 -10.234,9.898 -13.531,9.898 -1.27,0 -2.961,-0.93 -2.961,-0.93 6.934,6.344 4.82,7.36 4.82,12.77 0,5.414 4.653,6.812 4.653,15.015 0,2.114 -0.551,6.258 -1.184,11.715 -4.527,0 -11.023,2.778 -11.023,2.778 0,0 -1.399,0.523 -1.399,-0.465 0,-1.621 3.035,-1.317 3.035,-1.317 1.012,0.16 0.336,-0.742 0.336,-0.742 -0.675,0.594 -1.691,0 -1.691,0 l -0.086,-0.848 c -1.605,0.34 -2.789,3.301 -3.043,3.723 -1.863,-0.254 -5.414,-1.183 -5.414,-1.183 0.676,-1.352 0.168,-5.75 0.086,-5.75 0.59,-0.934 3.89,-1.016 5.156,-0.68 1.27,0.34 2.031,-0.59 1.777,-1.098 -0.253,-0.508 -0.761,-2.367 -0.675,-2.961 0.086,-0.593 -0.422,-1.015 -1.102,-1.015 -0.676,0 -2.445,0.941 -3.129,1.015 -0.679,0.075 -1.691,-0.316 -1.691,-1.097 0,-2.032 3.855,-0.508 3.855,-2.286 0.321,-0.32 0.035,-3.382 -6.644,-3.382 -6.684,0 -6.094,-9.223 -6.344,-8.715 -0.934,1.945 -0.086,5.754 -0.086,5.754 -3.383,-1.016 -3.555,-6.852 -3.555,-9.391 -0.757,1.438 -1.011,5.246 -0.675,6.598 -4.907,-3.297 -2.875,-8.797 -1.184,-12.266 -1.859,-0.168 -5.16,-3.551 -8.203,-3.551 -3.047,0 -5.754,4.059 -10.488,4.059 -3.891,0 -7.954,-2.707 -7.954,-2.707 1.524,-2.195 7.954,-2.113 7.954,-2.113 l -4.485,-3.043 c 3.043,-1.946 7.442,-0.848 9.473,-0.086 0.93,-0.594 -0.422,-4.485 -0.422,-4.485 4.566,0 3.215,2.2 5.16,2.2 1.945,0 -0.93,-2.2 0,-2.2 2.789,0 3.805,2.879 4.988,2.879 1.184,0 -1.015,-2.219 0,-2.219 2.2,0 4.653,3.911 5.079,2.977 0.421,-0.93 -0.934,-2.977 -0.934,-2.977 0,0 2.707,0.524 2.707,1.626 0,1.054 -0.312,1.339 -1.906,4.421 1.847,-3.429 4.359,-3.746 4.359,-3.746 2.828,0 7.004,5.844 8.449,8.008 -1.488,-2.691 -0.726,-5.691 -3.879,-7.922 2.2,-2.285 10.911,-5.836 15.309,-9.898 3.805,-3.383 3.297,-9.387 5.582,-13.617 2.285,-4.231 15.563,-3.977 15.563,-14.801 0,-10.067 -8.543,-16.832 -8.543,-16.832 1.183,-0.68 4.316,-0.508 4.316,-0.508 l -0.086,-2.707 c 4.734,0.508 7.527,5.16 8.629,7.273 1.519,-1.351 3.891,-1.945 3.891,-1.945 -0.254,0.762 -1.016,5.836 -1.188,7.359 -0.168,1.524 2.707,-1.101 2.707,-1.101 -1.265,2.539 -1.012,2.961 -1.351,4.484 0.843,-1.015 2.539,-0.844 2.367,-0.594 -2.621,4.571 -1.438,4.399 -1.438,4.399" /><path
                   id="path196"
                   style="fill:#ffffff;fill-opacity:1;fill-rule:nonzero;stroke:none"
                   d="m 457.695,424.621 c -0.972,-0.043 -1.437,0.973 -0.59,1.184 4.778,0.89 4.637,4.722 4.637,4.722 -12.293,-0.789 -15.113,-6.203 -15.113,-6.203 0,0 4.387,-2.113 9.332,-2.113 4.949,0 5.781,2.961 5.781,2.961 -2.297,0.34 -3.074,-0.508 -4.047,-0.551" /><path
                   id="path198"
                   style="fill:#ffffff;fill-opacity:1;fill-rule:nonzero;stroke:none"
                   d="m 415.672,428.059 c 1.906,0 3.851,-0.563 3.851,-0.563 -2.07,1.887 -5.902,2.195 -9.386,4.246 -1.563,0.926 -1.852,3.742 -1.852,3.742 0,0 -1.18,-1.562 -1.18,-3.433 0,-3.668 6.661,-3.992 8.567,-3.992" /><path
                   id="path200"
                   style="fill:#ffffff;fill-opacity:1;fill-rule:nonzero;stroke:none"
                   d="m 419.043,383.98 c -0.043,-1.988 3.254,-4.019 2.957,-4.316 -0.293,-0.297 -0.465,0.297 -1.012,0.637 0.379,-3.172 2.875,-3.891 3.637,-4.317 0.762,-0.422 0.379,-1.183 -0.465,-0.761 -2.75,1.144 -4.906,4.695 -6.176,8.207 -1.648,-1.989 -3.976,-7.235 -5.035,-10.953 -1.054,-3.723 -4.566,-8.797 -10.273,-8.797 -5.711,0 -14,6.004 -14,6.004 0,0 -0.129,-2.411 0.804,-3.34 0.93,-0.93 0.973,-2.496 0.973,-2.496 l -4.738,-0.844 c 1.605,-4.781 8.629,-4.106 9.39,-4.106 0,-0.972 -1.566,-3.972 -1.566,-3.972 0,0 0.379,-0.465 1.606,-0.465 1.226,0 4.527,1.266 6.175,2.746 0.719,-1.016 -0.379,-3.723 -0.379,-3.723 3.934,0 5.118,4.274 6.68,4.274 1.567,0 0.848,-2.707 1.27,-2.453 2.199,1.523 1.14,4.019 2.285,4.019 1.14,0 2.07,-2.074 2.027,-1.988 5.586,12.687 15.649,11.883 15.649,11.883 -0.93,1.437 -1.727,5.297 -2.918,9.39 -1.692,5.371 -6.891,5.371 -6.891,5.371" /><path
                   id="path202"
                   style="fill:#ffffff;fill-opacity:1;fill-rule:nonzero;stroke:none"
                   d="m 386.012,421.238 c 0,0 0.336,-2.242 3.847,-3.804 l -2.324,-0.973 c 0,0 0.25,-1.652 2.703,-2.707 1.653,-0.762 1.313,-1.27 1.313,-1.27 l -2.113,-1.312 c 0,0 1.054,-2.242 5.242,-1.86 l -1.606,-2.199 c 0,0 1.438,-1.902 4.356,-2.836 0,0 -3.258,5.121 1.988,11.125 0,0.422 -0.043,0.762 -0.465,1.141 -0.422,0.383 -3.383,2.074 -3.383,6.641 0,4.566 2.368,6.386 2.368,10.531 0,2.961 -2.876,3.68 -2.876,3.68 0,0 -0.55,-0.719 -0.55,-1.567 0,-0.844 0.379,-1.648 0.168,-3 0,0 -0.379,3.086 -4.524,3.086 0,0 -0.636,-1.059 -0.636,-1.902 0,-0.848 1.652,-4.188 1.652,-5.754 0,-1.563 -0.34,-1.52 -0.934,-1.52 -0.59,0 -3.129,1.606 -3.129,1.606 0,0 -0.547,-1.567 0.551,-4.059 1.102,-2.496 0.973,-3.047 0.973,-3.047 l -2.621,0 z" /><path
                   id="path204"
                   style="fill:#ffffff;fill-opacity:1;fill-rule:nonzero;stroke:none"
                   d="m 422.816,439.938 c -0.699,0 -1.109,-0.145 -1.109,-0.145 0,0 0.258,0.062 1.207,-0.316 0.953,-0.379 5.363,-2.657 6.332,-2.657 0.965,0 1.5,0.676 1.5,0.676 0,0 -0.316,-0.144 -2.469,0.461 -2.148,0.602 -4.757,1.981 -5.461,1.981" /><path
                   id="path206"
                   style="fill:#ffffff;fill-opacity:1;fill-rule:nonzero;stroke:none"
                   d="m 432.195,437.473 c 0,0 2.657,3.457 4.953,4.23 -1.351,-0.121 -1.644,-0.027 -1.644,-0.027 l -3.527,1.234 c 0,0 0.335,-3.168 -1.473,-3.168 -1.813,0 -0.438,2.805 0.965,3.387 l -1.352,0.191 -0.172,3.383 -3.019,-2.465 -1.426,0.196 c 0,0 1.402,-3.145 -0.941,-3.145 -2.344,0 -1.258,1.742 -0.508,2.031 0.75,0.289 0.699,0.461 0.699,0.461 l -1.328,0.699 c 0,0 -0.434,2.008 -1.281,2.223 -0.848,0.219 -2.442,-0.242 -2.442,-0.242 0,0 2.008,-2.109 2.008,-5.195 l 10.488,-3.793 z" /></g></g></g></g></g></g></g></svg>