<svg xmlns="http://www.w3.org/2000/svg" width="254" height="254" viewBox="0 0 254 254">
  <circle stroke-miterlimit="10" cx="126.5" cy="126.531" r="118.571" fill="none" stroke="#6c7eb7"/>
  <g fill="#6c7eb7">
    <path d="M116.659 124.437c-.089.071-.119.199-.066.303.202.418 4.512 9.229 8.216 11.423l-.057 13.432c-.236.009-.471.009-.699.019-.739.046-1.462.099-2.17.143-1.396.143-2.71.311-3.848.477-1.13.188-2.091.356-2.774.492-.707.146-1.105.235-1.105.235-.284.061-.564.188-.808.372-.898.681-1.073 1.961-.396 2.856.683.899 1.963 1.074 2.861.398l.013-.014s.072-.054.213-.163c.117-.08.275-.222.518-.376.501-.325 1.253-.752 2.216-1.153.487-.188 1.009-.425 1.586-.582.573-.156 1.185-.365 1.829-.475.647-.103 1.313-.264 2.002-.322.681-.04 1.366-.081 2.055-.121.726.05 1.444.095 2.154.139.698.061 1.334.233 1.973.336.633.114 1.244.332 1.819.488.575.172 1.097.412 1.577.604.962.403 1.714.839 2.216 1.169.503.34.702.539.689.527.985.488 2.178.086 2.666-.897.488-.987.085-2.176-.902-2.666 0 0-.114-.036-.327-.087-.188-.043-.461-.102-.811-.175-.68-.137-1.639-.316-2.766-.513-1.142-.179-2.438-.36-3.855-.51-.717-.055-1.444-.114-2.19-.167-.114-.004-.224-.013-.332-.013l.054-13.66c3.653-2.471 7.784-10.721 7.981-11.13.051-.105.022-.229-.067-.305-2.183-1.78-4.959-2.888-8.017-3.208-4.238-.439-8.413.698-11.448 3.124zM115.7 104.195c-.013.27-.076.538-.141.825-.039.145-.069.291-.092.414l-.054.194c-.107.36-.21.698-.338 1.016l-.06.153c-.139.342-.273.66-.435.967-.134.286-.287.548-.432.801l-.087.152c-.412.677-.761 1.133-.931 1.356-.123.154-.214.266-.274.332l-.131.152c-.338.385-.322.976.029 1.338.162.171.38.282.618.305.288.028.575-.069.792-.271l.134-.133c.094-.094.231-.226.381-.389.372-.39.801-.915 1.213-1.474l.099-.147c.193-.266.407-.577.6-.899.237-.368.439-.764.653-1.182l.04-.077c.225-.438.401-.908.614-1.446.044-.155.094-.313.145-.47.112-.352.235-.712.285-1.083l.161-.813c.021-.177.034-.351.048-.525l.024-.301c.004-.089.009-.179.019-.268.017-.178.035-.362.02-.549-.017-.253-.02-.499-.039-.77 0-.445-.085-.854-.161-1.245l-.094-.466c-.027-.175-.063-.344-.112-.509-.07-.21-.142-.416-.207-.615-.046-.125-.089-.248-.127-.366-.086-.258-.163-.503-.274-.708l-.723-1.439c-.022-.045-.047-.087-.065-.112-.069-.12-.162-.232-.244-.304-.837-1.174-2.736-2.02-5.078-2.262-.422-.046-.86-.068-1.298-.071-.332-.003-.685.014-1.084.045l-7.394-.031-.011.236c-.005.072-.059 1.716 2.104 4.666l.142.179.011-.004c.902 1.065 2.716 1.826 4.91 2.055.422.047.859.072 1.295.072.801.004 1.594-.067 2.358-.207v.01l.333-.074s.425-.094.945-.04c.906.091 1.531.539 1.84 1.266.018.07.029.145.036.238.023.137.04.273.063.41l.028.205c.02.112.018.223.018.338-.004.088-.004.173.002.24v.247c.003.129.004.262 0 .376l-.074.662zM136.001 103.077l.012.201c.014.206.027.407.054.634l.142.781c.055.387.171.755.288 1.11.048.152.089.305.147.508.184.471.372.956.589 1.401l.029.056c.215.429.421.831.649 1.194.193.338.399.634.598.919l.1.15c.395.548.818 1.077 1.196 1.479.157.166.288.303.385.398.084.081.134.13.134.13.156.154.369.251.586.275.273.026.55-.06.756-.235.412-.36.459-.988.085-1.428l-.109-.132c-.065-.069-.154-.178-.273-.334-.164-.211-.501-.672-.911-1.356l-.089-.152c-.145-.255-.296-.52-.437-.821-.154-.298-.289-.627-.432-.979l-.047-.127c-.128-.32-.225-.653-.33-1.015l-.051-.18c-.023-.145-.056-.293-.089-.438-.06-.287-.122-.556-.132-.845l-.067-.636c-.009-.132 0-.262 0-.392l.004-.228c.007-.086.007-.173.007-.256 0-.119 0-.233.024-.396.034-.192.059-.376.09-.581.009-.077.026-.151.018-.167.564-1.301 1.836-1.371 2.538-1.296.171.019.268.043.28.043l1.395.319-.18-.114c.477.062.981.09 1.478.093 2.709.011 5.113-.793 6.219-2.068l.014.009.141-.184c2.187-2.931 2.147-4.58 2.143-4.647l-.004-.237-7.4-.031c-.379-.036-.738-.049-1.079-.054-2.879-.009-5.392.884-6.367 2.245-.148.137-.262.28-.341.441l-.734 1.433c-.116.208-.197.452-.279.704-.043.122-.085.245-.137.379l-.215.614c-.049.151-.081.313-.112.483l-.101.487c-.078.395-.163.799-.17 1.231l-.046.774c-.014.197 0 .385.017.568.002.095.011.175.014.27z"/>
    <path d="M200.845 59.026c-4.153-5.049-8.455-8.561-11.652-10.786 0 0 8.717 2.357 8.905 2.096.182-.265-47.174-24.26-55.455-25.045 1.182-.896 8.888-4.915 8.812-5.266-.074-.347-22.006 4.504-24.441 5.973-2.418-1.489-33.149-6.501-33.225-6.153-.072.346 7.606 4.437 8.77 5.336-8.284.71-49.956 25.755-49.776 26.02.183.267 8.918-2.02 8.918-2.02-3.214 2.193-4.605 4.2-8.797 9.214-7.341 8.775-12.559 58.101-12.221 58.144.325.024 4.681-9.926 4.681-9.926-.524 14.853 34.635 78.486 34.89 78.356.255-.135.291-7.119.291-7.119 3.232 6.837 10.866 13.114 18.835 19.669 10.255 8.435 20.864 15.688 24.6 26.885.916 2.741 1.649 9.107 2.035 9.141.022.002.047.005.069.002.415.003 1.202-6.147 2.062-8.762 3.725-11.332 14.542-18.592 24.996-27.032 8.037-6.488 20.152-17.124 23.442-23.936 0 0-.017 6.993.237 7.124.26.136 31.632-69.079 31.233-83.935 0 0 4.253 10.006 4.593 9.964.338-.044-4.541-39.101-11.802-47.944zM75.558 72.974l.094 6.79C68.7 72.75 65.87 64.277 69.339 60.838c3.47-3.437 11.569-.666 17.716 5.718 0 .002-9.31 1.008-11.497 6.418zm74.375 52.594l15.305 16.948c-.079 17.819 2.043 27.214-38.363 27.042l-.009-.005c-21.938-.091-31.309-2.905-35.282-8.301-.611-.832-1.108-1.719-1.489-2.668-1.71-4.26-1.386-9.738-1.357-16.393l15.447-16.814s-20.657-14.161-20.517-46.043c0 0 19.549-8.816 43.628-8.713 24.071.104 43.551 9.084 43.551 9.084-.144 31.882-20.914 45.863-20.914 45.863zm27.673-45.867l1.052-5.202c-2.143-5.428-12.334-8.102-12.334-8.102 6.196-6.331 14.323-9.027 17.761-5.565 3.434 3.47.537 11.919-6.479 18.869z"/>
  </g>
  <circle stroke-miterlimit="10" cx="127" cy="127" r="124.5" fill="none" stroke="#6c7eb7" stroke-width="5"/>
</svg>

