<?xml version="1.0" encoding="UTF-8" standalone="no"?>
<svg
   xmlns:sketch="http://www.bohemiancoding.com/sketch/ns"
   xmlns:dc="http://purl.org/dc/elements/1.1/"
   xmlns:cc="http://creativecommons.org/ns#"
   xmlns:rdf="http://www.w3.org/1999/02/22-rdf-syntax-ns#"
   xmlns:svg="http://www.w3.org/2000/svg"
   xmlns="http://www.w3.org/2000/svg"
   xmlns:xlink="http://www.w3.org/1999/xlink"
   id="svg4136"
   version="1.1"
   viewBox="0 0 600 600"
   height="600px"
   width="600px">
  <metadata
     id="metadata4187">
    <rdf:RDF>
      <cc:Work
         rdf:about="">
        <dc:format>image/svg+xml</dc:format>
        <dc:type
           rdf:resource="http://purl.org/dc/dcmitype/StillImage" />
        <dc:title>Final design - bigger</dc:title>
      </cc:Work>
    </rdf:RDF>
  </metadata>
  <!-- Generator: Sketch 3.3.3 (12081) - http://www.bohemiancoding.com/sketch -->
  <title
     id="title4138">Final design - bigger</title>
  <desc
     id="desc4140">Created with Sketch.</desc>
  <defs
     id="defs4142">
    <rect
       height="600"
       width="600"
       y="0"
       x="0"
       id="path-1" />
    <filter
       id="filter-2"
       filterUnits="objectBoundingBox"
       height="200%"
       width="200%"
       y="-50%"
       x="-50%">
      <feOffset
         id="feOffset4146"
         result="shadowOffsetOuter1"
         in="SourceAlpha"
         dy="-2"
         dx="0" />
      <feGaussianBlur
         id="feGaussianBlur4148"
         result="shadowBlurOuter1"
         in="shadowOffsetOuter1"
         stdDeviation="0" />
      <feColorMatrix
         id="feColorMatrix4150"
         result="shadowMatrixOuter1"
         type="matrix"
         in="shadowBlurOuter1"
         values="0 0 0 0 0   0 0 0 0 0   0 0 0 0 0  0 0 0 0.175 0" />
      <feMerge
         id="feMerge4152">
        <feMergeNode
           id="feMergeNode4154"
           in="shadowMatrixOuter1" />
        <feMergeNode
           id="feMergeNode4156"
           in="SourceGraphic" />
      </feMerge>
    </filter>
    <filter
       id="filter-3"
       filterUnits="objectBoundingBox"
       height="200%"
       width="200%"
       y="-50%"
       x="-50%">
      <feOffset
         id="feOffset4159"
         result="shadowOffsetOuter1"
         in="SourceAlpha"
         dy="-2"
         dx="0" />
      <feGaussianBlur
         id="feGaussianBlur4161"
         result="shadowBlurOuter1"
         in="shadowOffsetOuter1"
         stdDeviation="0" />
      <feColorMatrix
         id="feColorMatrix4163"
         result="shadowMatrixOuter1"
         type="matrix"
         in="shadowBlurOuter1"
         values="0 0 0 0 0   0 0 0 0 0   0 0 0 0 0  0 0 0 0.175 0" />
      <feMerge
         id="feMerge4165">
        <feMergeNode
           id="feMergeNode4167"
           in="shadowMatrixOuter1" />
        <feMergeNode
           id="feMergeNode4169"
           in="SourceGraphic" />
      </feMerge>
    </filter>
  </defs>
  <use
     sketch:type="MSShapeGroup"
     xlink:href="#path-1"
     id="use4174"
     style="fill:none;fill-opacity:0.23999999;fill-rule:evenodd;stroke:none;stroke-width:1"
     x="0"
     y="0"
     width="100%"
     height="100%" />
  <use
     xlink:href="#path-1"
     id="use4176"
     style="fill:#6082bb;fill-opacity:0.95;fill-rule:evenodd;stroke:none;stroke-width:1"
     x="0"
     y="0"
     width="100%"
     height="100%" />
  <path
     id="path4207"
     style="font-style:italic;font-weight:bold;font-size:medium;font-family:Ubuntu;fill:#ffffff;fill-rule:evenodd;stroke:none;stroke-width:1;filter:url(#filter-2)"
     d="m 155.575,416.74 q 3.995,0.94 9.87,0.94 9.165,0 16.685,-3.29 7.52,-3.525 12.69,-9.635 5.405,-6.11 8.225,-14.57 3.055,-8.695 3.055,-19.035 0,-10.105 -4.465,-17.155 -4.465,-7.05 -15.51,-7.05 -7.52,0 -14.1,1.41 l -16.45,68.385 z m 85.305,-48.175 q 0,17.155 -5.64,31.49 -5.64,14.1 -15.745,24.44 -9.87,10.34 -23.97,16.215 -13.865,5.64 -30.315,5.64 -7.99,0 -15.98,-1.41 l -10.575,42.535 -34.78,0 39.01,-162.62 q 9.4,-2.82 21.385,-4.935 12.22,-2.35 26.32,-2.35 13.16,0 22.56,3.995 9.635,3.995 15.745,11.045 6.11,6.815 8.93,16.215 3.055,9.165 3.055,19.74 z" />
  <path
     id="path4209"
     style="font-style:italic;font-weight:bold;font-size:medium;font-family:Ubuntu;fill:#ffffff;fill-rule:evenodd;stroke:none;stroke-width:1;filter:url(#filter-2)"
     d="m 333.73437,318.275 q 10.10501,0 17.39,3.055 7.285,2.82 11.985,8.225 4.70001,5.17 7.05,12.455 2.35,7.285 2.35,15.745 0,9.87 -2.35,19.505 l -15.98,66.74 -35.015,0 15.51,-65.33 q 0.94,-3.995 1.645,-8.46 0.94,-4.465 0.94,-8.46 0,-6.11 -3.28999,-10.34 -3.05501,-4.465 -11.98501,-4.465 -3.76,0 -7.285,0.47 -3.29,0.47 -6.58,1.175 l -22.795,95.41 -35.015,0 42.3,-176.72 36.425,-5.64 -14.335,58.985 q 4.7,-0.94 9.4,-1.645 4.935,-0.705 9.635,-0.705 z" />
  <path
     id="path4211"
     style="font-style:italic;font-weight:bold;font-size:medium;font-family:Ubuntu;fill:#ffffff;fill-rule:evenodd;stroke:none;stroke-width:1;filter:url(#filter-2)"
     d="m 424.08086,416.74 q 3.995,0.94 9.87,0.94 9.165,0 16.685,-3.29 7.52,-3.525 12.69,-9.635 5.405,-6.11 8.225,-14.57 3.055,-8.695 3.055,-19.035 0,-10.105 -4.465,-17.155 -4.465,-7.05 -15.51,-7.05 -7.52,0 -14.1,1.41 l -16.45,68.385 z m 85.305,-48.175 q 0,17.155 -5.64,31.49 -5.64,14.1 -15.745,24.44 -9.87,10.34 -23.97,16.215 -13.865,5.64 -30.315,5.64 -7.99,0 -15.98,-1.41 l -10.575,42.535 -34.78,0 39.01,-162.62 q 9.4,-2.82 21.385,-4.935 12.22,-2.35 26.32,-2.35 13.16,0 22.56,3.995 9.635,3.995 15.745,11.045 6.11,6.815 8.93,16.215 3.055,9.165 3.055,19.74 z" />
  <path
     id="path4214"
     style="font-weight:bold;font-size:medium;font-family:Ubuntu;fill:#ffffff;fill-rule:evenodd;stroke:none;stroke-width:1;filter:url(#filter-3)"
     d="m 115.456,130.928 q 1.872,3.432 4.264,8.528 2.496,4.992 5.096,10.92 2.704,5.824 5.304,11.96 2.6,6.136 4.888,11.544 2.288,-5.408 4.888,-11.544 2.6,-6.136 5.2,-11.96 2.704,-5.928 5.096,-10.92 2.496,-5.096 4.368,-8.528 l 14.768,0 q 1.04,7.176 1.872,16.12 0.936,8.84 1.56,18.512 0.728,9.568 1.248,19.24 0.624,9.672 1.04,18.2 l -15.808,0 q -0.312,-10.504 -0.832,-22.88 -0.52,-12.376 -1.56,-24.96 -1.872,4.368 -4.16,9.672 -2.288,5.304 -4.576,10.608 -2.184,5.304 -4.264,10.192 -2.08,4.784 -3.536,8.216 l -11.336,0 q -1.456,-3.432 -3.536,-8.216 -2.08,-4.888 -4.368,-10.192 -2.184,-5.304 -4.472,-10.608 -2.288,-5.304 -4.16,-9.672 -1.04,12.584 -1.56,24.96 -0.52,12.376 -0.832,22.88 l -15.808,0 q 0.416,-8.528 0.936,-18.2 0.624,-9.672 1.248,-19.24 0.728,-9.672 1.56,-18.512 0.936,-8.944 1.976,-16.12 l 15.496,0 z" />
  <path
     id="path4216"
     style="font-weight:bold;font-size:medium;font-family:Ubuntu;fill:#ffffff;fill-rule:evenodd;stroke:none;stroke-width:1;filter:url(#filter-3)"
     d="m 239.68237,175.544 q 0,6.448 -1.87199,11.856 -1.87201,5.304 -5.40801,9.152 -3.536,3.744 -8.528,5.824 -4.888,2.08 -11.02399,2.08 -6.032,0 -11.024,-2.08 -4.88801,-2.08 -8.424,-5.824 -3.536,-3.848 -5.51201,-9.152 -1.976,-5.408 -1.976,-11.856 0,-6.448 1.976,-11.752 2.08001,-5.304 5.61601,-9.048 3.64,-3.744 8.52799,-5.824 4.99201,-2.08 10.81601,-2.08 5.92799,0 10.816,2.08 4.99199,2.08 8.52799,5.824 3.536,3.744 5.512,9.048 1.976,5.304 1.976,11.752 z m -15.808,0 q 0,-7.176 -2.912,-11.232 -2.80799,-4.16 -8.11199,-4.16 -5.30401,0 -8.216,4.16 -2.912,4.056 -2.912,11.232 0,7.176 2.912,11.44 2.91199,4.16 8.216,4.16 5.304,0 8.11199,-4.16 2.912,-4.264 2.912,-11.44 z" />
  <path
     id="path4218"
     style="font-weight:bold;font-size:medium;font-family:Ubuntu;fill:#ffffff;fill-rule:evenodd;stroke:none;stroke-width:1;filter:url(#filter-3)"
     d="m 284.65425,162.024 q -2.08,-0.52 -4.888,-1.04 -2.808,-0.624 -6.032,-0.624 -1.456,0 -3.536,0.312 -1.976,0.208 -3.016,0.52 l 0,41.808 -15.496,0 0,-51.792 q 4.16,-1.456 9.776,-2.704 5.72,-1.352 12.688,-1.352 1.248,0 3.016,0.208 1.768,0.104 3.536,0.416 1.768,0.208 3.536,0.624 1.768,0.312 3.016,0.832 l -2.6,12.792 z" />
  <path
     id="path4220"
     style="font-weight:bold;font-size:medium;font-family:Ubuntu;fill:#ffffff;fill-rule:evenodd;stroke:none;stroke-width:1;filter:url(#filter-3)"
     d="m 345.71362,175.544 q 0,6.448 -1.87199,11.856 -1.87201,5.304 -5.40801,9.152 -3.536,3.744 -8.528,5.824 -4.888,2.08 -11.024,2.08 -6.032,0 -11.02399,-2.08 -4.88801,-2.08 -8.42401,-5.824 -3.536,-3.848 -5.512,-9.152 -1.976,-5.408 -1.976,-11.856 0,-6.448 1.976,-11.752 2.08,-5.304 5.616,-9.048 3.64,-3.744 8.528,-5.824 4.992,-2.08 10.816,-2.08 5.928,0 10.81601,2.08 4.99199,2.08 8.52799,5.824 3.536,3.744 5.512,9.048 1.976,5.304 1.976,11.752 z m -15.808,0 q 0,-7.176 -2.912,-11.232 -2.80799,-4.16 -8.112,-4.16 -5.304,0 -8.216,4.16 -2.912,4.056 -2.912,11.232 0,7.176 2.912,11.44 2.912,4.16 8.216,4.16 5.30401,0 8.112,-4.16 2.912,-4.264 2.912,-11.44 z" />
  <path
     id="path4222"
     style="font-weight:bold;font-size:medium;font-family:Ubuntu;fill:#ffffff;fill-rule:evenodd;stroke:none;stroke-width:1;filter:url(#filter-3)"
     d="m 355.1175,175.648 q 0,-5.928 1.872,-11.128 1.976,-5.304 5.616,-9.152 3.64,-3.952 8.84,-6.24 5.2,-2.288 11.856,-2.288 4.368,0 8.008,0.832 3.64,0.728 7.072,2.184 l -3.224,12.376 q -2.184,-0.832 -4.784,-1.456 -2.6,-0.624 -5.824,-0.624 -6.864,0 -10.296,4.264 -3.328,4.264 -3.328,11.232 0,7.384 3.12,11.44 3.224,4.056 11.128,4.056 2.808,0 6.032,-0.52 3.224,-0.52 5.928,-1.664 l 2.184,12.688 q -2.704,1.144 -6.76,1.976 -4.056,0.832 -8.944,0.832 -7.488,0 -12.896,-2.184 -5.408,-2.288 -8.944,-6.136 -3.432,-3.848 -5.096,-9.048 -1.56,-5.304 -1.56,-11.44 z" />
  <path
     id="path4224"
     style="font-weight:bold;font-size:medium;font-family:Ubuntu;fill:#ffffff;fill-rule:evenodd;stroke:none;stroke-width:1;filter:url(#filter-3)"
     d="m 404.47687,175.648 q 0,-5.928 1.87201,-11.128 1.976,-5.304 5.61599,-9.152 3.64,-3.952 8.84,-6.24 5.2,-2.288 11.856,-2.288 4.368,0 8.00801,0.832 3.63999,0.728 7.072,2.184 l -3.224,12.376 q -2.18401,-0.832 -4.78401,-1.456 -2.59999,-0.624 -5.82399,-0.624 -6.86401,0 -10.296,4.264 -3.32801,4.264 -3.32801,11.232 0,7.384 3.12,11.44 3.224,4.056 11.128,4.056 2.808,0 6.03201,-0.52 3.224,-0.52 5.928,-1.664 l 2.18399,12.688 q -2.704,1.144 -6.76,1.976 -4.05599,0.832 -8.944,0.832 -7.488,0 -12.896,-2.184 -5.40799,-2.288 -8.94399,-6.136 -3.43201,-3.848 -5.09601,-9.048 -1.56,-5.304 -1.56,-11.44 z" />
  <path
     id="path4226"
     style="font-weight:bold;font-size:medium;font-family:Ubuntu;fill:#ffffff;fill-rule:evenodd;stroke:none;stroke-width:1;filter:url(#filter-3)"
     d="m 507.60425,175.544 q 0,6.448 -1.872,11.856 -1.872,5.304 -5.408,9.152 -3.536,3.744 -8.528,5.824 -4.888,2.08 -11.024,2.08 -6.032,0 -11.024,-2.08 -4.888,-2.08 -8.424,-5.824 -3.536,-3.848 -5.512,-9.152 -1.976,-5.408 -1.976,-11.856 0,-6.448 1.976,-11.752 2.08,-5.304 5.616,-9.048 3.64,-3.744 8.528,-5.824 4.992,-2.08 10.816,-2.08 5.928,0 10.816,2.08 4.992,2.08 8.528,5.824 3.536,3.744 5.512,9.048 1.976,5.304 1.976,11.752 z m -15.808,0 q 0,-7.176 -2.912,-11.232 -2.808,-4.16 -8.112,-4.16 -5.304,0 -8.216,4.16 -2.912,4.056 -2.912,11.232 0,7.176 2.912,11.44 2.912,4.16 8.216,4.16 5.304,0 8.112,-4.16 2.912,-4.264 2.912,-11.44 z" />
</svg>
