<?xml version="1.0" encoding="UTF-8" standalone="no"?>
<svg
   xmlns:dc="http://purl.org/dc/elements/1.1/"
   xmlns:cc="http://creativecommons.org/ns#"
   xmlns:rdf="http://www.w3.org/1999/02/22-rdf-syntax-ns#"
   xmlns:svg="http://www.w3.org/2000/svg"
   xmlns="http://www.w3.org/2000/svg"
   viewBox="0 0 124.19375 138.6659"
   height="138.66589"
   width="124.19375"
   xml:space="preserve"
   version="1.1"
   id="svg2"><metadata
     id="metadata8"><rdf:RDF><cc:Work
         rdf:about=""><dc:format>image/svg+xml</dc:format><dc:type
           rdf:resource="http://purl.org/dc/dcmitype/StillImage" /><dc:title></dc:title></cc:Work></rdf:RDF></metadata><defs
     id="defs6" /><g
     transform="matrix(1.25,0,0,-1.25,-324.2825,714.70964)"
     id="g10"><path
       d="M 284.266,501.933 261.09,488.554 c 1.074,-1.856 2.625,-3.438 4.547,-4.547 l 18.629,-10.754 0,28.68 z"
       style="fill:#4c9edc;fill-opacity:1;fill-rule:nonzero;stroke:none"
       id="path90" /><path
       d="m 259.426,516.273 0,-21.508 c 0,-2.219 0.594,-4.356 1.664,-6.211 l 23.176,13.379 -24.84,14.34 z"
       style="fill:#498cd2;fill-opacity:1;fill-rule:nonzero;stroke:none"
       id="path92" /><path
       d="m 284.266,501.933 0,28.679 -24.84,-14.339 24.84,-14.34 z"
       style="fill:#487dc8;fill-opacity:1;fill-rule:nonzero;stroke:none"
       id="path94" /><path
       d="m 284.266,473.253 18.629,-10.754 c 1.921,-1.109 4.066,-1.664 6.207,-1.664 l 0,26.758 -24.836,-14.34 z"
       style="fill:#5295d6;fill-opacity:1;fill-rule:nonzero;stroke:none"
       id="path96" /><path
       d="m 261.09,543.995 c -1.07,-1.859 -1.664,-3.992 -1.664,-6.211 l 0,-21.511 24.84,14.339 -23.176,13.383 z"
       style="fill:#476bbc;fill-opacity:1;fill-rule:nonzero;stroke:none"
       id="path98" /><path
       d="m 333.941,473.253 0,28.68 -24.836,-14.34 24.836,-14.34 z"
       style="fill:#7f9ad6;fill-opacity:1;fill-rule:nonzero;stroke:none"
       id="path100" /><path
       d="m 357.117,488.554 c 1.071,1.855 1.664,3.992 1.664,6.211 l 0,21.508 -24.84,-14.34 23.176,-13.379 z"
       style="fill:#727ebd;fill-opacity:1;fill-rule:nonzero;stroke:none"
       id="path102" /><path
       d="m 333.941,501.933 0,-28.68 18.629,10.754 c 1.922,1.109 3.473,2.691 4.547,4.547 l -23.176,13.379 z"
       style="fill:#8f9fd8;fill-opacity:1;fill-rule:nonzero;stroke:none"
       id="path104" /><path
       d="m 333.941,530.612 0,-28.679 24.84,14.34 -24.84,14.339 z"
       style="fill:#425da2;fill-opacity:1;fill-rule:nonzero;stroke:none"
       id="path106" /><path
       d="m 309.105,487.593 0,-26.758 c 2.141,0 4.286,0.555 6.207,1.664 l 18.629,10.754 -24.836,14.34 z"
       style="fill:#6495d5;fill-opacity:1;fill-rule:nonzero;stroke:none"
       id="path108" /><path
       d="m 309.105,544.956 -24.839,14.34 0,-28.684 24.839,14.344 z"
       style="fill:#3a64ad;fill-opacity:1;fill-rule:nonzero;stroke:none"
       id="path110" /><path
       d="m 309.105,544.956 24.836,-14.344 0,28.684 -24.836,-14.34 z"
       style="fill:#3a61a3;fill-opacity:1;fill-rule:nonzero;stroke:none"
       id="path112" /><path
       d="m 261.09,543.995 23.176,-13.383 0,28.684 -18.629,-10.758 c -1.922,-1.109 -3.473,-2.687 -4.547,-4.543"
       style="fill:#32549d;fill-opacity:1;fill-rule:nonzero;stroke:none"
       id="path114" /><path
       d="m 333.941,530.612 24.84,-14.339 0,21.511 c 0,2.219 -0.593,4.352 -1.664,6.211 l -23.176,-13.383 z"
       style="fill:#2f5296;fill-opacity:1;fill-rule:nonzero;stroke:none"
       id="path116" /><path
       d="m 333.941,530.612 23.176,13.383 c -1.074,1.856 -2.625,3.434 -4.547,4.543 l -18.629,10.758 0,-28.684 z"
       style="fill:#325295;fill-opacity:1;fill-rule:nonzero;stroke:none"
       id="path118" /><path
       d="m 333.941,559.296 -18.629,10.754 c -1.921,1.109 -4.066,1.664 -6.207,1.664 l 0,-26.758 24.836,14.34 z"
       style="fill:#4379c6;fill-opacity:1;fill-rule:nonzero;stroke:none"
       id="path120" /><path
       d="m 309.105,544.956 0,26.758 c -2.144,0 -4.289,-0.555 -6.21,-1.664 l -18.629,-10.754 24.839,-14.34 z"
       style="fill:#3f73bd;fill-opacity:1;fill-rule:nonzero;stroke:none"
       id="path122" /><path
       d="m 284.266,473.253 24.836,14.34 -24.836,14.34 0,-28.68 z"
       style="fill:#50a0dd;fill-opacity:1;fill-rule:nonzero;stroke:none"
       id="path124" /><path
       d="m 284.266,530.612 24.839,-14.339 0,28.683 -24.839,-14.344 z"
       style="fill:#487dc8;fill-opacity:1;fill-rule:nonzero;stroke:none"
       id="path126" /><path
       d="m 284.266,501.933 24.839,-14.34 0,28.68 -24.839,-14.34 z"
       style="fill:#6aaee3;fill-opacity:1;fill-rule:nonzero;stroke:none"
       id="path128" /><path
       d="m 309.105,516.273 24.836,-14.34 0,28.679 -24.836,-14.339 z"
       style="fill:#476bbc;fill-opacity:1;fill-rule:nonzero;stroke:none"
       id="path130" /><path
       d="m 309.105,516.273 -24.839,14.343 0,-28.683 24.839,14.34 z"
       style="fill:#50a0dd;fill-opacity:1;fill-rule:nonzero;stroke:none"
       id="path132" /><path
       d="m 333.941,530.612 -24.836,14.344 0,-28.683 24.836,14.339 z"
       style="fill:#3a64ad;fill-opacity:1;fill-rule:nonzero;stroke:none"
       id="path134" /><path
       d="m 333.941,501.933 -24.836,14.34 0,-28.68 24.836,14.34 z"
       style="fill:#487dc8;fill-opacity:1;fill-rule:nonzero;stroke:none"
       id="path136" /><g
       id="g138"
       transform="translate(0,841.88977)"><path
         d="m 309.102,-270.176 c -0.524,0 -1.047,-0.035 -1.567,-0.101 -0.375,-42.336 -2.652,-79.52 -18.152,-101.317 l 5.035,-2.902 c 2.312,6.07 8.043,10.379 14.762,10.379 6.691,0 12.402,-4.274 14.734,-10.309 l 4.906,2.832 c -15.496,21.793 -17.773,58.981 -18.148,101.317 -0.52,0.066 -1.043,0.101 -1.567,0.101 0,-32.386 -0.003,-24.515 -0.003,0 z"
         style="fill:#ffffff;fill-opacity:1;fill-rule:nonzero;stroke:#ffffff;stroke-width:0.107878;stroke-linecap:butt;stroke-linejoin:miter;stroke-miterlimit:4;stroke-dasharray:none;stroke-opacity:1"
         id="path140" /></g></g></svg>