<?xml version="1.0" encoding="UTF-8" standalone="no"?>
<svg
   xmlns:dc="http://purl.org/dc/elements/1.1/"
   xmlns:cc="http://creativecommons.org/ns#"
   xmlns:rdf="http://www.w3.org/1999/02/22-rdf-syntax-ns#"
   xmlns:svg="http://www.w3.org/2000/svg"
   xmlns="http://www.w3.org/2000/svg"
   height="228.2"
   width="685.69653"
   xml:space="preserve"
   viewBox="0 0 685.69651 228.2"
   y="0px"
   x="0px"
   id="Layer_1"
   version="1.1"><metadata
     id="metadata34"><rdf:RDF><cc:Work
         rdf:about=""><dc:format>image/svg+xml</dc:format><dc:type
           rdf:resource="http://purl.org/dc/dcmitype/StillImage" /><dc:title></dc:title></cc:Work></rdf:RDF></metadata><defs
     id="defs32" /><style
     id="style3"
     type="text/css">
	.st0{fill:url(#SVGID_1_);}
	.st1{fill:#FFFFFF;}
</style><path
     d="m 169.7,178.6 35.1,-178.4 38.3,0 -8.5,44.7 c -0.1,0.7 0.1,1.4 0.5,1.9 0.4,0.5 1.1,0.8 1.8,0.8 l 40.6,0 -0.1,0 c 15.5,1 26.6,4.9 33.6,10.6 7,5.7 10.2,13.1 10.3,21.9 0,2.5 -0.3,5 -0.8,7.7 l 0,0.1 -15.6,90.6 -40.5,0 15.3,-80.9 0,0 c 0.6,-3.1 1.1,-6 1.1,-8.7 0,-1.7 -0.2,-3.4 -0.8,-5 -0.5,-1.2 -1.2,-2.3 -2.1,-3.2 -1.4,-1.4 -3.3,-2.4 -5.6,-3 -2.3,-0.6 -5.1,-0.9 -8.4,-0.9 l -33.9,0 c -1.1,0 -2,0.8 -2.2,1.8 l -19.9,99.9 -38.2,0.1 z"
     id="path7" /><path
     style="stroke:none"
     d="m 428.8,45.3 -85.8,0 -33.9,182.9 42.9,0 9,-47.4 38.4,0 c 38.4,2.3 81.3,-29.4 83.6,-83.6 0,-31.6 -18.1,-49.6 -54.2,-51.9 z m 6.8,54.2 c 0,38.4 -18.1,45.2 -40.6,47.4 l -27.1,0 13.5,-67.7 27.1,0 c 18,0 29.3,6.8 27.1,20.3 z"
     id="path9" /><path
     d="m 119.7,45.3 -85.8,0 -33.9,182.9 42.9,0 9,-47.4 38.4,0 c 38.4,2.3 81.3,-29.4 83.6,-83.6 0,-31.6 -18.1,-49.6 -54.2,-51.9 z m 6.8,54.2 c 0,38.4 -18.1,45.2 -40.6,47.4 l -27.1,0 13.6,-67.7 27.1,0 c 18,0 29.3,6.8 27,20.3 z"
     id="path11" /><g
     transform="translate(-78.1,-183.5)"
     id="g13"><linearGradient
       gradientTransform="matrix(41.3793,59.0957,59.0957,-41.3793,-29907,28782.414)"
       y2="574.07843"
       x2="-79.811203"
       y1="574.07843"
       x1="-82.083702"
       gradientUnits="userSpaceOnUse"
       id="SVGID_1_"><stop
         id="stop16"
         style="stop-color:#0072A7"
         offset="0" /><stop
         id="stop18"
         style="stop-color:#0081B4"
         offset="5.494510e-02" /><stop
         id="stop20"
         style="stop-color:#7FCCE0"
         offset="1" /></linearGradient><path
       style="fill:url(#SVGID_1_)"
       id="path22"
       d="m 753.9,270.5 c -3.2,18.5 -21.2,33.6 -40,33.6 l -110.9,0 c -18.7,0 -31.4,-15.1 -28.2,-33.6 l 9.4,-53.4 c 3.2,-18.5 21.2,-33.6 40,-33.6 l 110.9,0 c 18.8,0 31.4,15.1 28.2,33.6 l -9.4,53.4 z"
       class="st0" /></g><g
     transform="translate(-78.1,-183.5)"
     id="g24"><path
       style="fill:#ffffff"
       id="path26"
       d="m 638,262.3 c 0.1,1.3 0.2,2.3 0.1,3 0.1,0.4 0.2,0.6 0.5,0.5 0.3,0 0.5,-0.2 0.6,-0.6 0,-0.1 0,-0.5 0.1,-1 0.1,-0.5 0.2,-1.1 0.3,-1.8 0.1,-0.7 0.2,-1.4 0.4,-2.1 0.1,-0.7 0.2,-1.4 0.3,-2 l 8.9,-47.4 c 0.1,-0.6 0.3,-1.1 0.6,-1.4 0.2,-0.3 0.7,-0.4 1.3,-0.4 l 8.8,0 c 0.5,0 0.8,0.1 0.9,0.3 0.1,0.2 0.1,0.7 0,1.4 L 648.3,277 c -0.1,0.7 -0.3,1.2 -0.6,1.4 -0.2,0.2 -0.7,0.3 -1.4,0.3 l -15.1,0 c -1.1,0 -1.7,-0.5 -1.8,-1.6 l -10.3,-47 c -0.2,-0.9 -0.3,-2.1 -0.4,-3.6 -0.1,-1.5 -0.2,-2.6 -0.2,-3.5 0.1,-0.4 -0.1,-0.6 -0.4,-0.5 -0.3,0 -0.6,0.2 -0.7,0.6 0,0.1 0,0.5 -0.1,1.1 -0.1,0.6 -0.2,1.3 -0.3,2 -0.1,0.8 -0.3,1.6 -0.4,2.4 -0.1,0.8 -0.2,1.5 -0.4,2.1 l -8.7,46.2 c -0.1,0.6 -0.3,1.1 -0.5,1.4 -0.3,0.3 -0.7,0.4 -1.3,0.4 l -8.7,0 c -0.5,0 -0.8,-0.1 -1,-0.3 -0.1,-0.2 -0.2,-0.7 0,-1.4 l 12.5,-66.2 c 0.1,-0.7 0.3,-1.2 0.5,-1.4 0.3,-0.2 0.7,-0.3 1.5,-0.3 l 15.1,0 c 0.9,0 1.5,0.6 1.8,1.7 l 10.1,48.2 c 0.2,0.9 0.4,2.1 0.5,3.3 z"
       class="st1" /><path
       style="fill:#ffffff"
       id="path28"
       d="m 703.1,236.4 c -0.9,2.8 -1.8,5.9 -2.9,9.1 -1.1,3.2 -2.2,6.5 -3.3,9.9 -1.2,3.3 -2.2,6.5 -3.3,9.4 -1,2.9 -2,5.4 -2.8,7.6 -0.8,2.2 -1.5,3.7 -1.9,4.6 -0.3,0.5 -0.6,1 -1,1.3 -0.4,0.4 -0.8,0.5 -1.4,0.5 l -13,0 c -0.5,0 -0.9,-0.2 -1.1,-0.6 -0.2,-0.4 -0.3,-0.8 -0.3,-1.4 -0.3,-11.1 -0.7,-22.1 -1.1,-33.1 -0.4,-11 -1,-22 -1.6,-33.1 -0.1,-1 0.3,-1.6 1,-1.6 l 9.4,0 c 0.2,0 0.4,0.1 0.6,0.2 0.1,0.1 0.2,0.5 0.2,1 0.5,9.3 0.8,18.5 1.1,27.6 0.2,9.1 0.4,18.3 0.4,27.6 0,0.6 0.3,0.9 0.9,0.9 0.6,0 1,-0.3 1.3,-0.9 0.8,-2.1 1.8,-4.7 2.9,-7.9 1.1,-3.2 2.3,-6.7 3.5,-10.3 1.2,-3.7 2.5,-7.4 3.8,-11.3 1.3,-3.9 2.4,-7.5 3.5,-10.8 1.1,-3.3 2,-6.3 2.8,-8.8 0.8,-2.5 1.3,-4.3 1.5,-5.3 0.2,-1.3 0.8,-1.9 1.8,-1.9 l 11.2,0 c 0.7,0 1,0.5 1,1.6 0,9.2 -0.1,18.3 -0.2,27.4 -0.2,9.1 -0.4,18.3 -0.7,27.5 0,0.6 0.3,0.9 1,0.9 0.6,0 1,-0.3 1.2,-0.9 0.9,-2.1 2,-4.8 3.3,-8 1.3,-3.3 2.7,-6.8 4.2,-10.6 1.5,-3.8 2.9,-7.6 4.4,-11.5 1.5,-3.9 2.8,-7.6 4,-10.9 1.2,-3.3 2.2,-6.2 3.1,-8.7 0.8,-2.4 1.3,-4 1.4,-4.7 0.1,-0.7 0.3,-1.2 0.5,-1.5 0.2,-0.3 0.7,-0.4 1.2,-0.4 l 8.8,0 c 0.6,0 0.9,0.2 1.1,0.5 0.1,0.4 0.2,0.7 0.1,1.1 -0.1,0.4 -0.4,1.6 -1.2,3.6 -0.8,2 -1.7,4.5 -2.9,7.4 -1.2,3 -2.5,6.3 -4,10 -1.5,3.7 -3,7.5 -4.6,11.3 -1.6,3.9 -3.2,7.7 -4.7,11.4 -1.5,3.8 -3,7.2 -4.3,10.3 -1.3,3.1 -2.5,5.7 -3.4,7.9 -1,2.2 -1.6,3.6 -2,4.2 -0.3,0.5 -0.6,1 -1,1.3 -0.4,0.4 -0.8,0.5 -1.4,0.5 l -12.9,0 c -0.6,0 -1,-0.2 -1.1,-0.6 -0.2,-0.4 -0.3,-0.8 -0.3,-1.4 0.3,-8 0.5,-15.9 0.6,-23.8 0.1,-7.9 0.2,-15.8 0.1,-23.7 0,-0.4 -0.2,-0.6 -0.7,-0.6 -0.4,0 -0.7,0.2 -0.8,0.7 -0.4,1.9 -1.1,4.2 -2,7 z"
       class="st1" /></g></svg>