<?xml version="1.0" encoding="utf-8"?>
<!-- Generator: Adobe Illustrator 19.0.0, SVG Export Plug-In . SVG Version: 6.00 Build 0)  -->
<!DOCTYPE svg PUBLIC "-//W3C//DTD SVG 1.1//EN" "http://www.w3.org/Graphics/SVG/1.1/DTD/svg11.dtd">
<svg version="1.1" id="Layer_1" xmlns="http://www.w3.org/2000/svg" xmlns:xlink="http://www.w3.org/1999/xlink" x="0px" y="0px"
	 viewBox="0 0 841.9 595.3" style="enable-background:new 0 0 841.9 595.3;" xml:space="preserve">
<style type="text/css">
	.st0{fill:url(#SVGID_1_);}
	.st1{fill:#FFFFFF;}
</style>
<g>
	<path d="M247.8,362.1l35.1-178.4h38.3l-8.5,44.7c-0.1,0.7,0.1,1.4,0.5,1.9c0.4,0.5,1.1,0.8,1.8,0.8h40.6l-0.1,0
		c15.5,1,26.6,4.9,33.6,10.6c7,5.7,10.2,13.1,10.3,21.9c0,2.5-0.3,5-0.8,7.7l0,0.1L383,362h-40.5l15.3-80.9v0c0.6-3.1,1.1-6,1.1-8.7
		c0-1.7-0.2-3.4-0.8-5c-0.5-1.2-1.2-2.3-2.1-3.2c-1.4-1.4-3.3-2.4-5.6-3c-2.3-0.6-5.1-0.9-8.4-0.9h-33.9c-1.1,0-2,0.8-2.2,1.8
		L286,362L247.8,362.1z"/>
	<path d="M506.9,228.8h-85.8l-33.9,182.9h42.9l9-47.4h38.4c38.4,2.3,81.3-29.4,83.6-83.6C561.1,249.1,543,231.1,506.9,228.8z
		 M513.7,283c0,38.4-18.1,45.2-40.6,47.4h-27.1l13.5-67.7h27.1C504.6,262.7,515.9,269.5,513.7,283z"/>
	<path d="M197.8,228.8H112L78.1,411.7H121l9-47.4h38.4c38.4,2.3,81.3-29.4,83.6-83.6C252,249.1,233.9,231.1,197.8,228.8z M204.6,283
		c0,38.4-18.1,45.2-40.6,47.4h-27.1l13.6-67.7h27.1C195.6,262.7,206.9,269.5,204.6,283z"/>
</g>
<g>
	
		<linearGradient id="SVGID_1_" gradientUnits="userSpaceOnUse" x1="-82.0837" y1="574.0784" x2="-79.8112" y2="574.0784" gradientTransform="matrix(41.3793 59.0957 59.0957 -41.3793 -29907 28782.4141)">
		<stop  offset="0" style="stop-color:#0072A7"/>
		<stop  offset="5.494510e-02" style="stop-color:#0081B4"/>
		<stop  offset="1" style="stop-color:#7FCCE0"/>
	</linearGradient>
	<path class="st0" d="M753.9,270.5c-3.2,18.5-21.2,33.6-40,33.6l-110.9,0c-18.7,0-31.4-15.1-28.2-33.6l9.4-53.4
		c3.2-18.5,21.2-33.6,40-33.6h110.9c18.8,0,31.4,15.1,28.2,33.6L753.9,270.5z"/>
</g>
<g>
	<path class="st1" d="M638,262.3c0.1,1.3,0.2,2.3,0.1,3c0.1,0.4,0.2,0.6,0.5,0.5c0.3,0,0.5-0.2,0.6-0.6c0-0.1,0-0.5,0.1-1
		c0.1-0.5,0.2-1.1,0.3-1.8c0.1-0.7,0.2-1.4,0.4-2.1c0.1-0.7,0.2-1.4,0.3-2l8.9-47.4c0.1-0.6,0.3-1.1,0.6-1.4
		c0.2-0.3,0.7-0.4,1.3-0.4h8.8c0.5,0,0.8,0.1,0.9,0.3c0.1,0.2,0.1,0.7,0,1.4l-12.5,66.2c-0.1,0.7-0.3,1.2-0.6,1.4
		c-0.2,0.2-0.7,0.3-1.4,0.3h-15.1c-1.1,0-1.7-0.5-1.8-1.6l-10.3-47c-0.2-0.9-0.3-2.1-0.4-3.6c-0.1-1.5-0.2-2.6-0.2-3.5
		c0.1-0.4-0.1-0.6-0.4-0.5c-0.3,0-0.6,0.2-0.7,0.6c0,0.1,0,0.5-0.1,1.1c-0.1,0.6-0.2,1.3-0.3,2c-0.1,0.8-0.3,1.6-0.4,2.4
		c-0.1,0.8-0.2,1.5-0.4,2.1l-8.7,46.2c-0.1,0.6-0.3,1.1-0.5,1.4c-0.3,0.3-0.7,0.4-1.3,0.4h-8.7c-0.5,0-0.8-0.1-1-0.3
		c-0.1-0.2-0.2-0.7,0-1.4l12.5-66.2c0.1-0.7,0.3-1.2,0.5-1.4c0.3-0.2,0.7-0.3,1.5-0.3h15.1c0.9,0,1.5,0.6,1.8,1.7l10.1,48.2
		C637.7,259.9,637.9,261.1,638,262.3z"/>
	<path class="st1" d="M703.1,236.4c-0.9,2.8-1.8,5.9-2.9,9.1c-1.1,3.2-2.2,6.5-3.3,9.9c-1.2,3.3-2.2,6.5-3.3,9.4
		c-1,2.9-2,5.4-2.8,7.6c-0.8,2.2-1.5,3.7-1.9,4.6c-0.3,0.5-0.6,1-1,1.3c-0.4,0.4-0.8,0.5-1.4,0.5h-13c-0.5,0-0.9-0.2-1.1-0.6
		c-0.2-0.4-0.3-0.8-0.3-1.4c-0.3-11.1-0.7-22.1-1.1-33.1c-0.4-11-1-22-1.6-33.1c-0.1-1,0.3-1.6,1-1.6h9.4c0.2,0,0.4,0.1,0.6,0.2
		c0.1,0.1,0.2,0.5,0.2,1c0.5,9.3,0.8,18.5,1.1,27.6c0.2,9.1,0.4,18.3,0.4,27.6c0,0.6,0.3,0.9,0.9,0.9c0.6,0,1-0.3,1.3-0.9
		c0.8-2.1,1.8-4.7,2.9-7.9c1.1-3.2,2.3-6.7,3.5-10.3c1.2-3.7,2.5-7.4,3.8-11.3c1.3-3.9,2.4-7.5,3.5-10.8c1.1-3.3,2-6.3,2.8-8.8
		c0.8-2.5,1.3-4.3,1.5-5.3c0.2-1.3,0.8-1.9,1.8-1.9h11.2c0.7,0,1,0.5,1,1.6c0,9.2-0.1,18.3-0.2,27.4c-0.2,9.1-0.4,18.3-0.7,27.5
		c0,0.6,0.3,0.9,1,0.9c0.6,0,1-0.3,1.2-0.9c0.9-2.1,2-4.8,3.3-8c1.3-3.3,2.7-6.8,4.2-10.6c1.5-3.8,2.9-7.6,4.4-11.5
		c1.5-3.9,2.8-7.6,4-10.9c1.2-3.3,2.2-6.2,3.1-8.7c0.8-2.4,1.3-4,1.4-4.7c0.1-0.7,0.3-1.2,0.5-1.5c0.2-0.3,0.7-0.4,1.2-0.4h8.8
		c0.6,0,0.9,0.2,1.1,0.5c0.1,0.4,0.2,0.7,0.1,1.1c-0.1,0.4-0.4,1.6-1.2,3.6c-0.8,2-1.7,4.5-2.9,7.4c-1.2,3-2.5,6.3-4,10
		c-1.5,3.7-3,7.5-4.6,11.3c-1.6,3.9-3.2,7.7-4.7,11.4c-1.5,3.8-3,7.2-4.3,10.3c-1.3,3.1-2.5,5.7-3.4,7.9c-1,2.2-1.6,3.6-2,4.2
		c-0.3,0.5-0.6,1-1,1.3c-0.4,0.4-0.8,0.5-1.4,0.5h-12.9c-0.6,0-1-0.2-1.1-0.6c-0.2-0.4-0.3-0.8-0.3-1.4c0.3-8,0.5-15.9,0.6-23.8
		c0.1-7.9,0.2-15.8,0.1-23.7c0-0.4-0.2-0.6-0.7-0.6c-0.4,0-0.7,0.2-0.8,0.7C704.7,231.3,704,233.6,703.1,236.4z"/>
</g>
</svg>
