<?xml version="1.0" encoding="UTF-8" standalone="no"?>
<svg
   xmlns:dc="http://purl.org/dc/elements/1.1/"
   xmlns:cc="http://creativecommons.org/ns#"
   xmlns:rdf="http://www.w3.org/1999/02/22-rdf-syntax-ns#"
   xmlns:svg="http://www.w3.org/2000/svg"
   xmlns="http://www.w3.org/2000/svg"
   xmlns:sodipodi="http://sodipodi.sourceforge.net/DTD/sodipodi-0.dtd"
   xmlns:inkscape="http://www.inkscape.org/namespaces/inkscape"
   width="322.09pt"
   height="287.0184pt"
   viewBox="0 0 322.09 287.0184"
   version="1.1"
   id="svg2"
   inkscape:version="0.91 r13725"
   sodipodi:docname="zgphp.svg">
  <metadata
     id="metadata96">
    <rdf:RDF>
      <cc:Work
         rdf:about="">
        <dc:format>image/svg+xml</dc:format>
        <dc:type
           rdf:resource="http://purl.org/dc/dcmitype/StillImage" />
        <dc:title></dc:title>
      </cc:Work>
    </rdf:RDF>
  </metadata>
  <defs
     id="defs94" />
  <sodipodi:namedview
     pagecolor="#ffffff"
     bordercolor="#666666"
     borderopacity="1"
     objecttolerance="10"
     gridtolerance="10"
     guidetolerance="10"
     inkscape:pageopacity="0"
     inkscape:pageshadow="2"
     inkscape:window-width="1916"
     inkscape:window-height="1035"
     id="namedview92"
     showgrid="false"
     fit-margin-top="0"
     fit-margin-left="0"
     fit-margin-right="0"
     fit-margin-bottom="0"
     inkscape:zoom="1.3191303"
     inkscape:cx="222.2625"
     inkscape:cy="230.30331"
     inkscape:window-x="4"
     inkscape:window-y="0"
     inkscape:window-maximized="1"
     inkscape:current-layer="svg2" />
  <path
     d="m 121.22,1.1283972 c 1.85,-0.57000003 3.79,-1.55000003 5.78,-0.93000003 11.44,3.03000003 22.93,5.88000003 34.34,9.01000003 -0.83,2.6599998 -1.61,5.3299998 -2.32,8.0199998 32.43,26.67 64.71,53.52 97.06,80.29 -11.92,11.830003 -23.91,23.570003 -35.83,35.390003 -3.86,3.86 -7.73,7.72 -11.6,11.56 -4.2,0.08 -8.39,0.08 -12.58,0.06 0.21,-7.59 0.28,-15.19 -0.02,-22.78 -5.91,-0.02 -9.59,4.85 -12.95,8.99 -1.46,-5.59 -6.33,-10.3 -12.29,-10.4 -6.93,-0.81 -13.43,4.43 -15,11.06 -2.91,-4.76 -7.11,-10.23 -13.36,-9.65 -0.23,7.44 -0.13,14.88 0,22.31 -5.31,-0.03 -10.63,-0.06 -15.94,-0.16 -0.09,-0.33 -0.27,-1 -0.36,-1.33 2.4,-9.51 1.82,-19.46 2.5,-29.18 -1.86,-1.83 -3.72,-3.65 -5.59,-5.46 0.09,-2.71 0.19,-5.41 0.41,-8.110003 2.1,1.470003 2.64,3.940003 3.24,6.260003 1.73,-0.08 3.45,-0.15 5.17,-0.39 1.14,-4.46 0.85,-9.110003 1.38,-13.650003 4.52,1 9.03,2.05 13.49,3.27 0.41,-0.59 1.23,-1.77 1.64,-2.35 0.42,4.28 0.82,8.560003 1.18,12.840003 2.39,-0.05 4.78,-0.1 7.17,-0.15 1.62,-13.320003 2.77,-26.700003 3.59,-40.080003 -2.9,-2.88 -4.42,-6.63 -4.15,-10.73 0.47,0.01 1.41,0.01 1.88,0.01 0.17,1.71 0.34,3.42 0.52,5.13 1.99,-0.12 3.98,-0.24 5.98,-0.36 0.34,-1.59 0.69,-3.18 1.05,-4.77 0.32,0.02 0.96,0.05 1.28,0.07 0.2,1.65 0.4,3.3 0.61,4.95 2.18,-0.01 4.36,-0.02 6.55,-0.02 0.17,-1.65 0.36,-3.29 0.54,-4.94 0.4,-0.06 1.18,-0.2 1.57,-0.27 0.18,1.73 0.36,3.46 0.55,5.2 1.94,-0.03 3.88,-0.06 5.83,-0.08 0.56,-1.97 1.12,-3.94 1.7,-5.91 1.46,5.84 -3.2,10.79 -2.33,16.57 0.78,11.71 2.17,23.36 2.97,35.060003 2.04,0.1 4.08,0.19 6.14,0.28 0.52,-7.460003 1.11,-14.910003 1.43,-22.380003 0.26,-4.73 -1.82,-9.12 -2.58,-13.72 0.54,0.05 1.62,0.14 2.16,0.18 0.35,1.7 0.7,3.39 1.06,5.1 1.42,-0.19 2.87,-0.31 4.28,-0.64 1.17,-1.49 1.99,-3.22 2.91,-4.87 0.56,1.39 1.13,2.78 1.71,4.18 1.6,0.13 3.2,0.26 4.81,0.39 0.84,-1.66 1.68,-3.32 2.56,-4.97 0.81,5.33 -2.36,10.14 -2.06,15.42 0.21,7.19 0.84,14.37 1.35,21.550003 1.69,0.02 3.39,0.04 5.09,0.06 0.19,-1.47 0.39,-2.94 0.6,-4.4 0.61,-0.04 1.85,-0.13 2.47,-0.17 -0.15,2.27 -0.11,4.57 -0.64,6.79 -1.13,2.19 -3.2,3.69 -4.9,5.41 0.03,8.82 -0.09,17.68 0.87,26.46 0.96,-1.72 1.57,-3.63 1.46,-5.61 -0.01,-6.04 -0.89,-12.07 -0.46,-18.1 0.3,-3.62 4.62,-5.33 5.05,-8.92 0.32,-2.72 0.13,-5.47 0.06,-8.200003 -1.84,0.01 -3.66,0.03 -5.48,0.04 -0.22,1.600003 -0.42,3.200003 -0.62,4.800003 -0.48,0.06 -1.43,0.17 -1.9,0.23 -0.15,-6.320003 -0.21,-12.640003 -0.7,-18.950003 -0.69,-6.01 3.33,-11.31 2.71,-17.37 -2.05,0.02 -4.09,0.03 -6.12,0.05 -0.45,1.52 -0.89,3.04 -1.32,4.56 -0.92,-1.67 -1.85,-3.33 -2.76,-4.99 -1.74,0.1 -3.48,0.19 -5.22,0.29 -0.27,1.55 -0.54,3.1 -0.8,4.65 -1.53,-3.16 -3.94,-5.69 -7.65,-5.97 -1.11,6.7 2.66,12.95 1.71,19.62 -0.52,5.6 -0.73,11.23 -0.83,16.850003 -0.7,0.46 -1.4,0.93 -2.09,1.39 -1.62,-11.260003 -1.79,-22.660003 -2.82,-33.980003 -0.6,-3.63 1.16,-6.91 2.34,-10.2 1.18,-2.72 0.12,-5.63 -0.36,-8.36 -1.62,0.02 -3.22,0.05 -4.82,0.07 -0.59,1.83 -1.16,3.66 -1.71,5.5 -0.49,-1.58 -0.92,-3.17 -1.59,-4.68 -1.63,-1.09 -3.84,-0.71 -5.69,-1.1 -0.18,1.77 -0.34,3.54 -0.51,5.32 -0.8,0 -1.59,0 -2.37,0 -0.2,-1.67 -0.39,-3.34 -0.58,-5.01 -2.15,-0.01 -4.3,-0.03 -6.44,-0.04 -0.16,1.72 -0.31,3.44 -0.45,5.16 -0.35,-0.05 -1.05,-0.13 -1.4,-0.17 -0.21,-1.62 -0.41,-3.24 -0.61,-4.86 -1.55,-0.12 -3.09,-0.25 -4.63,-0.37 1.61,-7.03 2.88,-14.13 4.29,-21.2 0.81,-3.9 0.73,-7.91 0.32,-11.84 -2.05,2.28 -3.42,5.05 -4.1,8.03 -4.28,15.37 -8.97,30.63 -13.42,45.96 l -0.36,1.16 c -0.75,2.35 -1.49,4.7 -2.25,7.04 -7.75,-6.19 -15.38,-12.55 -22.75,-19.19 -6.9,-6.23 -14.03,-12.21 -21.24,-18.07 -8.98,-7.61 -17.69,-15.57 -26.93,-22.88 -0.37,-0.31 -1.12,-0.94 -1.49,-1.25 17.7,-6.59 35.8,-12.0999998 53.61,-18.4299998 z"
     id="path6"
     inkscape:connector-curvature="0"
     style="fill:#6f80b6" />
  <path
     d="m 110.02,17.678397 c 4.08,-2.52 9.98,0.95 9.75,5.75 0.4,4.98 -5.8,8.58 -9.95,5.82 -4.37,-2.34 -4.3,-9.39 0.2,-11.57 z"
     id="path8"
     inkscape:connector-curvature="0"
     style="fill:#ffffff" />
  <path
     d="m 67.61,19.558397 c 0.37,0.31 1.12,0.94 1.49,1.25 0.79,3.71 2.01,7.33 3.94,10.61 3.93,6.61 6.93,13.81 11.92,19.75 -9.4,6.32 -18.91,12.47 -28.24,18.91 1.1,-6.48 2.71,-12.85 4.14,-19.25 2.08,-10.46 5.3,-20.7 6.75,-31.27 z"
     id="path10"
     inkscape:connector-curvature="0"
     style="fill:#5b6891" />
  <path
     d="m 109.96,20.358397 c 2.78,-1.58 6.65,1.01 6.01,4.2 -0.28,3.39 -5.52,4.84 -7.22,1.73 -1.6,-1.87 -0.62,-4.63 1.21,-5.93 z"
     id="path12"
     inkscape:connector-curvature="0"
     style="fill:#303030" />
  <path
     d="m 156.05,26.788397 c 0.68,-2.98 2.05,-5.75 4.1,-8.03 0.41,3.93 0.49,7.94 -0.32,11.84 -1.41,7.07 -2.68,14.17 -4.29,21.2 1.54,0.12 3.08,0.25 4.63,0.37 0.2,1.62 0.4,3.24 0.61,4.86 0.35,0.04 1.05,0.12 1.4,0.17 0.14,-1.72 0.29,-3.44 0.45,-5.16 2.14,0.01 4.29,0.03 6.44,0.04 0.19,1.67 0.38,3.34 0.58,5.01 0.78,0 1.57,0 2.37,0 0.17,-1.78 0.33,-3.55 0.51,-5.32 1.85,0.39 4.06,0.01 5.69,1.1 0.67,1.51 1.1,3.1 1.59,4.68 0.55,-1.84 1.12,-3.67 1.71,-5.5 1.6,-0.02 3.2,-0.05 4.82,-0.07 0.48,2.73 1.54,5.64 0.36,8.36 -1.18,3.29 -2.94,6.57 -2.34,10.2 1.03,11.32 1.2,22.72 2.82,33.980003 0.69,-0.46 1.39,-0.93 2.09,-1.39 0.1,-5.620003 0.31,-11.250003 0.83,-16.850003 0.95,-6.67 -2.82,-12.92 -1.71,-19.62 3.71,0.28 6.12,2.81 7.65,5.97 0.26,-1.55 0.53,-3.1 0.8,-4.65 1.74,-0.1 3.48,-0.19 5.22,-0.29 0.91,1.66 1.84,3.32 2.76,4.99 0.43,-1.52 0.87,-3.04 1.32,-4.56 2.03,-0.02 4.07,-0.03 6.12,-0.05 0.62,6.06 -3.4,11.36 -2.71,17.37 0.49,6.31 0.55,12.63 0.7,18.950003 0.47,-0.06 1.42,-0.17 1.9,-0.23 0.2,-1.6 0.4,-3.2 0.62,-4.800003 1.82,-0.01 3.64,-0.03 5.48,-0.04 0.07,2.730003 0.26,5.480003 -0.06,8.200003 -0.43,3.59 -4.75,5.3 -5.05,8.92 -0.43,6.03 0.45,12.06 0.46,18.1 0.11,1.98 -0.5,3.89 -1.46,5.61 -0.96,-8.78 -0.84,-17.64 -0.87,-26.46 1.7,-1.72 3.77,-3.22 4.9,-5.41 0.53,-2.22 0.49,-4.52 0.64,-6.79 -0.62,0.04 -1.86,0.13 -2.47,0.17 -0.21,1.46 -0.41,2.93 -0.6,4.4 -1.7,-0.02 -3.4,-0.04 -5.09,-0.06 -0.51,-7.180003 -1.14,-14.360003 -1.35,-21.550003 -0.3,-5.28 2.87,-10.09 2.06,-15.42 -0.88,1.65 -1.72,3.31 -2.56,4.97 -1.61,-0.13 -3.21,-0.26 -4.81,-0.39 -0.58,-1.4 -1.15,-2.79 -1.71,-4.18 -0.92,1.65 -1.74,3.38 -2.91,4.87 -1.41,0.33 -2.86,0.45 -4.28,0.64 -0.36,-1.71 -0.71,-3.4 -1.06,-5.1 -0.54,-0.04 -1.62,-0.13 -2.16,-0.18 0.76,4.6 2.84,8.99 2.58,13.72 -0.32,7.47 -0.91,14.92 -1.43,22.380003 -2.06,-0.09 -4.1,-0.18 -6.14,-0.28 -0.8,-11.700003 -2.19,-23.350003 -2.97,-35.060003 -0.87,-5.78 3.79,-10.73 2.33,-16.57 -0.58,1.97 -1.14,3.94 -1.7,5.91 -1.95,0.02 -3.89,0.05 -5.83,0.08 -0.19,-1.74 -0.37,-3.47 -0.55,-5.2 -0.39,0.07 -1.17,0.21 -1.57,0.27 -0.18,1.65 -0.37,3.29 -0.54,4.94 -2.19,0 -4.37,0.01 -6.55,0.02 -0.21,-1.65 -0.41,-3.3 -0.61,-4.95 -0.32,-0.02 -0.96,-0.05 -1.28,-0.07 -0.36,1.59 -0.71,3.18 -1.05,4.77 -2,0.12 -3.99,0.24 -5.98,0.36 -0.18,-1.71 -0.35,-3.42 -0.52,-5.13 -0.47,0 -1.41,0 -1.88,-0.01 -0.27,4.1 1.25,7.85 4.15,10.73 -0.82,13.38 -1.97,26.76 -3.59,40.080003 -2.39,0.05 -4.78,0.1 -7.17,0.15 -0.36,-4.28 -0.76,-8.560003 -1.18,-12.840003 -0.41,0.58 -1.23,1.76 -1.64,2.35 -4.46,-1.22 -8.97,-2.27 -13.49,-3.27 0.05,-0.24 0.14,-0.73 0.18,-0.97 1.06,-0.66 2.15,-1.27 3.25,-1.88 0.62,-2.37 1.62,-4.63 3.19,-6.53 -0.08,2.88 -0.29,5.75 -0.51,8.62 1.25,-0.17 2.54,-0.22 3.73,-0.68 -0.05,-3.12 -0.69,-6.19 -1.21,-9.26 -5.51,0.66 -10.96,1.71 -16.33,3.08 -5.41,1.4 -11.09,1.67 -16.36,3.62 7.26,1.71 15.34,-0.87 22.13,2.77 0.18,1.66 0.11,3.35 0.06,5.02 -0.47,-1.21 -0.95,-2.42 -1.44,-3.62 -8.16,-0.29 -16.26,-1.48 -24.44,-1.26 -0.45,-1.65 -0.9,-3.3 -1.26,-4.97 3.99,-8.23 8.77,-16.1 13.02,-24.22 7.37,6.64 15,13 22.75,19.19 0.76,-2.34 1.5,-4.69 2.25,-7.04 1.66,0.26 3.34,0.53 5.02,0.8 1.08,-1.98 2.16,-3.96 3.3,-5.91 -0.16,3.3 -0.94,6.51 -1.77,9.69 -1,3.88 0.12,7.84 0.76,11.67 0.45,-4.23 -0.42,-8.85 1.71,-12.73 0.05,8.6 -0.21,17.2 0.06,25.800003 1.27,-0.05 2.56,-0.1 3.85,-0.15 0.33,-11.250003 1.53,-22.440003 2.24,-33.660003 0.51,-2.98 -1.6,-5.23 -3.38,-7.29 -0.88,4.62 -0.01,9.62 -2.09,13.95 0,-2.85 -0.02,-5.71 -0.04,-8.56 -1.54,0.1 -3.07,0.21 -4.59,0.31 -0.43,1.3 -0.85,2.59 -1.27,3.89 -1.15,0.33 -2.3,0.67 -3.44,1.03 4.45,-15.33 9.14,-30.59 13.42,-45.96 z"
     id="path14"
     inkscape:connector-curvature="0"
     style="fill:#5b6891" />
  <path
     d="m 73.04,31.418397 c -1.93,-3.28 -3.15,-6.9 -3.94,-10.61 9.24,7.31 17.95,15.27 26.93,22.88 -3.59,2.64 -7.36,5.03 -11.07,7.48 -4.99,-5.94 -7.99,-13.14 -11.92,-19.75 z"
     id="path16"
     inkscape:connector-curvature="0"
     style="fill:#4f5569" />
  <path
     d="m 19.61,61.538397 c 13.73,-3.66 27.56,-6.89 41.25,-10.71 -1.43,6.4 -3.04,12.77 -4.14,19.25 -12.3,-3.16 -24.77,-5.57 -37.11,-8.54 z"
     id="path18"
     inkscape:connector-curvature="0"
     style="fill:#6f80b6" />
  <path
     d="m 151.97,76.078397 c 2.08,-4.33 1.21,-9.33 2.09,-13.95 1.78,2.06 3.89,4.31 3.38,7.29 -0.71,11.22 -1.91,22.41 -2.24,33.660003 -1.29,0.05 -2.58,0.1 -3.85,0.15 -0.27,-8.600003 -0.01,-17.200003 -0.06,-25.800003 0.17,-0.34 0.51,-1.01 0.68,-1.35 z"
     id="path20"
     inkscape:connector-curvature="0"
     style="fill:#6f80b6" />
  <path
     d="m 147.34,67.828397 c 1.52,-0.1 3.05,-0.21 4.59,-0.31 0.02,2.85 0.04,5.71 0.04,8.56 -0.17,0.34 -0.51,1.01 -0.68,1.35 -2.13,3.88 -1.26,8.5 -1.71,12.73 -0.64,-3.83 -1.76,-7.79 -0.76,-11.67 0.83,-3.18 1.61,-6.39 1.77,-9.69 -1.14,1.95 -2.22,3.93 -3.3,5.91 -1.68,-0.27 -3.36,-0.54 -5.02,-0.8 l 0.36,-1.16 c 1.14,-0.36 2.29,-0.7 3.44,-1.03 0.42,-1.3 0.84,-2.59 1.27,-3.89 z"
     id="path22"
     inkscape:connector-curvature="0"
     style="fill:#4f5569" />
  <path
     d="m 169.52,69.038397 1.44,0.17 c -0.13,3.29 0.71,6.45 1.39,9.63 -1.16,1.43 -2.77,0.49 -4.19,0.15 1.07,-3.21 1.41,-6.58 1.36,-9.95 z"
     id="path24"
     inkscape:connector-curvature="0"
     style="fill:#4f5569" />
  <path
     d="m 125.56,84.418397 c 5.37,-1.37 10.82,-2.42 16.33,-3.08 0.52,3.07 1.16,6.14 1.21,9.26 -1.19,0.46 -2.48,0.51 -3.73,0.68 0.22,-2.87 0.43,-5.74 0.51,-8.62 -1.57,1.9 -2.57,4.16 -3.19,6.53 -1.1,0.61 -2.19,1.22 -3.25,1.88 -0.04,0.24 -0.13,0.73 -0.18,0.97 -0.53,4.54 -0.24,9.190003 -1.38,13.650003 -1.72,0.24 -3.44,0.31 -5.17,0.39 -0.6,-2.32 -1.14,-4.79 -3.24,-6.260003 -0.22,2.700003 -0.32,5.400003 -0.41,8.110003 1.87,1.81 3.73,3.63 5.59,5.46 -0.68,9.72 -0.1,19.67 -2.5,29.18 -0.15,-0.54 -0.45,-1.61 -0.61,-2.14 1,-8.75 1.2,-17.56 1.74,-26.34 -1.98,-1.9 -3.95,-3.81 -5.92,-5.72 0,-3.13 -0.01,-6.27 -0.02,-9.400003 1.98,0.16 3.97,0.31 5.96,0.47 0.17,1.610003 0.34,3.220003 0.51,4.820003 0.79,-0.01 2.36,-0.03 3.15,-0.04 0.14,-2.8 0.34,-5.590003 0.43,-8.390003 0.05,-1.67 0.12,-3.36 -0.06,-5.02 -6.79,-3.64 -14.87,-1.06 -22.13,-2.77 5.27,-1.95 10.95,-2.22 16.36,-3.62 z"
     id="path26"
     inkscape:connector-curvature="0"
     style="fill:#4f5569" />
  <path
     d="m 198.59,91.908397 c -0.49,-3.68 0.28,-7.51 1.56,-10.97 0.43,3.36 0.79,6.76 2.06,9.93 -1.19,0.46 -2.39,0.8 -3.62,1.04 z"
     id="path28"
     inkscape:connector-curvature="0"
     style="fill:#4f5569" />
  <path
     d="m 102.39,88.518397 c 0.61,-0.85 1.23,-1.7 1.86,-2.54 0.36,1.67 0.81,3.32 1.26,4.97 8.18,-0.22 16.28,0.97 24.44,1.26 0.49,1.2 0.97,2.41 1.44,3.62 -0.09,2.8 -0.29,5.590003 -0.43,8.390003 -0.79,0.01 -2.36,0.03 -3.15,0.04 -0.17,-1.6 -0.34,-3.21 -0.51,-4.820003 -1.99,-0.16 -3.98,-0.31 -5.96,-0.47 0.01,3.130003 0.02,6.270003 0.02,9.400003 1.97,1.91 3.94,3.82 5.92,5.72 -0.54,8.78 -0.74,17.59 -1.74,26.34 -3.01,-6.11 -5.72,-12.35 -8.34,-18.64 -5.05,-11.04 -9.94,-22.150003 -14.81,-33.270003 z"
     id="path30"
     inkscape:connector-curvature="0"
     style="fill:#6f80b6" />
  <path
     d="m 155.81,131.3984 c 1.57,-6.63 8.07,-11.87 15,-11.06 5.96,0.1 10.83,4.81 12.29,10.4 0.21,4.26 0.1,8.52 0.13,12.78 3.97,0.33 7.93,0.64 11.9,0.94 -12.93,-0.28 -25.86,-0.13 -38.78,-0.3 0,-4.26 -0.1,-8.52 -0.54,-12.76 z"
     id="path32"
     inkscape:connector-curvature="0"
     style="fill:#4f5569" />
  <path
     d="m 117.2,121.7884 c 2.62,6.29 5.33,12.53 8.34,18.64 0.16,0.53 0.46,1.6 0.61,2.14 0.09,0.33 0.27,1 0.36,1.33 l 0.12,0.47 c -7.88,-2.46 -15.81,-4.84 -23.48,-7.93 3.98,-1.34 8.05,-2.39 12.07,-3.63 -4.7,-1.26 -9.55,-1.7 -14.35,-2.31 -6.7,-1.04 -13.4,0.47 -20.07,0.98 -11.33,0.9 -22.64,2.84 -34.03,2.04 -7.02,-0.52 -14.13,0.04 -21.08,-1.25 10.7,-0.57 21.41,-1.01 32.12,-1.24 4.98,0.17 8.1,-4.95 13.04,-4.94 13.65,-0.9 27.33,-1.23 40.99,-2 1.98,-0.21 4.78,0.25 5.36,-2.3 z"
     id="path34"
     inkscape:connector-curvature="0"
     style="fill:#dedee2" />
  <path
     d="m 142.45,121.7484 c 6.25,-0.58 10.45,4.89 13.36,9.65 0.44,4.24 0.54,8.5 0.54,12.76 -4.64,-0.03 -9.27,-0.06 -13.9,-0.1 -0.13,-7.43 -0.23,-14.87 0,-22.31 z"
     id="path36"
     inkscape:connector-curvature="0"
     style="fill:#5b6891" />
  <path
     d="m 183.1,130.7384 c 3.36,-4.14 7.04,-9.01 12.95,-8.99 0.3,7.59 0.23,15.19 0.02,22.78 l -0.94,-0.07 c -3.97,-0.3 -7.93,-0.61 -11.9,-0.94 -0.03,-4.26 0.08,-8.52 -0.13,-12.78 z"
     id="path38"
     inkscape:connector-curvature="0"
     style="fill:#5b6891" />
  <path
     d="m 208.65,144.4684 c 3.87,-3.84 7.74,-7.7 11.6,-11.56 11.19,2.6 22.86,2.25 34.01,5.03 -15.16,2.44 -30.38,4.61 -45.61,6.53 z"
     id="path40"
     inkscape:connector-curvature="0"
     style="fill:#dedee2" />
  <path
     d="m 278.17,149.0584 c 4.5,0.04 9.01,0.02 13.51,0.04 -0.83,6.02 -2,11.99 -3.27,17.93 7.75,0.46 15.77,-0.98 23.28,1.56 6.82,2.46 10.26,9.95 10.4,16.81 -0.1,8.31 -2.71,16.82 -8.33,23.09 -5.27,5.8 -13.13,8.9 -20.92,8.87 -8.95,-0.02 -17.9,0.02 -26.85,-0.04 3.84,-22.79 8.13,-45.5 12.18,-68.26 z"
     id="path42"
     inkscape:connector-curvature="0"
     style="fill:#303030" />
  <path
     d="m 10.08,161.0684 c 0.7,-4.01 1.49,-8 2.26,-12 19.66,0.05 39.31,-0.02 58.96,0.04 -0.85,4.08 -1.5,8.2 -2.32,12.29 -15.7,14.59 -31.27,29.31 -46.99,43.87 12.92,0.18 25.85,0.04 38.78,0.08 -0.32,4.03 -1.02,8.01 -1.81,11.98 -19.65,0.08 -39.3,-0.03 -58.96,0.06 1.01,-4.2 0.94,-8.81 2.82,-12.71 15.54,-14.61 31.37,-28.94 46.94,-43.53 -13.22,-0.17 -26.45,-0.02 -39.68,-0.08 z"
     id="path44"
     inkscape:connector-curvature="0"
     style="fill:#303030" />
  <path
     d="m 138.28,169.9384 c 4.47,-2.25 9.58,-2.89 14.54,-2.86 8.62,0.03 17.24,0 25.86,0.02 -2.82,15.78 -5.66,31.55 -8.51,47.32 -0.91,5.37 -2.57,10.9 -6.33,15 -4.08,4.31 -10.23,5.93 -16,5.95 -9.11,-0.01 -18.22,-0.02 -27.33,-0.01 0.68,-3.39 1.22,-6.8 1.85,-10.19 8.79,-0.14 17.62,0.32 26.4,-0.23 4.07,-0.25 6.69,-3.84 7.42,-7.56 -7.17,-0.28 -14.43,0.61 -21.51,-0.79 -6.95,-1.44 -11.56,-8.21 -12.3,-14.98 -1.35,-12.33 4.65,-25.85 15.91,-31.67 z"
     id="path46"
     inkscape:connector-curvature="0"
     style="fill:#303030" />
  <path
     d="m 73.77,167.1184 c 9.69,-0.06 19.37,-0.01 29.06,-0.04 4.86,0.04 10.27,0.95 13.71,4.71 2.71,2.81 3.47,6.96 3.18,10.73 -1.5,11.65 -4.39,23.08 -5.87,34.73 -12.03,0.24 -24.07,0.02 -36.1,0.12 -4.4,0.09 -9.6,-0.76 -12.27,-4.64 -3.36,-5.1 -1.58,-11.72 0.84,-16.82 3.02,-6.12 10.16,-8.42 16.52,-8.8 7.47,-0.19 14.94,0.01 22.42,-0.09 0.66,-3.31 0.45,-7.82 -3.59,-8.73 -9.78,-1.67 -19.82,-0.52 -29.7,-0.87 0.61,-3.44 1.25,-6.86 1.8,-10.3 z"
     id="path48"
     inkscape:connector-curvature="0"
     style="fill:#303030" />
  <path
     d="m 184.1,167.0784 c 8.56,0.07 17.12,-0.07 25.68,0.04 3.65,0.11 8.1,1.39 9.2,5.36 1.15,5.32 -0.91,10.64 -1.63,15.88 -4.37,0.03 -8.74,0.03 -13.11,0.01 0.85,-3.64 1.53,-7.36 1.18,-11.1 -3.12,-0.51 -6.27,-0.66 -9.41,-0.69 -2.49,13.58 -4.94,27.18 -7.32,40.78 -4.55,-0.01 -9.09,0.01 -13.64,-0.02 2.91,-16.77 5.98,-33.52 9.05,-50.26 z"
     id="path50"
     inkscape:connector-curvature="0"
     style="fill:#303030" />
  <path
     d="m 232.33,171.9184 c 5.96,-4.08 13.42,-5.14 20.49,-4.84 5.9,0.03 11.8,-0.01 17.7,0.03 -0.61,3.4 -1.26,6.81 -1.72,10.24 -8.46,0.4 -17.03,-0.6 -25.4,0.91 -4.25,0.88 -6.15,5.07 -7.25,8.82 10.16,0.28 20.34,0.06 30.51,0.12 -0.77,3.33 0,7.88 -2.51,10.35 -9.96,0.31 -19.94,-0.02 -29.9,0.15 0.12,2.39 -0.54,5.21 1.34,7.1 1.62,1.62 4.09,1.77 6.24,2.03 7.17,0.39 14.35,0.12 21.53,0.22 -0.72,3.42 -1.24,6.88 -1.84,10.32 -7.58,-0.08 -15.16,0.07 -22.73,-0.05 -5.38,-0.36 -11.17,-1.79 -14.91,-5.94 -4.05,-4.59 -4.6,-11.19 -3.75,-17.01 1.01,-8.61 4.75,-17.51 12.2,-22.45 z"
     id="path52"
     inkscape:connector-curvature="0"
     style="fill:#303030" />
  <path
     d="m 137.29,190.6084 c 1.14,-5.76 5.38,-11.16 11.35,-12.3 4.78,-0.61 9.62,-0.47 14.44,-0.56 -1.59,9.77 -3.59,19.46 -5.13,29.24 -6.04,-0.15 -12.68,0.8 -18.14,-2.36 -4.53,-3.09 -3.74,-9.4 -2.52,-14.02 z"
     id="path54"
     inkscape:connector-curvature="0"
     style="fill:#ffffff" />
  <path
     d="m 286.65,178.0184 c 5.43,-0.45 11.23,-0.66 16.43,1.27 4.31,1.84 5.05,7.18 4.38,11.29 -0.71,5.77 -2.81,12.64 -8.89,14.75 -5.55,1.7 -11.5,1.48 -17.23,1.17 2.08,-9.44 3.31,-19.04 5.31,-28.48 z"
     id="path56"
     inkscape:connector-curvature="0"
     style="fill:#ffffff" />
  <path
     d="m 83.05,197.3784 c 6.73,-0.78 13.55,-0.23 20.32,-0.35 -0.72,3.37 -1.34,6.75 -1.92,10.15 -0.65,0.06 -1.95,0.19 -2.6,0.25 -6.86,-0.86 -14.19,1.18 -20.72,-1.53 -0.27,-3.54 0.9,-7.8 4.92,-8.52 z"
     id="path58"
     inkscape:connector-curvature="0"
     style="fill:#ffffff" />
  <path
     d="m 63.42,240.0584 c 2.65,0.01 5.3,0.02 7.96,0.04 -0.68,3.28 -1.31,6.56 -1.95,9.85 5.06,0.26 10.6,-0.9 15.23,1.7 2.42,1.25 3.29,4.15 2.69,6.7 -1.03,6.25 -2.1,12.5 -3.2,18.74 -2.8,-0.01 -5.6,-0.02 -8.39,-0.04 1.19,-6.68 2.64,-13.32 3.58,-20.04 -3.58,-1.21 -7.37,-1.06 -11.09,-0.97 -1.4,7.01 -2.86,14.01 -4.23,21.02 -2.66,0.01 -5.32,0.02 -7.97,0.03 2.51,-12.34 4.75,-24.72 7.37,-37.03 z"
     id="path60"
     inkscape:connector-curvature="0"
     style="fill:#6f80b6" />
  <path
     d="m 243.16,241.2984 c 2.15,0.01 4.3,0.01 6.46,0.02 -0.47,3.12 -0.99,6.25 -1.46,9.38 2.36,0.04 4.73,0.09 7.1,0.14 -0.35,1.56 -0.69,3.12 -1.03,4.69 -2.34,0.05 -4.68,0.11 -7.01,0.18 -0.63,4.56 -2.64,9.19 -1.63,13.81 1.82,0.92 3.93,0.73 5.91,0.98 -0.25,1.59 -0.48,3.19 -0.71,4.78 -4.19,-0.15 -10.75,1.38 -12.44,-3.84 -0.6,-5.31 1.53,-10.5 2.2,-15.73 -1.55,-0.03 -3.1,-0.06 -4.64,-0.08 0.25,-1.65 0.51,-3.29 0.78,-4.93 1.51,0.02 3.02,0.05 4.54,0.07 0.68,-3.15 1.31,-6.31 1.93,-9.47 z"
     id="path62"
     inkscape:connector-curvature="0"
     style="fill:#9a9a9b" />
  <path
     d="m 30.07,249.9784 c 5.89,0.07 11.79,-0.17 17.68,0.07 3.68,0.2 7.8,1.87 9.22,5.55 2.85,8.46 -2.14,18.75 -10.92,21.08 -4.44,0.81 -8.99,0.27 -13.48,0.42 -0.65,3.26 -1.22,6.53 -1.68,9.82 -2.71,0.04 -5.42,0.05 -8.12,0.06 2.4,-12.34 4.82,-24.68 7.3,-37 z"
     id="path64"
     inkscape:connector-curvature="0"
     style="fill:#6f80b6" />
  <path
     d="m 92.74,250.0384 c 5.67,-0.05 11.33,-0.17 17,-0.03 3.89,0.03 8.39,1.59 10.01,5.45 3.2,8.61 -2.33,19.35 -11.4,21.34 -4.27,0.58 -8.6,0.2 -12.89,0.28 -0.63,3.33 -1.31,6.64 -2.06,9.94 -2.55,-0.03 -5.09,-0.05 -7.63,-0.08 1.91,-12.37 4.92,-24.55 6.97,-36.9 z"
     id="path66"
     inkscape:connector-curvature="0"
     style="fill:#6f80b6" />
  <path
     d="m 148.96,250.7384 c 9.33,0.08 18.66,-0.13 27.99,0.07 2.77,-0.02 6.46,1.38 6.6,4.6 0.37,6.72 -1.86,13.24 -2.79,19.85 -2.22,0.03 -4.44,0.05 -6.65,0.08 0.78,-6.16 2.98,-12.3 2.5,-18.52 -2.29,-0.94 -4.81,-0.73 -7.22,-0.85 -1.16,6.43 -2.39,12.84 -3.48,19.29 -2.3,0.03 -4.6,0.06 -6.89,0.09 1.15,-6.43 2.33,-12.85 3.41,-19.29 -2.6,0.01 -5.2,0.02 -7.8,0.03 -1.07,6.44 -2.28,12.86 -3.55,19.27 -2.22,-0.03 -4.43,-0.06 -6.64,-0.08 1.7,-8.14 2.91,-16.38 4.52,-24.54 z"
     id="path68"
     inkscape:connector-curvature="0"
     style="fill:#9a9a9b" />
  <path
     d="m 195.16,251.0684 c 4.72,-0.65 9.5,-0.27 14.25,-0.25 -0.4,1.64 -0.78,3.29 -1.16,4.94 -4.01,0.03 -8.06,-0.34 -12.03,0.28 -2.31,0.22 -3.1,2.58 -4.1,4.28 5.14,0.15 10.29,0.07 15.44,0.1 -0.33,1.72 -0.66,3.45 -0.98,5.18 -5.3,0.12 -10.61,-0.16 -15.88,0.4 0.53,1.28 1.19,2.49 1.98,3.63 4.2,1 8.6,0.43 12.88,0.51 -0.17,1.69 -0.34,3.38 -0.51,5.07 -5.56,-0.07 -11.49,1.03 -16.72,-1.31 -4.2,-2.06 -4.66,-7.35 -3.71,-11.4 0.84,-5.44 4.95,-10.48 10.54,-11.43 z"
     id="path70"
     inkscape:connector-curvature="0"
     style="fill:#9a9a9b" />
  <path
     d="m 221.18,251.0284 c 4.6,-0.57 9.27,-0.2 13.9,-0.3 -0.3,1.67 -0.6,3.34 -0.9,5.02 -4.08,0.03 -8.2,-0.33 -12.25,0.32 -2.2,0.27 -2.94,2.63 -3.97,4.24 5.19,0.16 10.39,0.07 15.59,0.13 -0.46,1.76 -0.9,3.52 -1.33,5.3 -5.05,-0.1 -10.1,-0.1 -15.14,-0.09 0.35,1.35 0.19,3.09 1.49,4 4.24,0.98 8.66,0.4 12.98,0.49 -0.27,1.7 -0.53,3.41 -0.8,5.11 -5.64,-0.2 -11.83,1.15 -17.02,-1.62 -4.21,-2.45 -4.1,-8 -3.02,-12.14 1.1,-5.11 5.19,-9.63 10.47,-10.46 z"
     id="path72"
     inkscape:connector-curvature="0"
     style="fill:#9a9a9b" />
  <path
     d="m 257.85,250.7484 c 2.21,0 4.42,0 6.64,0 -0.92,5.91 -2.52,11.75 -2.78,17.74 2.41,2.26 6.14,0.97 9.13,1.28 1.18,-6.34 2.27,-12.7 3.44,-19.03 2.16,0 4.33,0.01 6.5,0.03 -1.07,8.23 -2.94,16.33 -4.23,24.52 -5.28,-0.06 -10.59,0.35 -15.84,-0.23 -2.5,-0.25 -5.45,-1.71 -5.64,-4.51 -0.4,-6.71 1.81,-13.21 2.78,-19.8 z"
     id="path74"
     inkscape:connector-curvature="0"
     style="fill:#9a9a9b" />
  <path
     d="m 283.13,250.7484 c 5.22,0.09 10.46,-0.24 15.67,0.15 3.53,0.28 6.63,3.06 7.36,6.51 1.3,6.63 -2.07,14.32 -8.53,16.87 -3.97,1.36 -8.25,0.99 -12.37,1.14 -0.5,2.85 -0.97,5.7 -1.39,8.57 -2.28,0.03 -4.56,0.05 -6.82,0.08 2.05,-11.1 3.97,-22.23 6.08,-33.32 z"
     id="path76"
     inkscape:connector-curvature="0"
     style="fill:#9a9a9b" />
  <path
     d="m 289.02,256.0284 c 3.32,-0.08 8.13,-1.1 10.1,2.38 0.65,3.57 -0.12,7.94 -3.17,10.24 -2.91,1.7 -6.44,1.24 -9.66,1.4 1.03,-4.65 1.36,-9.45 2.73,-14.02 z"
     id="path78"
     inkscape:connector-curvature="0"
     style="fill:#ffffff" />
  <path
     d="m 36.8,256.0584 c 4.4,0.04 9.72,-0.94 12.79,3.05 -0.44,3.42 -0.52,7.43 -3.36,9.87 -3.34,2.7 -7.95,1.99 -11.93,2.1 0.82,-5.01 1.64,-10.02 2.5,-15.02 z"
     id="path80"
     inkscape:connector-curvature="0"
     style="fill:#ffffff" />
  <path
     d="m 97.07,271.0484 c 0.84,-5 1.75,-9.98 2.56,-14.98 4.1,0.29 10.46,-1.46 12.44,3.4 0.36,3.5 -0.61,7.56 -3.46,9.85 -3.38,2.3 -7.68,1.66 -11.54,1.73 z"
     id="path82"
     inkscape:connector-curvature="0"
     style="fill:#ffffff" />
  <path
     d="m 126.8,256.9484 c 1.92,-0.01 3.83,-0.03 5.76,-0.03 -0.32,1.95 -0.65,3.91 -0.97,5.88 -1.91,-0.04 -3.82,-0.07 -5.72,-0.1 0.31,-1.92 0.61,-3.84 0.93,-5.75 z"
     id="path84"
     inkscape:connector-curvature="0"
     style="fill:#9a9a9b" />
  <path
     d="m 135.97,262.7484 c 0.4,-1.98 0.8,-3.95 1.2,-5.93 1.84,0.05 3.69,0.1 5.54,0.16 -0.33,1.93 -0.66,3.86 -0.98,5.8 -1.92,-0.01 -3.85,-0.02 -5.76,-0.03 z"
     id="path86"
     inkscape:connector-curvature="0"
     style="fill:#9a9a9b" />
  <path
     d="m 124.65,270.0684 c 1.42,-1.43 3.81,-0.56 5.62,-0.93 -0.36,2.06 -0.71,4.12 -1.05,6.18 -1.91,0 -3.82,0 -5.72,0 0.34,-1.76 0.59,-3.54 1.15,-5.25 z"
     id="path88"
     inkscape:connector-curvature="0"
     style="fill:#9a9a9b" />
  <path
     d="m 133.64,275.2684 c 0.5,-2.08 1,-4.16 1.5,-6.24 1.78,0.19 3.58,0.4 5.37,0.61 -0.37,1.9 -0.74,3.79 -1.1,5.69 -1.93,-0.02 -3.85,-0.04 -5.77,-0.06 z"
     id="path90"
     inkscape:connector-curvature="0"
     style="fill:#9a9a9b" />
</svg>
