<?xml version="1.0" encoding="UTF-8" ?>
<!DOCTYPE svg PUBLIC "-//W3C//DTD SVG 1.1//EN" "http://www.w3.org/Graphics/SVG/1.1/DTD/svg11.dtd">
<svg width="940pt" height="321pt" viewBox="0 0 940 321" version="1.1" xmlns="http://www.w3.org/2000/svg">
<path fill="#ffffff" d=" M 0.00 0.00 L 940.00 0.00 L 940.00 321.00 L 0.00 321.00 L 0.00 0.00 Z" />
<path fill="#6f80b6" d=" M 413.41 18.66 C 415.26 18.09 417.20 17.11 419.19 17.73 C 430.63 20.76 442.12 23.61 453.53 26.74 C 452.70 29.40 451.92 32.07 451.21 34.76 C 483.64 61.43 515.92 88.28 548.27 115.05 C 536.35 126.88 524.36 138.62 512.44 150.44 C 508.58 154.30 504.71 158.16 500.84 162.00 C 496.64 162.08 492.45 162.08 488.26 162.06 C 488.47 154.47 488.54 146.87 488.24 139.28 C 482.33 139.26 478.65 144.13 475.29 148.27 C 473.83 142.68 468.96 137.97 463.00 137.87 C 456.07 137.06 449.57 142.30 448.00 148.93 C 445.09 144.17 440.89 138.70 434.64 139.28 C 434.41 146.72 434.51 154.16 434.64 161.59 C 429.33 161.56 424.01 161.53 418.70 161.43 C 418.61 161.10 418.43 160.43 418.34 160.10 C 420.74 150.59 420.16 140.64 420.84 130.92 C 418.98 129.09 417.12 127.27 415.25 125.46 C 415.34 122.75 415.44 120.05 415.66 117.35 C 417.76 118.82 418.30 121.29 418.90 123.61 C 420.63 123.53 422.35 123.46 424.07 123.22 C 425.21 118.76 424.92 114.11 425.45 109.57 C 429.97 110.57 434.48 111.62 438.94 112.84 C 439.35 112.25 440.17 111.07 440.58 110.49 C 441.00 114.77 441.40 119.05 441.76 123.33 C 444.15 123.28 446.54 123.23 448.93 123.18 C 450.55 109.86 451.70 96.48 452.52 83.10 C 449.62 80.22 448.10 76.47 448.37 72.37 C 448.84 72.38 449.78 72.38 450.25 72.38 C 450.42 74.09 450.59 75.80 450.77 77.51 C 452.76 77.39 454.75 77.27 456.75 77.15 C 457.09 75.56 457.44 73.97 457.80 72.38 C 458.12 72.40 458.76 72.43 459.08 72.45 C 459.28 74.10 459.48 75.75 459.69 77.40 C 461.87 77.39 464.05 77.38 466.24 77.38 C 466.41 75.73 466.60 74.09 466.78 72.44 C 467.18 72.38 467.96 72.24 468.35 72.17 C 468.53 73.90 468.71 75.63 468.90 77.37 C 470.84 77.34 472.78 77.31 474.73 77.29 C 475.29 75.32 475.85 73.35 476.43 71.38 C 477.89 77.22 473.23 82.17 474.10 87.95 C 474.88 99.66 476.27 111.31 477.07 123.01 C 479.11 123.11 481.15 123.20 483.21 123.29 C 483.73 115.83 484.32 108.38 484.64 100.91 C 484.90 96.18 482.82 91.79 482.06 87.19 C 482.60 87.24 483.68 87.33 484.22 87.37 C 484.57 89.07 484.92 90.76 485.28 92.47 C 486.70 92.28 488.15 92.16 489.56 91.83 C 490.73 90.34 491.55 88.61 492.47 86.96 C 493.03 88.35 493.60 89.74 494.18 91.14 C 495.78 91.27 497.38 91.40 498.99 91.53 C 499.83 89.87 500.67 88.21 501.55 86.56 C 502.36 91.89 499.19 96.70 499.49 101.98 C 499.70 109.17 500.33 116.35 500.84 123.53 C 502.53 123.55 504.23 123.57 505.93 123.59 C 506.12 122.12 506.32 120.65 506.53 119.19 C 507.14 119.15 508.38 119.06 509.00 119.02 C 508.85 121.29 508.89 123.59 508.36 125.81 C 507.23 128.00 505.16 129.50 503.46 131.22 C 503.49 140.04 503.37 148.90 504.33 157.68 C 505.29 155.96 505.90 154.05 505.79 152.07 C 505.78 146.03 504.90 140.00 505.33 133.97 C 505.63 130.35 509.95 128.64 510.38 125.05 C 510.70 122.33 510.51 119.58 510.44 116.85 C 508.60 116.86 506.78 116.88 504.96 116.89 C 504.74 118.49 504.54 120.09 504.34 121.69 C 503.86 121.75 502.91 121.86 502.44 121.92 C 502.29 115.60 502.23 109.28 501.74 102.97 C 501.05 96.96 505.07 91.66 504.45 85.60 C 502.40 85.62 500.36 85.63 498.33 85.65 C 497.88 87.17 497.44 88.69 497.01 90.21 C 496.09 88.54 495.16 86.88 494.25 85.22 C 492.51 85.32 490.77 85.41 489.03 85.51 C 488.76 87.06 488.49 88.61 488.23 90.16 C 486.70 87.00 484.29 84.47 480.58 84.19 C 479.47 90.89 483.24 97.14 482.29 103.81 C 481.77 109.41 481.56 115.04 481.46 120.66 C 480.76 121.12 480.06 121.59 479.37 122.05 C 477.75 110.79 477.58 99.39 476.55 88.07 C 475.95 84.44 477.71 81.16 478.89 77.87 C 480.07 75.15 479.01 72.24 478.53 69.51 C 476.91 69.53 475.31 69.56 473.71 69.58 C 473.12 71.41 472.55 73.24 472.00 75.08 C 471.51 73.50 471.08 71.91 470.41 70.40 C 468.78 69.31 466.57 69.69 464.72 69.30 C 464.54 71.07 464.38 72.84 464.21 74.62 C 463.41 74.62 462.62 74.62 461.84 74.62 C 461.64 72.95 461.45 71.28 461.26 69.61 C 459.11 69.60 456.96 69.58 454.82 69.57 C 454.66 71.29 454.51 73.01 454.37 74.73 C 454.02 74.68 453.32 74.60 452.97 74.56 C 452.76 72.94 452.56 71.32 452.36 69.70 C 450.81 69.58 449.27 69.45 447.73 69.33 C 449.34 62.30 450.61 55.20 452.02 48.13 C 452.83 44.23 452.75 40.22 452.34 36.29 C 450.29 38.57 448.92 41.34 448.24 44.32 C 443.96 59.69 439.27 74.95 434.82 90.28 L 434.46 91.44 C 433.71 93.79 432.97 96.14 432.21 98.48 C 424.46 92.29 416.83 85.93 409.46 79.29 C 402.56 73.06 395.43 67.08 388.22 61.22 C 379.24 53.61 370.53 45.65 361.29 38.34 C 360.92 38.03 360.17 37.40 359.80 37.09 C 377.50 30.50 395.60 24.99 413.41 18.66 Z" />
<path fill="#ffffff" d=" M 402.21 35.21 C 406.29 32.69 412.19 36.16 411.96 40.96 C 412.36 45.94 406.16 49.54 402.01 46.78 C 397.64 44.44 397.71 37.39 402.21 35.21 Z" />
<path fill="#5b6891" d=" M 359.80 37.09 C 360.17 37.40 360.92 38.03 361.29 38.34 C 362.08 42.05 363.30 45.67 365.23 48.95 C 369.16 55.56 372.16 62.76 377.15 68.70 C 367.75 75.02 358.24 81.17 348.91 87.61 C 350.01 81.13 351.62 74.76 353.05 68.36 C 355.13 57.90 358.35 47.66 359.80 37.09 Z" />
<path fill="#303030" d=" M 402.15 37.89 C 404.93 36.31 408.80 38.90 408.16 42.09 C 407.88 45.48 402.64 46.93 400.94 43.82 C 399.34 41.95 400.32 39.19 402.15 37.89 Z" />
<path fill="#5b6891" d=" M 448.24 44.32 C 448.92 41.34 450.29 38.57 452.34 36.29 C 452.75 40.22 452.83 44.23 452.02 48.13 C 450.61 55.20 449.34 62.30 447.73 69.33 C 449.27 69.45 450.81 69.58 452.36 69.70 C 452.56 71.32 452.76 72.94 452.97 74.56 C 453.32 74.60 454.02 74.68 454.37 74.73 C 454.51 73.01 454.66 71.29 454.82 69.57 C 456.96 69.58 459.11 69.60 461.26 69.61 C 461.45 71.28 461.64 72.95 461.84 74.62 C 462.62 74.62 463.41 74.62 464.21 74.62 C 464.38 72.84 464.54 71.07 464.72 69.30 C 466.57 69.69 468.78 69.31 470.41 70.40 C 471.08 71.91 471.51 73.50 472.00 75.08 C 472.55 73.24 473.12 71.41 473.71 69.58 C 475.31 69.56 476.91 69.53 478.53 69.51 C 479.01 72.24 480.07 75.15 478.89 77.87 C 477.71 81.16 475.95 84.44 476.55 88.07 C 477.58 99.39 477.75 110.79 479.37 122.05 C 480.06 121.59 480.76 121.12 481.46 120.66 C 481.56 115.04 481.77 109.41 482.29 103.81 C 483.24 97.14 479.47 90.89 480.58 84.19 C 484.29 84.47 486.70 87.00 488.23 90.16 C 488.49 88.61 488.76 87.06 489.03 85.51 C 490.77 85.41 492.51 85.32 494.25 85.22 C 495.16 86.88 496.09 88.54 497.01 90.21 C 497.44 88.69 497.88 87.17 498.33 85.65 C 500.36 85.63 502.40 85.62 504.45 85.60 C 505.07 91.66 501.05 96.96 501.74 102.97 C 502.23 109.28 502.29 115.60 502.44 121.92 C 502.91 121.86 503.86 121.75 504.34 121.69 C 504.54 120.09 504.74 118.49 504.96 116.89 C 506.78 116.88 508.60 116.86 510.44 116.85 C 510.51 119.58 510.70 122.33 510.38 125.05 C 509.95 128.64 505.63 130.35 505.33 133.97 C 504.90 140.00 505.78 146.03 505.79 152.07 C 505.90 154.05 505.29 155.96 504.33 157.68 C 503.37 148.90 503.49 140.04 503.46 131.22 C 505.16 129.50 507.23 128.00 508.36 125.81 C 508.89 123.59 508.85 121.29 509.00 119.02 C 508.38 119.06 507.14 119.15 506.53 119.19 C 506.32 120.65 506.12 122.12 505.93 123.59 C 504.23 123.57 502.53 123.55 500.84 123.53 C 500.33 116.35 499.70 109.17 499.49 101.98 C 499.19 96.70 502.36 91.89 501.55 86.56 C 500.67 88.21 499.83 89.87 498.99 91.53 C 497.38 91.40 495.78 91.27 494.18 91.14 C 493.60 89.74 493.03 88.35 492.47 86.96 C 491.55 88.61 490.73 90.34 489.56 91.83 C 488.15 92.16 486.70 92.28 485.28 92.47 C 484.92 90.76 484.57 89.07 484.22 87.37 C 483.68 87.33 482.60 87.24 482.06 87.19 C 482.82 91.79 484.90 96.18 484.64 100.91 C 484.32 108.38 483.73 115.83 483.21 123.29 C 481.15 123.20 479.11 123.11 477.07 123.01 C 476.27 111.31 474.88 99.66 474.10 87.95 C 473.23 82.17 477.89 77.22 476.43 71.38 C 475.85 73.35 475.29 75.32 474.73 77.29 C 472.78 77.31 470.84 77.34 468.90 77.37 C 468.71 75.63 468.53 73.90 468.35 72.17 C 467.96 72.24 467.18 72.38 466.78 72.44 C 466.60 74.09 466.41 75.73 466.24 77.38 C 464.05 77.38 461.87 77.39 459.69 77.40 C 459.48 75.75 459.28 74.10 459.08 72.45 C 458.76 72.43 458.12 72.40 457.80 72.38 C 457.44 73.97 457.09 75.56 456.75 77.15 C 454.75 77.27 452.76 77.39 450.77 77.51 C 450.59 75.80 450.42 74.09 450.25 72.38 C 449.78 72.38 448.84 72.38 448.37 72.37 C 448.10 76.47 449.62 80.22 452.52 83.10 C 451.70 96.48 450.55 109.86 448.93 123.18 C 446.54 123.23 444.15 123.28 441.76 123.33 C 441.40 119.05 441.00 114.77 440.58 110.49 C 440.17 111.07 439.35 112.25 438.94 112.84 C 434.48 111.62 429.97 110.57 425.45 109.57 C 425.50 109.33 425.59 108.84 425.63 108.60 C 426.69 107.94 427.78 107.33 428.88 106.72 C 429.50 104.35 430.50 102.09 432.07 100.19 C 431.99 103.07 431.78 105.94 431.56 108.81 C 432.81 108.64 434.10 108.59 435.29 108.13 C 435.24 105.01 434.60 101.94 434.08 98.87 C 428.57 99.53 423.12 100.58 417.75 101.95 C 412.34 103.35 406.66 103.62 401.39 105.57 C 408.65 107.28 416.73 104.70 423.52 108.34 C 423.70 110.00 423.63 111.69 423.58 113.36 C 423.11 112.15 422.63 110.94 422.14 109.74 C 413.98 109.45 405.88 108.26 397.70 108.48 C 397.25 106.83 396.80 105.18 396.44 103.51 C 400.43 95.28 405.21 87.41 409.46 79.29 C 416.83 85.93 424.46 92.29 432.21 98.48 C 432.97 96.14 433.71 93.79 434.46 91.44 C 436.12 91.70 437.80 91.97 439.48 92.24 C 440.56 90.26 441.64 88.28 442.78 86.33 C 442.62 89.63 441.84 92.84 441.01 96.02 C 440.01 99.90 441.13 103.86 441.77 107.69 C 442.22 103.46 441.35 98.84 443.48 94.96 C 443.53 103.56 443.27 112.16 443.54 120.76 C 444.81 120.71 446.10 120.66 447.39 120.61 C 447.72 109.36 448.92 98.17 449.63 86.95 C 450.14 83.97 448.03 81.72 446.25 79.66 C 445.37 84.28 446.24 89.28 444.16 93.61 C 444.16 90.76 444.14 87.90 444.12 85.05 C 442.58 85.15 441.05 85.26 439.53 85.36 C 439.10 86.66 438.68 87.95 438.26 89.25 C 437.11 89.58 435.96 89.92 434.82 90.28 C 439.27 74.95 443.96 59.69 448.24 44.32 Z" />
<path fill="#4f5569" d=" M 365.23 48.95 C 363.30 45.67 362.08 42.05 361.29 38.34 C 370.53 45.65 379.24 53.61 388.22 61.22 C 384.63 63.86 380.86 66.25 377.15 68.70 C 372.16 62.76 369.16 55.56 365.23 48.95 Z" />
<path fill="#6f80b6" d=" M 311.80 79.07 C 325.53 75.41 339.36 72.18 353.05 68.36 C 351.62 74.76 350.01 81.13 348.91 87.61 C 336.61 84.45 324.14 82.04 311.80 79.07 Z" />
<path fill="#6f80b6" d=" M 444.16 93.61 C 446.24 89.28 445.37 84.28 446.25 79.66 C 448.03 81.72 450.14 83.97 449.63 86.95 C 448.92 98.17 447.72 109.36 447.39 120.61 C 446.10 120.66 444.81 120.71 443.54 120.76 C 443.27 112.16 443.53 103.56 443.48 94.96 C 443.65 94.62 443.99 93.95 444.16 93.61 Z" />
<path fill="#4f5569" d=" M 439.53 85.36 C 441.05 85.26 442.58 85.15 444.12 85.05 C 444.14 87.90 444.16 90.76 444.16 93.61 C 443.99 93.95 443.65 94.62 443.48 94.96 C 441.35 98.84 442.22 103.46 441.77 107.69 C 441.13 103.86 440.01 99.90 441.01 96.02 C 441.84 92.84 442.62 89.63 442.78 86.33 C 441.64 88.28 440.56 90.26 439.48 92.24 C 437.80 91.97 436.12 91.70 434.46 91.44 L 434.82 90.28 C 435.96 89.92 437.11 89.58 438.26 89.25 C 438.68 87.95 439.10 86.66 439.53 85.36 Z" />
<path fill="#4f5569" d=" M 461.71 86.57 L 463.15 86.74 C 463.02 90.03 463.86 93.19 464.54 96.37 C 463.38 97.80 461.77 96.86 460.35 96.52 C 461.42 93.31 461.76 89.94 461.71 86.57 Z" />
<path fill="#4f5569" d=" M 417.75 101.95 C 423.12 100.58 428.57 99.53 434.08 98.87 C 434.60 101.94 435.24 105.01 435.29 108.13 C 434.10 108.59 432.81 108.64 431.56 108.81 C 431.78 105.94 431.99 103.07 432.07 100.19 C 430.50 102.09 429.50 104.35 428.88 106.72 C 427.78 107.33 426.69 107.94 425.63 108.60 C 425.59 108.84 425.50 109.33 425.45 109.57 C 424.92 114.11 425.21 118.76 424.07 123.22 C 422.35 123.46 420.63 123.53 418.90 123.61 C 418.30 121.29 417.76 118.82 415.66 117.35 C 415.44 120.05 415.34 122.75 415.25 125.46 C 417.12 127.27 418.98 129.09 420.84 130.92 C 420.16 140.64 420.74 150.59 418.34 160.10 C 418.19 159.56 417.89 158.49 417.73 157.96 C 418.73 149.21 418.93 140.40 419.47 131.62 C 417.49 129.72 415.52 127.81 413.55 125.90 C 413.55 122.77 413.54 119.63 413.53 116.50 C 415.51 116.66 417.50 116.81 419.49 116.97 C 419.66 118.58 419.83 120.19 420.00 121.79 C 420.79 121.78 422.36 121.76 423.15 121.75 C 423.29 118.95 423.49 116.16 423.58 113.36 C 423.63 111.69 423.70 110.00 423.52 108.34 C 416.73 104.70 408.65 107.28 401.39 105.57 C 406.66 103.62 412.34 103.35 417.75 101.95 Z" />
<path fill="#4f5569" d=" M 490.78 109.44 C 490.29 105.76 491.06 101.93 492.34 98.47 C 492.77 101.83 493.13 105.23 494.40 108.40 C 493.21 108.86 492.01 109.20 490.78 109.44 Z" />
<path fill="#6f80b6" d=" M 394.58 106.05 C 395.19 105.20 395.81 104.35 396.44 103.51 C 396.80 105.18 397.25 106.83 397.70 108.48 C 405.88 108.26 413.98 109.45 422.14 109.74 C 422.63 110.94 423.11 112.15 423.58 113.36 C 423.49 116.16 423.29 118.95 423.15 121.75 C 422.36 121.76 420.79 121.78 420.00 121.79 C 419.83 120.19 419.66 118.58 419.49 116.97 C 417.50 116.81 415.51 116.66 413.53 116.50 C 413.54 119.63 413.55 122.77 413.55 125.90 C 415.52 127.81 417.49 129.72 419.47 131.62 C 418.93 140.40 418.73 149.21 417.73 157.96 C 414.72 151.85 412.01 145.61 409.39 139.32 C 404.34 128.28 399.45 117.17 394.58 106.05 Z" />
<path fill="#4f5569" d=" M 448.00 148.93 C 449.57 142.30 456.07 137.06 463.00 137.87 C 468.96 137.97 473.83 142.68 475.29 148.27 C 475.50 152.53 475.39 156.79 475.42 161.05 C 479.39 161.38 483.35 161.69 487.32 161.99 C 474.39 161.71 461.46 161.86 448.54 161.69 C 448.54 157.43 448.44 153.17 448.00 148.93 Z" />
<path fill="#dedee2" d=" M 409.39 139.32 C 412.01 145.61 414.72 151.85 417.73 157.96 C 417.89 158.49 418.19 159.56 418.34 160.10 C 418.43 160.43 418.61 161.10 418.70 161.43 L 418.82 161.90 C 410.94 159.44 403.01 157.06 395.34 153.97 C 399.32 152.63 403.39 151.58 407.41 150.34 C 402.71 149.08 397.86 148.64 393.06 148.03 C 386.36 146.99 379.66 148.50 372.99 149.01 C 361.66 149.91 350.35 151.85 338.96 151.05 C 331.94 150.53 324.83 151.09 317.88 149.80 C 328.58 149.23 339.29 148.79 350.00 148.56 C 354.98 148.73 358.10 143.61 363.04 143.62 C 376.69 142.72 390.37 142.39 404.03 141.62 C 406.01 141.41 408.81 141.87 409.39 139.32 Z" />
<path fill="#5b6891" d=" M 434.64 139.28 C 440.89 138.70 445.09 144.17 448.00 148.93 C 448.44 153.17 448.54 157.43 448.54 161.69 C 443.90 161.66 439.27 161.63 434.64 161.59 C 434.51 154.16 434.41 146.72 434.64 139.28 Z" />
<path fill="#5b6891" d=" M 475.29 148.27 C 478.65 144.13 482.33 139.26 488.24 139.28 C 488.54 146.87 488.47 154.47 488.26 162.06 L 487.32 161.99 C 483.35 161.69 479.39 161.38 475.42 161.05 C 475.39 156.79 475.50 152.53 475.29 148.27 Z" />
<path fill="#dedee2" d=" M 500.84 162.00 C 504.71 158.16 508.58 154.30 512.44 150.44 C 523.63 153.04 535.30 152.69 546.45 155.47 C 531.29 157.91 516.07 160.08 500.84 162.00 Z" />
<path fill="#303030" d=" M 570.36 166.59 C 574.86 166.63 579.37 166.61 583.87 166.63 C 583.04 172.65 581.87 178.62 580.60 184.56 C 588.35 185.02 596.37 183.58 603.88 186.12 C 610.70 188.58 614.14 196.07 614.28 202.93 C 614.18 211.24 611.57 219.75 605.95 226.02 C 600.68 231.82 592.82 234.92 585.03 234.89 C 576.08 234.87 567.13 234.91 558.18 234.85 C 562.02 212.06 566.31 189.35 570.36 166.59 Z" />
<path fill="#303030" d=" M 302.27 178.60 C 302.97 174.59 303.76 170.60 304.53 166.60 C 324.19 166.65 343.84 166.58 363.49 166.64 C 362.64 170.72 361.99 174.84 361.17 178.93 C 345.47 193.52 329.90 208.24 314.18 222.80 C 327.10 222.98 340.03 222.84 352.96 222.88 C 352.64 226.91 351.94 230.89 351.15 234.86 C 331.50 234.94 311.85 234.83 292.19 234.92 C 293.20 230.72 293.13 226.11 295.01 222.21 C 310.55 207.60 326.38 193.27 341.95 178.68 C 328.73 178.51 315.50 178.66 302.27 178.60 Z" />
<path fill="#303030" d=" M 430.47 187.47 C 434.94 185.22 440.05 184.58 445.01 184.61 C 453.63 184.64 462.25 184.61 470.87 184.63 C 468.05 200.41 465.21 216.18 462.36 231.95 C 461.45 237.32 459.79 242.85 456.03 246.95 C 451.95 251.26 445.80 252.88 440.03 252.90 C 430.92 252.89 421.81 252.88 412.70 252.89 C 413.38 249.50 413.92 246.09 414.55 242.70 C 423.34 242.56 432.17 243.02 440.95 242.47 C 445.02 242.22 447.64 238.63 448.37 234.91 C 441.20 234.63 433.94 235.52 426.86 234.12 C 419.91 232.68 415.30 225.91 414.56 219.14 C 413.21 206.81 419.21 193.29 430.47 187.47 Z" />
<path fill="#303030" d=" M 365.96 184.65 C 375.65 184.59 385.33 184.64 395.02 184.61 C 399.88 184.65 405.29 185.56 408.73 189.32 C 411.44 192.13 412.20 196.28 411.91 200.05 C 410.41 211.70 407.52 223.13 406.04 234.78 C 394.01 235.02 381.97 234.80 369.94 234.90 C 365.54 234.99 360.34 234.14 357.67 230.26 C 354.31 225.16 356.09 218.54 358.51 213.44 C 361.53 207.32 368.67 205.02 375.03 204.64 C 382.50 204.45 389.97 204.65 397.45 204.55 C 398.11 201.24 397.90 196.73 393.86 195.82 C 384.08 194.15 374.04 195.30 364.16 194.95 C 364.77 191.51 365.41 188.09 365.96 184.65 Z" />
<path fill="#303030" d=" M 476.29 184.61 C 484.85 184.68 493.41 184.54 501.97 184.65 C 505.62 184.76 510.07 186.04 511.17 190.01 C 512.32 195.33 510.26 200.65 509.54 205.89 C 505.17 205.92 500.80 205.92 496.43 205.90 C 497.28 202.26 497.96 198.54 497.61 194.80 C 494.49 194.29 491.34 194.14 488.20 194.11 C 485.71 207.69 483.26 221.29 480.88 234.89 C 476.33 234.88 471.79 234.90 467.24 234.87 C 470.15 218.10 473.22 201.35 476.29 184.61 Z" />
<path fill="#303030" d=" M 524.52 189.45 C 530.48 185.37 537.94 184.31 545.01 184.61 C 550.91 184.64 556.81 184.60 562.71 184.64 C 562.10 188.04 561.45 191.45 560.99 194.88 C 552.53 195.28 543.96 194.28 535.59 195.79 C 531.34 196.67 529.44 200.86 528.34 204.61 C 538.50 204.89 548.68 204.67 558.85 204.73 C 558.08 208.06 558.85 212.61 556.34 215.08 C 546.38 215.39 536.40 215.06 526.44 215.23 C 526.56 217.62 525.90 220.44 527.78 222.33 C 529.40 223.95 531.87 224.10 534.02 224.36 C 541.19 224.75 548.37 224.48 555.55 224.58 C 554.83 228.00 554.31 231.46 553.71 234.90 C 546.13 234.82 538.55 234.97 530.98 234.85 C 525.60 234.49 519.81 233.06 516.07 228.91 C 512.02 224.32 511.47 217.72 512.32 211.90 C 513.33 203.29 517.07 194.39 524.52 189.45 Z" />
<path fill="#ffffff" d=" M 429.48 208.14 C 430.62 202.38 434.86 196.98 440.83 195.84 C 445.61 195.23 450.45 195.37 455.27 195.28 C 453.68 205.05 451.68 214.74 450.14 224.52 C 444.10 224.37 437.46 225.32 432.00 222.16 C 427.47 219.07 428.26 212.76 429.48 208.14 Z" />
<path fill="#ffffff" d=" M 578.84 195.55 C 584.27 195.10 590.07 194.89 595.27 196.82 C 599.58 198.66 600.32 204.00 599.65 208.11 C 598.94 213.88 596.84 220.75 590.76 222.86 C 585.21 224.56 579.26 224.34 573.53 224.03 C 575.61 214.59 576.84 204.99 578.84 195.55 Z" />
<path fill="#ffffff" d=" M 375.24 214.91 C 381.97 214.13 388.79 214.68 395.56 214.56 C 394.84 217.93 394.22 221.31 393.64 224.71 C 392.99 224.77 391.69 224.90 391.04 224.96 C 384.18 224.10 376.85 226.14 370.32 223.43 C 370.05 219.89 371.22 215.63 375.24 214.91 Z" />
<path fill="#6f80b6" d=" M 355.61 257.59 C 358.26 257.60 360.91 257.61 363.57 257.63 C 362.89 260.91 362.26 264.19 361.62 267.48 C 366.68 267.74 372.22 266.58 376.85 269.18 C 379.27 270.43 380.14 273.33 379.54 275.88 C 378.51 282.13 377.44 288.38 376.34 294.62 C 373.54 294.61 370.74 294.60 367.95 294.58 C 369.14 287.90 370.59 281.26 371.53 274.54 C 367.95 273.33 364.16 273.48 360.44 273.57 C 359.04 280.58 357.58 287.58 356.21 294.59 C 353.55 294.60 350.89 294.61 348.24 294.62 C 350.75 282.28 352.99 269.90 355.61 257.59 Z" />
<path fill="#9a9a9b" d=" M 535.35 258.83 C 537.50 258.84 539.65 258.84 541.81 258.85 C 541.34 261.97 540.82 265.10 540.35 268.23 C 542.71 268.27 545.08 268.32 547.45 268.37 C 547.10 269.93 546.76 271.49 546.42 273.06 C 544.08 273.11 541.74 273.17 539.41 273.24 C 538.78 277.80 536.77 282.43 537.78 287.05 C 539.60 287.97 541.71 287.78 543.69 288.03 C 543.44 289.62 543.21 291.22 542.98 292.81 C 538.79 292.66 532.23 294.19 530.54 288.97 C 529.94 283.66 532.07 278.47 532.74 273.24 C 531.19 273.21 529.64 273.18 528.10 273.16 C 528.35 271.51 528.61 269.87 528.88 268.23 C 530.39 268.25 531.90 268.28 533.42 268.30 C 534.10 265.15 534.73 261.99 535.35 258.83 Z" />
<path fill="#6f80b6" d=" M 322.26 267.51 C 328.15 267.58 334.05 267.34 339.94 267.58 C 343.62 267.78 347.74 269.45 349.16 273.13 C 352.01 281.59 347.02 291.88 338.24 294.21 C 333.80 295.02 329.25 294.48 324.76 294.63 C 324.11 297.89 323.54 301.16 323.08 304.45 C 320.37 304.49 317.66 304.50 314.96 304.51 C 317.36 292.17 319.78 279.83 322.26 267.51 Z" />
<path fill="#6f80b6" d=" M 384.93 267.57 C 390.60 267.52 396.26 267.40 401.93 267.54 C 405.82 267.57 410.32 269.13 411.94 272.99 C 415.14 281.60 409.61 292.34 400.54 294.33 C 396.27 294.91 391.94 294.53 387.65 294.61 C 387.02 297.94 386.34 301.25 385.59 304.55 C 383.04 304.52 380.50 304.50 377.96 304.47 C 379.87 292.10 382.88 279.92 384.93 267.57 Z" />
<path fill="#9a9a9b" d=" M 441.15 268.27 C 450.48 268.35 459.81 268.14 469.14 268.34 C 471.91 268.32 475.60 269.72 475.74 272.94 C 476.11 279.66 473.88 286.18 472.95 292.79 C 470.73 292.82 468.51 292.84 466.30 292.87 C 467.08 286.71 469.28 280.57 468.80 274.35 C 466.51 273.41 463.99 273.62 461.58 273.50 C 460.42 279.93 459.19 286.34 458.10 292.79 C 455.80 292.82 453.50 292.85 451.21 292.88 C 452.36 286.45 453.54 280.03 454.62 273.59 C 452.02 273.60 449.42 273.61 446.82 273.62 C 445.75 280.06 444.54 286.48 443.27 292.89 C 441.05 292.86 438.84 292.83 436.63 292.81 C 438.33 284.67 439.54 276.43 441.15 268.27 Z" />
<path fill="#9a9a9b" d=" M 487.35 268.60 C 492.07 267.95 496.85 268.33 501.60 268.35 C 501.20 269.99 500.82 271.64 500.44 273.29 C 496.43 273.32 492.38 272.95 488.41 273.57 C 486.10 273.79 485.31 276.15 484.31 277.85 C 489.45 278.00 494.60 277.92 499.75 277.95 C 499.42 279.67 499.09 281.40 498.77 283.13 C 493.47 283.25 488.16 282.97 482.89 283.53 C 483.42 284.81 484.08 286.02 484.87 287.16 C 489.07 288.16 493.47 287.59 497.75 287.67 C 497.58 289.36 497.41 291.05 497.24 292.74 C 491.68 292.67 485.75 293.77 480.52 291.43 C 476.32 289.37 475.86 284.08 476.81 280.03 C 477.65 274.59 481.76 269.55 487.35 268.60 Z" />
<path fill="#9a9a9b" d=" M 513.37 268.56 C 517.97 267.99 522.64 268.36 527.27 268.26 C 526.97 269.93 526.67 271.60 526.37 273.28 C 522.29 273.31 518.17 272.95 514.12 273.60 C 511.92 273.87 511.18 276.23 510.15 277.84 C 515.34 278.00 520.54 277.91 525.74 277.97 C 525.28 279.73 524.84 281.49 524.41 283.27 C 519.36 283.17 514.31 283.17 509.27 283.18 C 509.62 284.53 509.46 286.27 510.76 287.18 C 515.00 288.16 519.42 287.58 523.74 287.67 C 523.47 289.37 523.21 291.08 522.94 292.78 C 517.30 292.58 511.11 293.93 505.92 291.16 C 501.71 288.71 501.82 283.16 502.90 279.02 C 504.00 273.91 508.09 269.39 513.37 268.56 Z" />
<path fill="#9a9a9b" d=" M 550.04 268.28 C 552.25 268.28 554.46 268.28 556.68 268.28 C 555.76 274.19 554.16 280.03 553.90 286.02 C 556.31 288.28 560.04 286.99 563.03 287.30 C 564.21 280.96 565.30 274.60 566.47 268.27 C 568.63 268.27 570.80 268.28 572.97 268.30 C 571.90 276.53 570.03 284.63 568.74 292.82 C 563.46 292.76 558.15 293.17 552.90 292.59 C 550.40 292.34 547.45 290.88 547.26 288.08 C 546.86 281.37 549.07 274.87 550.04 268.28 Z" />
<path fill="#9a9a9b" d=" M 575.32 268.28 C 580.54 268.37 585.78 268.04 590.99 268.43 C 594.52 268.71 597.62 271.49 598.35 274.94 C 599.65 281.57 596.28 289.26 589.82 291.81 C 585.85 293.17 581.57 292.80 577.45 292.95 C 576.95 295.80 576.48 298.65 576.06 301.52 C 573.78 301.55 571.50 301.57 569.24 301.60 C 571.29 290.50 573.21 279.37 575.32 268.28 Z" />
<path fill="#ffffff" d=" M 581.21 273.56 C 584.53 273.48 589.34 272.46 591.31 275.94 C 591.96 279.51 591.19 283.88 588.14 286.18 C 585.23 287.88 581.70 287.42 578.48 287.58 C 579.51 282.93 579.84 278.13 581.21 273.56 Z" />
<path fill="#ffffff" d=" M 328.99 273.59 C 333.39 273.63 338.71 272.65 341.78 276.64 C 341.34 280.06 341.26 284.07 338.42 286.51 C 335.08 289.21 330.47 288.50 326.49 288.61 C 327.31 283.60 328.13 278.59 328.99 273.59 Z" />
<path fill="#ffffff" d=" M 389.26 288.58 C 390.10 283.58 391.01 278.60 391.82 273.60 C 395.92 273.89 402.28 272.14 404.26 277.00 C 404.62 280.50 403.65 284.56 400.80 286.85 C 397.42 289.15 393.12 288.51 389.26 288.58 Z" />
<path fill="#9a9a9b" d=" M 418.99 274.48 C 420.91 274.47 422.82 274.45 424.75 274.45 C 424.43 276.40 424.10 278.36 423.78 280.33 C 421.87 280.29 419.96 280.26 418.06 280.23 C 418.37 278.31 418.67 276.39 418.99 274.48 Z" />
<path fill="#9a9a9b" d=" M 428.16 280.28 C 428.56 278.30 428.96 276.33 429.36 274.35 C 431.20 274.40 433.05 274.45 434.90 274.51 C 434.57 276.44 434.24 278.37 433.92 280.31 C 432.00 280.30 430.07 280.29 428.16 280.28 Z" />
<path fill="#9a9a9b" d=" M 416.84 287.60 C 418.26 286.17 420.65 287.04 422.46 286.67 C 422.10 288.73 421.75 290.79 421.41 292.85 C 419.50 292.85 417.59 292.85 415.69 292.85 C 416.03 291.09 416.28 289.31 416.84 287.60 Z" />
<path fill="#9a9a9b" d=" M 425.83 292.80 C 426.33 290.72 426.83 288.64 427.33 286.56 C 429.11 286.75 430.91 286.96 432.70 287.17 C 432.33 289.07 431.96 290.96 431.60 292.86 C 429.67 292.84 427.75 292.82 425.83 292.80 Z" />
</svg>
