<?xml version="1.0" encoding="UTF-8" standalone="no"?>
<svg
   xmlns:dc="http://purl.org/dc/elements/1.1/"
   xmlns:cc="http://creativecommons.org/ns#"
   xmlns:rdf="http://www.w3.org/1999/02/22-rdf-syntax-ns#"
   xmlns:svg="http://www.w3.org/2000/svg"
   xmlns="http://www.w3.org/2000/svg"
   id="svg6693"
   version="1.1"
   xml:space="preserve"
   width="149.02827"
   height="166.31837"
   viewBox="0 0 149.02827 166.31837"><metadata
     id="metadata6699"><rdf:RDF><cc:Work
         rdf:about=""><dc:format>image/svg+xml</dc:format><dc:type
           rdf:resource="http://purl.org/dc/dcmitype/StillImage" /><dc:title></dc:title></cc:Work></rdf:RDF></metadata><defs
     id="defs6697"><clipPath
       clipPathUnits="userSpaceOnUse"
       id="clipPath6707"><path
         d="m 0,870.236 623.626,0 L 623.626,0 0,0 0,870.236 Z"
         id="path6709" /></clipPath><clipPath
       clipPathUnits="userSpaceOnUse"
       id="clipPath6719"><path
         d="m 0,870.236 623.626,0 L 623.626,0 0,0 0,870.236 Z"
         id="path6721" /></clipPath><clipPath
       clipPathUnits="userSpaceOnUse"
       id="clipPath6731"><path
         d="m 0,870.236 623.626,0 L 623.626,0 0,0 0,870.236 Z"
         id="path6733" /></clipPath><clipPath
       id="clipPath4150"
       clipPathUnits="userSpaceOnUse"><path
         id="path4152"
         d="m 0,870.236 623.626,0 L 623.626,0 0,0 0,870.236 Z" /></clipPath><clipPath
       id="clipPath4162"
       clipPathUnits="userSpaceOnUse"><path
         id="path4164"
         d="m 0,870.236 623.626,0 L 623.626,0 0,0 0,870.236 Z" /></clipPath><clipPath
       id="clipPath4390"
       clipPathUnits="userSpaceOnUse"><path
         id="path4392"
         d="m 0,870.236 623.626,0 L 623.626,0 0,0 0,870.236 Z" /></clipPath><clipPath
       id="clipPath4398"
       clipPathUnits="userSpaceOnUse"><path
         id="path4400"
         d="m -80.514,14.173 -595.276,0 0,841.89 595.276,0 0,-841.89 z" /></clipPath></defs><path
     d="m 37.25725,104.66974 0,0 -34.7617,20.07025 c 1.60847,2.78488 3.93703,5.1539 6.819,6.81738 l 27.9427,16.13324 0,-43.02087 z"
     style="fill:#4c9edc;fill-opacity:1;fill-rule:nonzero;stroke:none"
     id="path5082" /><path
     d="m 0,83.159287 0,32.264853 c 0,3.3286 0.88837,6.52935 2.49522,9.31423 L 37.25693,104.66974 0,83.159287 Z"
     style="fill:#498cd2;fill-opacity:1;fill-rule:nonzero;stroke:none"
     id="path5084" /><path
     id="path5086"
     d="M 30.55364,65.51953 9e-4,83.16015 l 37.25586,21.50977 0,-19.8125 C 35.0331,82.99923 33.07112,81.23645 32.08879,79.77343 30.67371,77.66588 30.43657,71.35195 30.55364,65.51953 Z"
     style="fill:#487dc8;fill-opacity:1;fill-rule:nonzero;stroke:none" /><path
     id="path5088"
     d="m 59.78801,134.68359 -22.53125,13.00781 27.94336,16.13282 c 2.88198,1.66348 6.09914,2.49414 9.31445,2.49414 l 0,-26.29883 c -6.4e-4,0 -0.001,0 -0.002,0 -1.96684,0 -4.08313,-0.805 -6.2539,-1.57617 -1.36543,-0.48507 -5.0399,-2.17009 -8.47071,-3.75977 z"
     style="fill:#5295d6;fill-opacity:1;fill-rule:nonzero;stroke:none" /><path
     id="path5090"
     d="M 2.49504,41.58007 C 0.88658,44.36496 9e-4,47.5656 9e-4,50.89257 l 0,32.26758 30.55274,-17.63867 c 0.0566,-2.82261 0.19449,-5.48727 0.32617,-7.55273 L 2.49504,41.58007 Z"
     style="fill:#476bbc;fill-opacity:1;fill-rule:nonzero;stroke:none" /><path
     id="path5092"
     d="m 111.77239,104.66992 -12.10352,6.98828 c -0.006,3.91697 -0.32945,7.34224 -1.91601,8.36719 -2.80508,1.81218 -7.67922,2.15441 -10.27539,1.75195 -1.18479,-0.18367 -2.48267,-0.51449 -3.7754,-0.90039 l -0.88867,0.51172 c 2.44137,0.76137 4.76253,1.58288 8.40235,1.7207 2.94875,0.11165 4.47324,-0.53184 6.17773,-1.19922 1.53779,1.98478 0.95739,8.56317 -3.65625,10.69141 -1.06109,0.48947 -2.85923,1.32162 -4.49609,2.08008 l 22.53125,13.00976 0,-43.02148 z"
     style="fill:#7f9ad6;fill-opacity:1;fill-rule:nonzero;stroke:none" /><path
     d="m 146.53296,124.73919 c 1.60848,-2.78489 2.49524,-5.98727 2.49524,-9.31424 l 0,-32.26485 -37.25694,21.51044 34.7617,20.06865 z"
     style="fill:#727ebd;fill-opacity:1;fill-rule:nonzero;stroke:none"
     id="path5094" /><path
     d="m 111.77143,104.66974 0,43.02087 27.94269,-16.13324 c 2.88198,-1.66348 5.21054,-4.0325 6.81901,-6.819 l -34.76171,-20.06863 z"
     style="fill:#8f9fd8;fill-opacity:1;fill-rule:nonzero;stroke:none"
     id="path5096" /><path
     id="path5098"
     d="m 118.47356,65.51757 c 0.11716,5.83297 -0.11991,12.14808 -1.53516,14.25586 -0.98215,1.46277 -2.94284,3.22616 -5.16601,5.08399 l 0,19.8125 37.25586,-21.50977 -30.55469,-17.64258 z"
     style="fill:#425da2;fill-opacity:1;fill-rule:nonzero;stroke:none" /><path
     id="path5100"
     d="m 89.23918,134.68164 c -3.43125,1.58989 -7.10501,3.27655 -8.4707,3.76172 -2.17007,0.77092 -4.2876,1.57564 -6.25391,1.57617 l 0,26.29883 c 3.21533,0 6.43248,-0.83066 9.31446,-2.49414 l 27.9414,-16.13282 -22.53125,-13.00976 z"
     style="fill:#6495d5;fill-opacity:1;fill-rule:nonzero;stroke:none" /><path
     id="path5102"
     d="m 37.25676,18.6289 0,25.42774 14.46485,-8.22266 8.07812,-4.19141 L 37.25676,18.6289 Z"
     style="fill:#3a64ad;fill-opacity:1;fill-rule:nonzero;stroke:none" /><path
     id="path5104"
     d="m 111.77043,18.6289 -22.54296,13.01563 8.07617,4.18945 14.46679,8.22266 0,-25.42774 z"
     style="fill:#3a61a3;fill-opacity:1;fill-rule:nonzero;stroke:none" /><path
     id="path5106"
     d="M 37.25676,18.6289 9.31536,34.75976 C 6.43338,36.42487 4.10352,38.7952 2.49504,41.58007 l 28.38477,16.38868 c 0.1451,-2.27607 0.2793,-3.81641 0.2793,-3.81641 0,-2.03614 0.54344,-3.99468 1.52734,-5.69922 0.98393,-1.70354 2.40894,-3.15235 4.17188,-4.16992 l 0.39843,-0.22656 0,-25.42774 z"
     style="fill:#32549d;fill-opacity:1;fill-rule:nonzero;stroke:none" /><path
     id="path5108"
     d="m 146.53215,41.57812 -28.38476,16.38867 c 0.13165,2.06474 0.26949,4.72877 0.32617,7.55078 l 30.55469,17.64258 0,-32.26562 c 0,-3.3286 -0.88762,-6.52991 -2.4961,-9.31641 z"
     style="fill:#2f5296;fill-opacity:1;fill-rule:nonzero;stroke:none" /><path
     id="path5110"
     d="m 111.77239,18.6289 0,25.42969 0.39648,0.22461 c 1.76294,1.01757 3.18795,2.46638 4.17188,4.16992 0.9839,1.70454 1.52734,3.66308 1.52734,5.69922 0,0 0.13424,1.53937 0.2793,3.81445 l 28.38476,-16.38867 c -1.60846,-2.78489 -3.93638,-5.15292 -6.81836,-6.8164 L 111.77239,18.6289 Z"
     style="fill:#325295;fill-opacity:1;fill-rule:nonzero;stroke:none" /><path
     id="path5112"
     d="m 74.51457,0 0,26.29882 c 3.15309,4e-4 6.23814,0.94851 9.13477,2.45118 L 89.22747,31.64453 111.77239,18.6289 83.82707,2.49414 C 80.9451,0.83065 77.7299,0 74.51457,0 Z"
     style="fill:#4379c6;fill-opacity:1;fill-rule:nonzero;stroke:none" /><path
     id="path5114"
     d="m 74.51457,0 c -3.21531,0 -6.43213,0.83065 -9.3125,2.49414 L 37.25676,18.6289 59.79973,31.64257 65.37786,28.75 c 2.89721,-1.50298 5.98102,-2.45118 9.13476,-2.45118 6.5e-4,0 0.001,0 0.002,0 L 74.51462,0 Z"
     style="fill:#3f73bd;fill-opacity:1;fill-rule:nonzero;stroke:none" /><path
     id="path5116"
     d="m 37.25676,104.66992 0,43.02148 22.53125,-13.00781 c -1.63828,-0.7591 -3.43615,-1.59219 -4.49804,-2.08203 -4.61364,-2.12824 -5.19403,-8.70663 -3.65625,-10.69141 1.70448,0.66738 3.22898,1.31097 6.17773,1.19922 3.6387,-0.13778 5.9618,-0.95952 8.40625,-1.7207 l -0.89453,-0.51563 c -1.29178,0.38802 -2.58756,0.72046 -3.77344,0.9043 -2.59619,0.40246 -7.47031,0.0602 -10.27539,-1.75195 -1.58683,-1.02512 -1.90994,-4.45136 -1.91601,-8.36914 l -12.10157,-6.98633 z"
     style="fill:#50a0dd;fill-opacity:1;fill-rule:nonzero;stroke:none" /><path
     id="path5118"
     d="m 37.25676,84.85742 0,19.8125 11.90235,-6.87305 C 48.99323,96.69402 48.76064,95.8192 48.4384,95.25586 46.74855,92.30167 41.49451,88.39867 37.25676,84.85742 Z"
     style="fill:#425da2;fill-opacity:1;fill-rule:nonzero;stroke:none" /><path
     id="path5120"
     d="m 111.77043,84.85742 c -4.23775,3.54125 -9.49178,7.44425 -11.18164,10.39844 -0.32224,0.56334 -0.55483,1.43816 -0.7207,2.54101 l 11.90234,6.87305 0,-19.8125 z"
     style="fill:#487dc8;fill-opacity:1;fill-rule:nonzero;stroke:none" /><path
     id="path5122"
     d="m 99.86809,97.79687 c -0.16569,1.10168 -0.2647,2.4321 -0.31836,3.91016 -0.0985,2.91678 0.12441,6.61057 0.11914,9.95117 l 12.10352,-6.98828 -11.9043,-6.87305 z m -50.70898,0.002 -11.90235,6.8711 12.10157,6.98633 c -0.005,-3.3401 0.21759,-7.03301 0.11914,-9.94922 -0.0536,-1.47727 -0.15282,-2.80687 -0.31836,-3.90821 z m 13.52343,3.0879 c -0.21902,0.0152 -0.35257,0.0529 -0.38671,0.12109 -0.23862,0.47644 9.21599,3.79295 11.72265,9.92969 0.27055,0.36931 0,6.57422 0,6.57422 0,0 -4.3322,2.05241 -8.69726,3.36328 l 0.89257,0.51562 c 2.27523,-0.70859 4.65312,-1.36523 8.30664,-1.36523 3.65014,0 6.0233,0.65545 8.29297,1.36328 l 0.88867,-0.51172 c -4.37272,-1.30535 -8.7207,-3.3457 -8.7207,-3.3457 0,0 -0.27055,-6.2049 0,-6.57422 2.50665,-6.13674 11.98863,-9.47278 11.75,-9.94922 -0.27312,-0.54535 -6.96663,0.81126 -12.22461,0.77539 -4.60073,0.0314 -10.29104,-1.00298 -11.82422,-0.89648 z"
     style="fill:#3f73bd;fill-opacity:1;fill-rule:nonzero;stroke:none" /><path
     id="path5124"
     d="m 47.24504,58.4707 c -0.30051,-10e-4 -0.57683,0.005 -0.82421,0.0176 -0.28693,0.0147 -0.52089,0.0414 -0.72071,0.0762 -0.31616,0.0551 -0.52847,0.1331 -0.57226,0.24219 -0.043,0.10699 0.009,0.21955 0.13281,0.33398 0.21277,0.19613 0.66019,0.3975 1.17969,0.5918 0.0863,0.0323 0.15311,0.0659 0.24414,0.0976 0,0 0.002,0 0.002,0 0.31932,0.11126 0.66405,0.21944 1.01172,0.32032 0,0 0.002,0 0.002,0 0.69591,0.20187 1.40289,0.37723 1.93555,0.50195 0,0 0.002,0 0.002,0 0.53133,0.12437 0.89063,0.19922 0.89063,0.19922 0,0 1.27888,3.24878 2.70898,4.84766 0.46453,0.51917 1.32163,0.90578 2.21094,1.18554 0.88949,0.27989 1.81079,0.45277 2.40625,0.54688 0.39688,0.0627 0.64844,0.0898 0.64844,0.0898 l 3.80273,7.05469 c 0,0 -0.79431,-6.66867 -1.86914,-10.73242 -0.0896,-0.33869 -0.18026,-0.65792 -0.27344,-0.95508 -0.1863,-0.59428 -0.37903,-1.09517 -0.57617,-1.45899 -0.0986,-0.1819 -0.19844,-0.3293 -0.29883,-0.4375 -0.13997,-0.15085 -0.35342,-0.29481 -0.60156,-0.43554 -0.0561,-0.0318 -0.10107,-0.0664 -0.16211,-0.0977 0,0 -0.002,0 -0.002,0 -0.33175,-0.16981 -0.73358,-0.33215 -1.18946,-0.48437 -1.36811,-0.45694 -3.21394,-0.82949 -5.05664,-1.08985 -0.614,-0.0867 -1.22696,-0.16003 -1.82226,-0.2207 -1.19063,-0.1214 -2.30743,-0.18905 -3.20899,-0.19336 z"
     style="fill:#2f5296;fill-opacity:1;fill-rule:nonzero;stroke:none" /><path
     id="path5126"
     d="m 101.78215,58.4707 c -3.60622,0.0173 -10.66768,1.03927 -12.04297,2.52148 -1.60623,1.73114 -3.01953,13.58399 -3.01953,13.58399 l 3.80274,-7.05469 c 0,0 4.02885,-0.43778 5.26758,-1.82226 1.4301,-1.59888 2.70703,-4.84766 2.70703,-4.84766 0,0 5.74635,-1.18895 5.40234,-2.04492 -0.0955,-0.23754 -0.91511,-0.34094 -2.11719,-0.33594 z"
     style="fill:#498cd2;fill-opacity:1;fill-rule:nonzero;stroke:none" /></svg>