<?xml version="1.0" encoding="UTF-8" standalone="no"?>
<!-- Created with Inkscape (http://www.inkscape.org/) -->

<svg
   xmlns:dc="http://purl.org/dc/elements/1.1/"
   xmlns:cc="http://creativecommons.org/ns#"
   xmlns:rdf="http://www.w3.org/1999/02/22-rdf-syntax-ns#"
   xmlns:svg="http://www.w3.org/2000/svg"
   xmlns="http://www.w3.org/2000/svg"
   xmlns:sodipodi="http://sodipodi.sourceforge.net/DTD/sodipodi-0.dtd"
   xmlns:inkscape="http://www.inkscape.org/namespaces/inkscape"
   id="svg2"
   version="1.1"
   inkscape:version="0.48.4 r9939"
   width="650.0875"
   height="350"
   xml:space="preserve"
   sodipodi:docname="Brussels PHP-13.eps"><metadata
     id="metadata8"><rdf:RDF><cc:Work
         rdf:about=""><dc:format>image/svg+xml</dc:format><dc:type
           rdf:resource="http://purl.org/dc/dcmitype/StillImage" /><dc:title></dc:title></cc:Work></rdf:RDF></metadata><defs
     id="defs6" /><sodipodi:namedview
     pagecolor="#ffffff"
     bordercolor="#666666"
     borderopacity="1"
     objecttolerance="10"
     gridtolerance="10"
     guidetolerance="10"
     inkscape:pageopacity="0"
     inkscape:pageshadow="2"
     inkscape:window-width="1855"
     inkscape:window-height="1056"
     id="namedview4"
     showgrid="false"
     inkscape:zoom="1.5706534"
     inkscape:cx="368.35576"
     inkscape:cy="203.48977"
     inkscape:window-x="65"
     inkscape:window-y="24"
     inkscape:window-maximized="1"
     inkscape:current-layer="g10" /><g
     id="g10"
     inkscape:groupmode="layer"
     inkscape:label="ink_ext_XXXXXX"
     transform="matrix(1.25,0,0,-1.25,0,350)"><g
       id="g12"
       transform="matrix(0.11013355,0,0,0.11013355,-26.848791,-13.656281)"><path
         d="m 1666.08,2542.23 0,-433.77 c 0,-52.52 11.45,-93.19 34.36,-122 22.89,-28.84 61.56,-43.23 116.02,-43.23 54.1,0 92.51,14.47 115.29,43.46 22.69,28.96 34.1,69.56 34.1,121.77 l 0,433.77 150.82,0 0,-444.31 c 0,-196.66 -100.06,-294.98 -300.21,-294.98 -199.54,0 -299.28,98.32 -299.28,294.98 l 0,444.31 148.9,0"
         style="fill:#25695f;fill-opacity:1;fill-rule:nonzero;stroke:none"
         id="path14"
         inkscape:connector-curvature="0" /><path
         d="m 2290.11,2046.02 c 8.65,-31.42 21.52,-56.22 38.65,-74.47 17.15,-18.25 43.96,-27.36 80.49,-27.36 24.96,0 45.88,6.72 62.65,20.17 16.84,13.43 25.26,33.94 25.26,61.48 0,27.88 -17.97,50.99 -53.81,69.43 -35.88,18.39 -65.35,33.84 -88.4,46.34 -43.55,22.74 -82.15,50.44 -115.78,83.11 -32.01,30.75 -48.03,71.72 -48.03,123.01 l 0,8.59 c 1.9,56.72 24.65,104.74 68.21,144.13 42.28,38.12 91.62,57.16 147.96,57.16 l 5.77,0 c 47.07,-0.96 86.7,-9.83 118.88,-26.64 32.19,-16.84 60.78,-45.56 85.76,-86.22 l -101.87,-90.32 c -11.5,18.26 -25.25,34.59 -41.29,49 -15.37,13.75 -34.26,20.63 -56.7,20.63 l -2.87,0 c -18.57,-0.95 -34.98,-7.35 -49.22,-19.2 -14.26,-11.84 -21.39,-28.04 -21.39,-48.54 0,-19.52 12.17,-37.71 36.53,-54.48 24.31,-16.83 47.05,-30.84 68.18,-42.05 51.88,-27.89 98.81,-58.46 140.76,-91.74 41,-32.7 61.51,-81.36 61.51,-146.04 l 0,-2.91 c -0.65,-63.74 -23.32,-114.96 -67.99,-153.7 -44.67,-38.76 -100.31,-60.21 -166.93,-64.36 -4.81,-0.32 -9.77,-0.51 -14.89,-0.51 -44.18,0 -86.15,11.73 -125.86,35.1 -44.53,25.9 -76.85,63.86 -97.05,113.83 l 111.47,96.56"
         style="fill:#25695f;fill-opacity:1;fill-rule:nonzero;stroke:none"
         id="path16"
         inkscape:connector-curvature="0" /><path
         d="m 2849.25,2046.02 c 8.65,-31.42 21.54,-56.22 38.67,-74.47 17.13,-18.25 43.96,-27.36 80.47,-27.36 24.98,0 45.9,6.72 62.67,20.17 16.82,13.43 25.24,33.94 25.24,61.48 0,27.88 -17.93,50.99 -53.81,69.43 -35.86,18.39 -65.33,33.84 -88.4,46.34 -43.53,22.74 -82.13,50.44 -115.74,83.11 -32.03,30.75 -48.05,71.72 -48.05,123.01 l 0,8.59 c 1.92,56.72 24.65,104.74 68.21,144.13 42.3,38.12 91.58,57.16 147.96,57.16 l 5.77,0 c 47.05,-0.96 86.7,-9.83 118.88,-26.64 32.19,-16.84 60.76,-45.56 85.76,-86.22 l -101.85,-90.32 c -11.5,18.26 -25.29,34.59 -41.31,49 -15.39,13.75 -34.28,20.63 -56.68,20.63 l -2.87,0 c -18.59,-0.95 -35,-7.35 -49.24,-19.2 -14.28,-11.84 -21.39,-28.04 -21.39,-48.54 0,-19.52 12.15,-37.71 36.49,-54.48 24.35,-16.83 47.11,-30.84 68.24,-42.05 51.88,-27.89 98.77,-58.46 140.74,-91.74 41,-32.7 61.49,-81.36 61.49,-146.04 l 0,-2.91 c -0.63,-63.74 -23.3,-114.96 -67.97,-153.7 -44.67,-38.76 -100.31,-60.21 -166.95,-64.36 -4.79,-0.32 -9.77,-0.51 -14.87,-0.51 -44.2,0 -86.15,11.73 -125.88,35.1 -44.49,25.9 -76.85,63.86 -97.03,113.83 l 111.45,96.56"
         style="fill:#25695f;fill-opacity:1;fill-rule:nonzero;stroke:none"
         id="path18"
         inkscape:connector-curvature="0" /><path
         d="m 3296.98,2542.23 420.33,0 0,-134.02 -270,0 0,-130.65 270,0 0,-137.39 -270,0 0,-180.63 270,0 0,-138.83 -420.33,0 0,721.52"
         style="fill:#25695f;fill-opacity:1;fill-rule:nonzero;stroke:none"
         id="path20"
         inkscape:connector-curvature="0" /><path
         d="m 3803.74,2542.23 150.86,0 0,-582.69 247.87,0 0,-138.83 -398.73,0 0,721.52"
         style="fill:#25695f;fill-opacity:1;fill-rule:nonzero;stroke:none"
         id="path22"
         inkscape:connector-curvature="0" /><path
         d="m 4400.4,2046.02 c 8.65,-31.42 21.52,-56.22 38.65,-74.47 17.17,-18.25 43.99,-27.36 80.49,-27.36 24.98,0 45.88,6.72 62.66,20.17 16.85,13.43 25.23,33.94 25.23,61.48 0,27.88 -17.91,50.99 -53.79,69.43 -35.88,18.39 -65.35,33.84 -88.38,46.34 -43.57,22.74 -82.16,50.44 -115.78,83.11 -32.05,30.75 -48.04,71.72 -48.04,123.01 l 0,8.59 c 1.91,56.72 24.68,104.74 68.22,144.13 42.26,38.12 91.6,57.16 147.95,57.16 l 5.76,0 c 47.07,-0.96 86.72,-9.83 118.89,-26.64 32.18,-16.84 60.78,-45.56 85.76,-86.22 l -101.84,-90.32 c -11.54,18.26 -25.29,34.59 -41.31,49 -15.37,13.75 -34.27,20.63 -56.68,20.63 l -2.89,0 c -18.59,-0.95 -35,-7.35 -49.26,-19.2 -14.23,-11.84 -21.36,-28.04 -21.36,-48.54 0,-19.52 12.19,-37.71 36.5,-54.48 24.34,-16.83 47.11,-30.84 68.2,-42.05 51.9,-27.89 98.83,-58.46 140.79,-91.74 40.97,-32.7 61.46,-81.36 61.46,-146.04 l 0,-2.91 c -0.62,-63.74 -23.28,-114.96 -67.95,-153.7 -44.71,-38.76 -100.33,-60.21 -166.93,-64.36 -4.81,-0.32 -9.79,-0.51 -14.9,-0.51 -44.2,0 -86.16,11.73 -125.86,35.1 -44.5,25.9 -76.86,63.86 -97.05,113.83 l 111.46,96.56"
         style="fill:#25695f;fill-opacity:1;fill-rule:nonzero;stroke:none"
         id="path24"
         inkscape:connector-curvature="0" /><path
         d="m 589.836,2122.75 c 7.559,6.74 16.48,11.58 25.992,14.35 l 0,88.78 c -11.094,3.2 -21.363,9.26 -29.644,17.8 l -75.704,-43.72 c 1.661,-5.87 2.594,-12.05 2.594,-18.48 0,-4.68 -0.469,-9.23 -1.386,-13.63 l 78.148,-45.1"
         style="fill:#25695f;fill-opacity:1;fill-rule:nonzero;stroke:none"
         id="path26"
         inkscape:connector-curvature="0" /><path
         d="m 910.93,2102.7 c -6.426,21.13 -16.02,40.17 -28.828,57.18 -13.149,16.62 -28.672,30.39 -46.582,41.29 -5.137,2.57 -8.184,4.15 -9.141,4.81 27.851,19.53 46.914,47.09 57.168,82.63 5.113,19.53 7.691,38.75 7.691,57.64 0,30.45 -6.718,60.23 -20.175,89.36 -24.352,52.53 -65.172,85.18 -122.516,98.02 -15.688,3.49 -33.852,5.81 -54.516,6.94 -20.664,1.12 -40.269,1.66 -58.843,1.66 l -191.68,0 0,-75.37 c 0.722,0.03 1.441,0.1 2.183,0.1 37.207,0 67.383,-30.14 67.383,-67.34 0,-2.8 -0.176,-5.56 -0.523,-8.23 l 81.519,-47.04 c 2.153,1.62 4.414,3.14 6.86,4.54 32.207,18.63 73.433,7.57 92.008,-24.63 18.617,-32.25 7.558,-73.44 -24.625,-92.06 -4.805,-2.79 -9.829,-4.89 -14.922,-6.35 l 0,-88.73 c 5.093,-1.48 10.117,-3.6 14.922,-6.37 32.183,-18.59 43.242,-59.82 24.625,-92.03 -18.575,-32.24 -59.801,-43.26 -92.008,-24.65 -0.688,0.39 -1.387,0.82 -2.051,1.24 l -85.859,-49.58 c 0.015,-0.78 0.054,-1.58 0.054,-2.37 0,-37.23 -30.176,-67.38 -67.383,-67.38 -0.742,0 -1.461,0.08 -2.183,0.11 l 0,-75.38 192.637,0 c 23.375,0 48.668,0.74 75.898,2.17 27.227,1.43 50.27,4.89 69.156,10.33 58.946,16.32 100.102,54.75 123.496,115.29 10.532,27.21 15.84,55.86 15.84,85.98 0,24.02 -3.222,46.73 -9.605,68.22"
         style="fill:#25695f;fill-opacity:1;fill-rule:nonzero;stroke:none"
         id="path28"
         inkscape:connector-curvature="0" /><path
         d="m 464.48,2028.04 c 14.868,-4.31 27.598,-13.59 36.333,-25.95 l 72.671,41.97 c -6.675,14.44 -8.203,31.07 -3.671,46.85 l -75.719,43.71 c -8.047,-8.31 -18.203,-14.55 -29.614,-17.85 l 0,-88.73"
         style="fill:#25695f;fill-opacity:1;fill-rule:nonzero;stroke:none"
         id="path30"
         inkscape:connector-curvature="0" /><path
         d="m 497.566,2356.65 c -8.496,-10.26 -19.961,-17.93 -33.086,-21.73 l 0,-88.73 c 9.75,-2.84 18.594,-7.81 25.981,-14.35 l 78.16,45.1 c -2.598,12.51 -1.519,25.33 2.817,37.05 l -73.872,42.66"
         style="fill:#25695f;fill-opacity:1;fill-rule:nonzero;stroke:none"
         id="path32"
         inkscape:connector-curvature="0" /><path
         d="m 1157.86,2242.73 c 16.33,0 35.37,0.97 57.15,2.88 21.78,1.93 37.77,6.55 48.05,13.94 14.1,9.93 21.13,28.82 21.13,56.66 0,15.72 -2.25,29.33 -6.72,40.87 -7.38,18.24 -25,30.23 -52.85,36.02 -16.33,3.51 -38.59,5.28 -66.76,5.28 l 0,-155.65 z m -7.23,-148.92 0,-281.96 -143.63,0 0,721.51 174.87,0 c 25.29,0 50.84,-1.27 76.62,-3.85 25.78,-2.55 49.7,-8.79 71.81,-18.71 54.77,-25.3 88.87,-70.79 102.33,-136.44 3.51,-17.94 5.27,-35.54 5.27,-52.86 0,-25.62 -3.85,-50.43 -11.5,-74.44 -19.24,-63.1 -62.64,-102.66 -130.22,-118.66 25.94,-4.17 47.79,-17.45 65.61,-39.88 17.75,-22.39 34.98,-49.24 51.6,-80.45 16.66,-31.22 34.28,-64.4 52.85,-99.43 18.57,-35.07 41.8,-67.33 69.69,-96.79 l -171.53,0 c -21.77,20.16 -39.55,44.74 -53.32,73.71 -13.79,29.01 -27.61,57.57 -41.54,85.76 -13.92,28.16 -29.86,53.62 -47.81,76.37 -17.95,22.74 -41.64,38.14 -71.1,46.12"
         style="fill:#25695f;fill-opacity:1;fill-rule:nonzero;stroke:none"
         id="path34"
         inkscape:connector-curvature="0" /><path
         d="m 1748.51,1550.03 c -6.29,-36.67 -31.12,-63 -55.39,-58.84 -24.28,4.17 -38.89,37.33 -32.6,73.95 6.29,36.62 31.11,62.95 55.43,58.8 24.24,-4.19 38.84,-37.29 32.56,-73.91"
         style="fill:#072429;fill-opacity:1;fill-rule:evenodd;stroke:none"
         id="path36"
         inkscape:connector-curvature="0" /><path
         d="m 1294.52,1550.03 c 6.29,-36.67 31.11,-63 55.33,-58.84 24.34,4.17 38.95,37.33 32.66,73.95 -6.35,36.62 -31.09,62.95 -55.39,58.8 -24.32,-4.19 -38.93,-37.29 -32.6,-73.91"
         style="fill:#072429;fill-opacity:1;fill-rule:evenodd;stroke:none"
         id="path38"
         inkscape:connector-curvature="0" /><path
         d="m 1306.18,1588.96 c -2.46,-15.69 4.04,-29.67 14.44,-31.29 10.46,-1.58 20.89,9.79 23.26,25.55 2.42,15.74 -4.09,29.76 -14.51,31.33 -10.38,1.64 -20.81,-9.8 -23.19,-25.59"
         style="fill:#ffffff;fill-opacity:1;fill-rule:evenodd;stroke:none"
         id="path40"
         inkscape:connector-curvature="0" /><path
         d="m 1736.81,1588.96 c 2.36,-15.69 -4.14,-29.67 -14.52,-31.29 -10.44,-1.58 -20.82,9.79 -23.24,25.55 -2.42,15.74 4.1,29.76 14.48,31.33 10.46,1.64 20.82,-9.8 23.28,-25.59"
         style="fill:#ffffff;fill-opacity:1;fill-rule:evenodd;stroke:none"
         id="path42"
         inkscape:connector-curvature="0" /><path
         d="m 3710.17,1702.41 0,-1453.18 -148.03,0 0,683.7 -751.95,0 0,-683.7 -144.16,0 0,1453.18 144.16,0 0,-642.79 751.95,0 0,510.34 -346.76,0 0,132.45 494.79,0"
         style="fill:#072429;fill-opacity:1;fill-rule:nonzero;stroke:none"
         id="path44"
         inkscape:connector-curvature="0" /><path
         d="m 4571.18,1624.44 c 58.46,-40.24 103.6,-90.87 135.39,-151.88 31.86,-61.06 47.74,-127.96 47.74,-200.66 0,-72.75 -15.88,-139.61 -47.74,-200.66 -31.79,-61.05 -76.93,-111.65 -135.39,-151.951 -55.88,-37.641 -116.23,-61.051 -181.15,-70.109 -64.98,-9.11 -130.53,-13.629 -196.78,-13.629 l -159.69,0 0,130.551 149.97,0 c 45.44,0 88.65,1.25 129.55,3.828 40.91,2.601 82.14,14.308 123.71,35.06 54.55,26.01 96.42,61.7 125.62,107.2 29.26,45.48 43.83,98.65 43.83,159.71 0,62.31 -14.57,115.94 -43.83,160.75 -29.2,44.8 -71.07,80.16 -125.62,106.11 -41.57,22.1 -82.8,34.13 -123.71,36.03 -40.9,2.01 -84.11,2.92 -129.55,2.92 l -251.25,0 0,-1334.319 -148.07,0 0,1466.819 409.04,0 c 66.25,0 131.8,-4.85 196.78,-14.61 64.92,-9.77 125.27,-33.44 181.15,-71.16"
         style="fill:#072429;fill-opacity:1;fill-rule:nonzero;stroke:none"
         id="path46"
         inkscape:connector-curvature="0" /><path
         d="m 2519.81,1472.56 c -31.85,61.01 -76.93,111.64 -135.39,151.88 -55.82,37.72 -116.23,61.39 -181.15,71.16 -64.98,9.76 -130.56,14.61 -196.78,14.61 l -213.2,0 c 0,0 163.71,-251.27 0,-533.45 -3.61,-6.17 -7.01,-12.55 -10.47,-18.83 36.6,-63.82 118.95,-199.789 185.06,-253.758 7.38,-6.024 -176.48,60.566 -243.4,133.698 -158.22,-373.518 -142.52,-794.479 -142.52,-794.479 0,0 183.09,0 237.09,0 -20.06,275.078 -69.1,404.828 97.31,529.73 58.77,44.098 109.31,71.539 127.36,72.168 18.03,0.652 94.57,-5.219 159.55,3.891 64.92,9.058 125.33,32.468 181.15,70.109 58.46,40.301 103.54,90.901 135.39,151.951 31.8,61.05 47.74,127.91 47.74,200.66 0,72.7 -15.94,139.6 -47.74,200.66"
         style="fill:#072429;fill-opacity:1;fill-rule:nonzero;stroke:none"
         id="path48"
         inkscape:connector-curvature="0" /><path
         d="m 486.746,1471.53 c 31.801,61.05 76.938,111.69 135.356,151.96 55.878,37.65 116.265,61.35 181.191,71.14 64.937,9.73 130.484,14.62 196.737,14.62 l 213.2,0 c 0,0 -163.73,-251.31 0,-533.45 3.62,-6.24 6.99,-12.57 10.49,-18.84 -36.62,-63.83 -118.91,-199.812 -185.08,-253.749 -7.38,-6.031 176.53,60.5 243.44,133.699 158.24,-373.539 142.52,-794.519 142.52,-794.519 0,0 -183.13,0 -237.13,0 20.04,275.109 69.1,404.839 -97.36,529.769 -58.73,44.102 -109.317,71.5 -127.305,72.168 -18.032,0.621 -94.575,-5.258 -159.512,3.883 -64.926,9.051 -125.313,32.449 -181.191,70.098 -58.418,40.242 -103.555,90.911 -135.356,151.971 -31.851,61.06 -47.73,127.88 -47.73,200.65 0,72.69 15.879,139.61 47.73,200.6"
         style="fill:#25695f;fill-opacity:1;fill-rule:nonzero;stroke:none"
         id="path50"
         inkscape:connector-curvature="0" /></g></g></svg>