<svg xmlns="http://www.w3.org/2000/svg" width="1201.1305" height="341.20791" viewBox="0 0 1201.1305 341.20791">
  <g>
    <path style="line-height:125%;-inkscape-font-specification:'Handel Gothic Italic, Italic'" d="M81.8652 0h27.18l-16.74 62.1 67.68-62.1h32.58l-68.76 63.18 34.74 66.06h-34.74l-32.22-64.26-17.1 64.26h-27.18L81.8652 0zM191.1027 34.38h42.12q10.08.18 15.3 2.52 5.4 2.16 5.76 6.84.36 4.5-.72 10.8-.9 6.12-2.88 13.86l-.36 1.44-.36 1.44-.36.72v.72q-.18.54-.36.9 0 .36-.18.72l-23.94-.18q.18-.36.18-.9l.36-1.08q.18-.36.18-.54.18-.18.18-.54v-.18-.36q.18-.18.18-.36 1.8-6.48 2.34-10.26.54-3.96-.36-5.04-.72-1.08-4.32-1.62-3.6-.54-10.08-.54H211.0827l-20.34 76.5h-25.02l25.38-94.86zM276.7293 129.24h-26.28l25.38-94.86h26.28l-25.38 94.86zm28.26-105.66h-26.28l6.3-23.58h26.28l-6.3 23.58zM302.0418 109.44h52.74q.18.18.36.18h3.24q1.08-.18 2.34-.54 1.08-.18 2.16-.54 1.08-.36 2.16-.9 1.98-.9 3.42-2.7 1.62-1.8 2.34-4.68.72-2.52.18-4.32-.54-1.8-1.98-2.7-1.62-.9-3.42-1.44-1.8-.54-3.78-.72h-2.16l-21.42-.18q-7.74.18-13.5-.9t-9.36-3.24q-3.78-2.16-4.68-7.56-.72-5.58 1.62-14.4 2.16-8.28 5.94-14.04 3.78-5.94 9.36-9.36 5.58-3.42 12.06-5.04 6.48-1.8 14.22-1.8l54-.18-5.4 19.8h-44.28q-.18.18-.54.18h-1.26-5.22q-.72 0-1.62.18-.9.18-1.62.36l-1.8.36q-.72.18-1.62.54-1.8.72-3.06 1.98-1.08 1.08-1.98 2.7-1.8 3.24-1.8 5.4.18 2.16 1.98 3.24 1.62 1.26 3.78 1.8 2.16.54 4.86.54l22.68-.18q6.66.18 11.7 1.8 5.04 1.44 8.82 4.5 3.78 2.88 4.68 8.1 1.08 5.22-.54 12.6-.18.18-.18.36v.18q-1.62 5.76-4.68 11.16-3.06 5.22-7.74 9.9-4.5 4.68-9.9 7.02t-11.7 2.34h-64.62l5.22-19.8zM421.1568 34.38h17.64l9.18-34.38h25.02l-9.18 34.38h26.46l-5.04 18.9h-26.46l-10.26 38.34q-2.16 7.2-1.62 11.34t3.6 5.22q2.88 1.26 7.2 1.8 4.5.54 10.44.54H469.7568l-4.86 18.72h-22.86q-7.2 0-12.06-1.98t-7.38-5.94q-2.52-3.96-2.88-9.36-.36-5.4 1.44-12.24l12.6-46.44h-17.64l5.04-18.9zM505.948 129.24h-26.28l25.38-94.86h26.28l-25.38 94.86zm28.26-105.66h-26.28l6.3-23.58h26.28l-6.3 23.58zM554.8405 34.38h51.3q3.96.18 7.74.72 3.96.36 7.56 1.26 3.6.72 6.48 2.7 2.88 1.98 5.22 5.04 1.98 2.52 2.88 5.58 1.08 2.88 1.26 6.3.18 3.42-.36 7.02-.36 3.42-1.26 7.02l-15.84 59.22h-67.32q-7.2 0-12.42-1.98t-7.92-5.94q-2.88-4.14-3.06-9.54-.18-5.58 2.16-12.78 2.7-8.46 7.2-14.04 4.5-5.58 10.62-8.1 6.12-2.52 12.78-3.78 6.84-1.26 14.4-1.26l32.94-.18q1.98-5.76 1.26-9.36-.54-3.78-3.42-5.22t-6.84-2.16q-3.96-.72-9-.72l-41.58-.18 5.22-19.62zm12.96 75.78h31.32l5.22-19.62h-29.52q-.18.18-.36.18h-1.08q-2.52.18-5.04.72-2.34.36-4.86 1.26-2.34.72-4.14 2.88-1.62 1.98-2.52 5.04-1.26 3.42-.9 5.58.54 2.16 2.52 2.7 1.98.72 4.32 1.08 2.34.36 5.04.36v-.18zM667.1183 34.38h47.16q9.18.18 16.02 1.98t11.16 5.4q4.14 3.6 4.86 10.62.9 6.84-1.8 16.92l-16.02 59.94h-25.02l15.12-57.06q1.44-4.86 1.44-8.1.18-3.42-1.08-5.22-1.26-1.62-4.32-2.52-3.06-.9-8.1-.9l-19.98-.18-19.8 73.98h-25.02l25.38-94.86zM753.448 109.44h52.74q.18.18.36.18h3.24q1.08-.18 2.34-.54 1.08-.18 2.16-.54 1.08-.36 2.16-.9 1.98-.9 3.42-2.7 1.62-1.8 2.34-4.68.72-2.52.18-4.32-.54-1.8-1.98-2.7-1.62-.9-3.42-1.44-1.8-.54-3.78-.72h-2.16l-21.42-.18q-7.74.18-13.5-.9t-9.36-3.24q-3.78-2.16-4.68-7.56-.72-5.58 1.62-14.4 2.16-8.28 5.94-14.04 3.78-5.94 9.36-9.36 5.58-3.42 12.06-5.04 6.48-1.8 14.22-1.8l54-.18-5.4 19.8h-44.28q-.18.18-.54.18h-1.26-5.22q-.72 0-1.62.18-.9.18-1.62.36l-1.8.36q-.72.18-1.62.54-1.8.72-3.06 1.98-1.08 1.08-1.98 2.7-1.8 3.24-1.8 5.4.18 2.16 1.98 3.24 1.62 1.26 3.78 1.8 2.16.54 4.86.54l22.68-.18q6.66.18 11.7 1.8 5.04 1.44 8.82 4.5 3.78 2.88 4.68 8.1 1.08 5.22-.54 12.6-.18.18-.18.36v.18q-1.62 5.76-4.68 11.16-3.06 5.22-7.74 9.9-4.5 4.68-9.9 7.02t-11.7 2.34h-64.62l5.22-19.8zM883.903 34.38h51.3q3.96.18 7.74.72 3.96.36 7.56 1.26 3.6.72 6.48 2.7 2.88 1.98 5.22 5.04 1.98 2.52 2.88 5.58 1.08 2.88 1.26 6.3.18 3.42-.36 7.02-.36 3.42-1.26 7.02l-15.84 59.22h-67.32q-7.2 0-12.42-1.98t-7.92-5.94q-2.88-4.14-3.06-9.54-.18-5.58 2.16-12.78 2.7-8.46 7.2-14.04 4.5-5.58 10.62-8.1 6.12-2.52 12.78-3.78 6.84-1.26 14.4-1.26l32.94-.18q1.98-5.76 1.26-9.36-.54-3.78-3.42-5.22t-6.84-2.16q-3.96-.72-9-.72l-41.58-.18 5.22-19.62zm12.96 75.78h31.32l5.22-19.62h-29.52q-.18.18-.36.18h-1.08q-2.52.18-5.04.72-2.34.36-4.86 1.26-2.34.72-4.14 2.88-1.62 1.98-2.52 5.04-1.26 3.42-.9 5.58.54 2.16 2.52 2.7 1.98.72 4.32 1.08 2.34.36 5.04.36v-.18zM996.1808 34.38h47.16q9.18.18 16.02 1.98t11.16 5.4q4.14 3.6 4.86 10.62.9 6.84-1.8 16.92l-16.02 59.94h-25.02l15.12-57.06q1.44-4.86 1.44-8.1.18-3.42-1.08-5.22-1.26-1.62-4.32-2.52-3.06-.9-8.1-.9l-19.98-.18-19.8 73.98h-25.02l25.38-94.86zM1166.5705 129.24h-48.06q-10.62 0-18.36-2.88-7.56-3.06-11.88-9-4.32-5.94-5.4-14.22-1.08-8.28 1.26-18.72 1.08-4.68 2.88-9.36 1.8-4.68 4.14-9.18 2.34-4.68 5.58-8.82 3.24-4.14 7.2-7.92 4.86-4.68 9.9-7.56 5.04-3.06 10.08-4.32 5.22-1.44 10.44-1.98 5.4-.72 10.98-.72l21.6-.18 9.18-34.38h25.02l-34.56 129.24zm-19.62-20.34l14.4-54q-.72.18-1.44.18H1145.3305q-.72.18-1.62.18h-1.62q-1.62 0-3.24.18-1.62 0-3.24.18-1.44.18-3.06.54-1.44.36-2.88 1.08-1.62.72-3.06 1.62l-2.52 1.8q-2.34 1.8-4.5 4.14-1.98 2.16-3.42 4.68-.72 1.26-1.26 2.52t-1.08 2.34l-1.08 2.52q-.54 1.26-.9 2.52l-.36 1.44q-.18.72-.36 1.26l-.36 1.44-.36 1.08q-2.34 9.54-1.08 15.12 1.26 5.4 5.94 6.84 4.68 1.44 10.8 2.16 6.12.72 13.32.54h.72q.54 0 1.08-.18h5.76v-.18zM87.12 200.808h-31.5l-10.26 38.16h33.12q4.86 0 9.36-.9 4.68-1.08 8.64-2.88 4.14-1.98 7.02-5.76t4.32-9.36q1.8-6.3.9-10.08-.9-3.96-4.5-5.58t-7.92-2.52q-4.14-.9-9.36-.9l.18-.18zm-52.56-23.04H93.6v.18h7.74q1.62 0 3.24.18 1.62 0 3.42.18 3.06.18 5.94.72 2.88.36 5.58 1.08 2.88.72 5.4 1.8 2.52 1.08 4.86 2.52 3.96 2.88 6.3 6.66 2.34 3.78 3.06 8.64.9 4.86.54 10.08-.36 5.04-1.62 10.26-1.26 4.86-3.42 9.54-1.98 4.68-5.04 9.18-2.88 4.5-6.84 8.28-3.78 3.6-8.64 6.66l-2.88 1.44q-1.26.72-2.7 1.44-2.7 1.26-5.58 2.16-2.7.9-5.58 1.44-4.14.72-8.46 1.26-4.14.36-8.28.54H72l-32.76-.18-12.06 45.18H0l34.56-129.24zM195.3337 177.768l-14.04 52.38h49.86l14.04-52.38h27.18l-34.56 129.24h-27.18l14.4-54h-49.86l-14.4 54h-27.18l34.56-129.24h27.18zM351.495 200.808h-31.5l-10.26 38.16h33.12q4.86 0 9.36-.9 4.68-1.08 8.64-2.88 4.14-1.98 7.02-5.76t4.32-9.36q1.8-6.3.9-10.08-.9-3.96-4.5-5.58t-7.92-2.52q-4.14-.9-9.36-.9l.18-.18zm-52.56-23.04h59.04v.18h7.74q1.62 0 3.24.18 1.62 0 3.42.18 3.06.18 5.94.72 2.88.36 5.58 1.08 2.88.72 5.4 1.8 2.52 1.08 4.86 2.52 3.96 2.88 6.3 6.66 2.34 3.78 3.06 8.64.9 4.86.54 10.08-.36 5.04-1.62 10.26-1.26 4.86-3.42 9.54-1.98 4.68-5.04 9.18-2.88 4.5-6.84 8.28-3.78 3.6-8.64 6.66l-2.88 1.44q-1.26.72-2.7 1.44-2.7 1.26-5.58 2.16-2.7.9-5.58 1.44-4.14.72-8.46 1.26-4.14.36-8.28.54h-8.64l-32.76-.18-12.06 45.18h-27.18l34.56-129.24z"/>
    <path style="line-height:125%;-inkscape-font-specification:'Handel Gothic Italic, Italic'" d="M464.8495 177.768h34.38l28.08 92.88 23.58-92.88h27.72l-34.56 129.24h-31.5l-29.52-97.74-24.84 97.74h-27.9l34.56-129.24zM650.8514 295.668q-4.5 3.42-9.18 5.94-4.68 2.52-10.08 4.14-3.42 1.08-6.84 1.62-3.42.72-6.84 1.08-1.8.18-3.42.18-1.62.18-3.42.18-5.04 0-9.9-.9-4.86-.72-9.18-2.16-4.32-1.62-7.74-3.96-3.42-2.52-5.94-5.94-2.52-3.42-4.14-7.38-1.62-4.14-2.16-9-.36-4.68.18-9.54.54-5.04 1.8-10.08 1.44-5.04 3.42-9.9 2.16-4.86 5.22-9.72 3.06-4.68 6.66-8.82 3.78-4.14 8.28-7.56 4.32-3.24 9-5.76 4.86-2.52 10.08-4.14 5.22-1.62 10.44-2.52 5.4-.9 10.44-.9 5.04 0 9.54.9 4.68.9 9.18 2.52t7.92 4.14q3.42 2.52 5.94 5.76 2.52 3.42 3.96 7.56 1.62 4.14 2.16 8.82.36 4.86 0 9.72-.18 4.86-1.62 9.9-1.26 5.04-3.6 10.08-2.34 4.86-5.4 9.54-2.88 4.86-6.66 9-3.6 3.96-8.1 7.38v-.18zm-42.3-8.82q.36.18.9.54l1.08.36 1.08.36q.54.18 1.08.18 4.14.72 8.46 0 4.32-.9 8.64-3.24 4.32-2.16 7.74-5.4 3.42-3.42 5.94-7.74.9-1.44 1.44-3.06.72-1.62 1.44-3.42.9-1.8 1.44-3.6l1.08-3.6q.9-3.96.9-7.74 0-3.78-.72-7.2-.72-3.6-2.7-6.12-1.98-2.7-5.4-4.32-.72-.36-1.62-.54-.72-.36-1.44-.54-.9-.18-1.8-.18-.72-.18-1.62-.36-1.98-.18-4.14 0-1.98.18-3.96.72-2.16.36-4.32 1.26-1.98.72-3.96 1.8-4.32 2.34-7.56 5.4-3.24 3.06-5.58 7.2l-1.8 3.24-1.44 3.24q-.72 1.62-1.08 3.24l-.72 3.24q-1.26 4.32-1.44 8.28 0 3.96.9 7.74.9 3.78 3.06 6.48 2.34 2.52 5.94 3.96l.18-.18zM702.759 212.148h42.12q10.08.18 15.3 2.52 5.4 2.16 5.76 6.84.36 4.5-.72 10.8-.9 6.12-2.88 13.86l-.36 1.44-.36 1.44-.36.72v.72q-.18.54-.36.9 0 .36-.18.72l-23.94-.18q.18-.36.18-.9l.36-1.08q.18-.36.18-.54.18-.18.18-.54v-.18-.36q.18-.18.18-.36 1.8-6.48 2.34-10.26.54-3.96-.36-5.04-.72-1.08-4.32-1.62-3.6-.54-10.08-.54H722.739l-20.34 76.5h-25.02l25.38-94.86zM846.5255 242.208l-37.08 64.8h-27.72l-7.56-94.86h26.1l3.06 66.42 38.52-66.42h26.64l3.24 66.42 38.7-66.42h25.74l-57.42 94.86h-28.8l-3.42-64.8zM946.2623 212.148h51.3q3.96.18 7.74.72 3.96.36 7.56 1.26 3.6.72 6.48 2.7 2.88 1.98 5.22 5.04 1.98 2.52 2.88 5.58 1.08 2.88 1.26 6.3.18 3.42-.36 7.02-.36 3.42-1.26 7.02l-15.84 59.22h-67.32q-7.2 0-12.42-1.98t-7.92-5.94q-2.88-4.14-3.06-9.54-.18-5.58 2.16-12.78 2.7-8.46 7.2-14.04 4.5-5.58 10.62-8.1 6.12-2.52 12.78-3.78 6.84-1.26 14.4-1.26l32.94-.18q1.98-5.76 1.26-9.36-.54-3.78-3.42-5.22t-6.84-2.16q-3.96-.72-9-.72l-41.58-.18 5.22-19.62zm12.96 75.78h31.32l5.22-19.62h-29.52q-.18.18-.36.18h-1.08q-2.52.18-5.04.72-2.34.36-4.86 1.26-2.34.72-4.14 2.88-1.62 1.98-2.52 5.04-1.26 3.42-.9 5.58.54 2.16 2.52 2.7 1.98.72 4.32 1.08 2.34.36 5.04.36v-.18zM1079.4202 286.128h20.16l19.8-73.98h25.02l-24.84 92.34q-2.34 8.82-6.3 15.66-3.96 7.02-9.36 11.52-5.58 4.68-12.96 7.02-7.38 2.34-16.74 2.34l-49.14.18 5.04-19.26h44.82q3.96-.36 7.02-1.26 3.06-.9 5.4-2.7 2.52-1.8 3.96-4.68 1.62-2.7 2.7-6.3h-22.14q-9.72 0-16.56-1.8-6.84-1.98-10.8-5.94-3.96-3.78-4.68-10.8-.54-7.2 2.16-17.64l15.84-58.68h24.84l-15.12 56.52q-1.44 5.22-1.8 8.82-.18 3.42 1.08 5.22 1.08 1.8 4.14 2.7 3.24.9 8.28.9l.18-.18z" fill="#3488b7"/>
  </g>
</svg>

