<?xml version="1.0" encoding="UTF-8" standalone="no"?>
<svg
   xmlns:dc="http://purl.org/dc/elements/1.1/"
   xmlns:cc="http://creativecommons.org/ns#"
   xmlns:rdf="http://www.w3.org/1999/02/22-rdf-syntax-ns#"
   xmlns:svg="http://www.w3.org/2000/svg"
   xmlns="http://www.w3.org/2000/svg"
   version="1.1"
   id="svg2"
   viewBox="0 0 342.30925 368.84228"
   height="104.09549mm"
   width="96.607277mm">
  <defs
     id="defs4" />
  <metadata
     id="metadata7">
    <rdf:RDF>
      <cc:Work
         rdf:about="">
        <dc:format>image/svg+xml</dc:format>
        <dc:type
           rdf:resource="http://purl.org/dc/dcmitype/StillImage" />
        <dc:title></dc:title>
      </cc:Work>
    </rdf:RDF>
  </metadata>
  <g
     transform="translate(-149.10468,-91.268778)"
     id="layer1">
    <path
       id="path4735"
       transform="translate(90.768745,53.905983)"
       d="m 228.88086,37.363281 c -2.4017,0.0361 -4.32057,2.01038 -4.28711,4.41211 l 0,23.986328 8.70313,1.128906 0,-25.115234 c 0.0341,-2.45236 -1.96366,-4.44834 -4.41602,-4.41211 z M 104.68555,168.60547 c -0.84439,0.0186 -1.72858,0.12181 -2.6543,0.30469 -8.07034,1.59431 -6.481485,18.22794 2.42969,15.39257 3.6455,8.50613 -8.016058,42.20591 -12.759768,58.22461 -5.05148,17.05794 -9.112836,38.78715 -8.302734,56.00196 0.672895,14.29884 7.651288,33.41593 21.894532,42.14453 l -2.89844,1.41992 -18.382811,3.9375 -25.675781,12.57422 5.714843,11.66992 25.675781,-12.57422 14.382818,-12.10547 5.50195,-2.69336 c 1.08388,0.45568 2.20063,0.85849 3.35547,1.19532 1.23234,0.35943 6.49832,1.59562 13.41211,3.18945 l -0.49805,0.24414 -19.72852,4.22656 c -0.0749,0.0367 -27.552731,13.49219 -27.552731,13.49219 0.0332,0.0679 6.132813,12.52344 6.132813,12.52344 l 27.552738,-13.49219 c 0.0181,-0.0152 15.43554,-12.99219 15.43554,-12.99219 0.003,-0.001 4.60586,-2.25575 5.14453,-2.51953 6.04016,1.37935 12.78305,2.90815 20.73829,4.69727 -0.0294,0.0144 -1.21875,0.5957 -1.21875,0.5957 -0.0713,0.0153 -21.07422,4.51367 -21.07422,4.51367 -0.05,0.0245 -29.42969,14.41211 -29.42969,14.41211 0.0221,0.0452 6.55078,13.37891 6.55078,13.37891 l 29.42969,-14.41211 0,-0.002 c 0.0362,-0.0304 16.48828,-13.87695 16.48828,-13.87695 l 6.21875,-3.04492 c 7.73395,1.73415 15.65526,3.50144 24.16602,5.39453 -0.13259,0.0649 -2.68555,1.31445 -2.68555,1.31445 -0.0356,0.008 -22.41797,4.80274 -22.41797,4.80274 -0.025,0.0122 -31.30859,15.33203 -31.30859,15.33203 0.0111,0.0226 6.96679,14.23047 6.96679,14.23047 l 31.31055,-15.33203 17.53906,-14.76367 c 0.0124,-0.006 6.89591,-3.37664 8.0293,-3.93165 8.42487,1.87006 16.60236,3.67763 24.98633,5.5254 l -4.44532,2.17578 -23.76171,5.08984 -33.1875,16.25195 7.38671,15.08399 33.1875,-16.25196 18.58985,-15.64843 10.13086,-4.96094 c 33.52835,7.3714 62.86464,13.70869 67.55469,14.44922 6.81341,1.07582 60.77721,17.45401 84.45312,2.02539 20.16611,-13.14141 29.64686,-52.54351 19.44336,-98.02344 -6.78569,-30.24582 -35.23991,-66.02369 -36.45508,-70.07422 -1.21516,-4.05054 2.02398,-8.91137 4.85938,-9.3164 1.41767,-0.20253 9.72226,0.80869 16.86132,3.49218 l 9.26563,-1.87304 -1.41797,-8.91016 c 0,0 -17.63539,-2.02539 -28.75781,-2.02539 -10.32887,0 -2.22894,-7.49469 6.88476,-7.69727 3.26485,-0.0726 20.65821,0.81055 20.65821,0.81055 l -1.82227,-12.96094 -8.70898,-0.20312 -15.79688,4.6582 -1.62109,-4.45508 c 0,0 -17.5131,3.82025 -27.94922,7.49219 -10.93643,3.848 -10.3491,28.05798 -2.63281,44.75977 5.90502,12.78137 25.48439,35.68429 19.64648,51.8457 -4.57447,12.66375 -23.89055,16.32857 -33.21484,15.39258 -16.19245,-1.62543 -49.35606,-6.07807 -83.00781,-10.80078 l 0,-19.98047 -8.70313,0.41797 0,18.33593 c -43.72942,-6.18312 -85.90072,-12.46508 -90.1582,-13.28906 -13.42435,-2.59809 -18.10847,-21.04439 -17.33985,-38.46094 0.72251,-16.37138 1.80657,-35.42371 -0.83789,-51.65039 -1.75272,-10.75492 -5.66155,-14.82733 -11.57226,-14.69726 z"
       style="color:#000000;font-style:normal;font-variant:normal;font-weight:normal;font-stretch:normal;font-size:medium;line-height:normal;font-family:sans-serif;text-indent:0;text-align:start;text-decoration:none;text-decoration-line:none;text-decoration-style:solid;text-decoration-color:#000000;letter-spacing:normal;word-spacing:normal;text-transform:none;direction:ltr;block-progression:tb;writing-mode:lr-tb;baseline-shift:baseline;text-anchor:start;white-space:normal;clip-rule:nonzero;display:inline;overflow:visible;visibility:visible;opacity:1;isolation:auto;mix-blend-mode:normal;color-interpolation:sRGB;color-interpolation-filters:linearRGB;solid-color:#000000;solid-opacity:1;fill:#000000;fill-opacity:1;fill-rule:evenodd;stroke:none;stroke-width:9.19999981;stroke-linecap:round;stroke-linejoin:miter;stroke-miterlimit:4;stroke-dasharray:none;stroke-dashoffset:0;stroke-opacity:1;color-rendering:auto;image-rendering:auto;shape-rendering:auto;text-rendering:auto;enable-background:accumulate" />
    <path
       style="color:#000000;clip-rule:nonzero;overflow:visible;visibility:visible;opacity:1;isolation:auto;mix-blend-mode:normal;color-interpolation:sRGB;color-interpolation-filters:linearRGB;solid-color:#000000;solid-opacity:1;fill:#000000;fill-opacity:1;fill-rule:nonzero;stroke:none;stroke-width:34.90000153;stroke-linecap:round;stroke-linejoin:bevel;stroke-miterlimit:4;stroke-dasharray:none;stroke-dashoffset:0;stroke-opacity:1;color-rendering:auto;image-rendering:auto;shape-rendering:auto;text-rendering:auto;enable-background:accumulate"
       d="m 370.73131,131.623 c 10.92791,30.64338 17.72979,62.42126 19.25873,93.43895 1.51292,30.69291 -2.07461,60.95654 -9.36104,89.34935 l 22.3897,-1.07228 c 6.58447,-25.90908 10.0921,-53.40065 9.43587,-81.31642 l 17.09082,0.578 c 1.39761,0.0473 2.79125,0.0944 4.18084,0.14138 3.09384,0.10466 5.74062,-2.17209 7.01224,-5.65286 0.6151,-1.68371 0.90897,-3.64863 0.78105,-5.76864 -1.42298,-23.58132 -5.83211,-47.50903 -12.6975,-70.86073 -1.92756,-6.55636 -7.53151,-12.27424 -12.34999,-12.89968 -18.77605,-2.95237 -32.79142,-4.25629 -45.74072,-5.9371 l 0,0 m 27.36218,15.20493 c 3.00988,0.35573 6.00176,0.70937 8.97581,1.06088 7.24614,23.89515 11.9263,48.36425 13.48641,72.46769 -2.86452,-0.13171 -5.74581,-0.26439 -8.64397,-0.39749 -1.61802,-24.3188 -6.41212,-49.0114 -13.81825,-73.13108 l 0,0 m -99.02724,-24.507 c 12.79002,32.88426 20.8672,66.89303 22.92358,100.02468 2.03325,32.75914 -1.74236,65.04249 -9.7482,95.34097 8.61773,-0.41274 17.10026,-0.81899 25.45072,-1.21891 7.21674,-27.60767 10.92478,-56.89144 9.90403,-86.63851 3.28066,0.11078 6.54096,0.22124 9.78111,0.33077 0.96326,29.47092 -2.7148,58.48447 -9.8346,85.83595 l 23.84671,-1.14206 c 7.38192,-28.65026 10.99525,-59.18678 9.41511,-90.15881 -1.59705,-31.30299 -8.56504,-63.38153 -19.73577,-94.32618 -8.19137,-1.06322 -16.51265,-2.14333 -24.967,-3.24069 11.03975,29.65516 18.22763,60.28456 20.57021,90.29071 -3.25013,-0.14942 -6.52055,-0.29982 -9.81145,-0.45118 -2.42698,-30.29242 -9.79244,-61.22242 -21.08416,-91.17975 l -26.71029,-3.46699 0,0 M 216.6979,111.6296 c 15.10433,35.47735 24.77018,72.05355 27.49595,107.60832 2.69277,35.12362 -1.28988,69.71564 -10.1539,102.1939 l 29.1853,-1.39777 c 7.96758,-29.54457 11.89973,-60.87049 10.4153,-92.70607 l 22.168,0.74971 c 1.80808,0.0612 3.61024,0.12206 5.40657,0.18292 3.99672,0.13526 7.36143,-2.43902 8.92502,-6.38831 0.75622,-1.91004 1.09214,-4.14167 0.88095,-6.55259 -2.35076,-26.83673 -8.57081,-54.14808 -17.97351,-80.9073 -2.64482,-7.5269 -10.04602,-14.17658 -16.32343,-14.99138 -18.24235,-2.60156 -42.42753,-5.61218 -60.02625,-7.79133 l 0,0 m 36.27303,18.04597 11.74303,1.38794 c 9.98038,27.47486 16.614,55.49368 19.17985,83.00867 -3.71922,-0.17101 -7.46326,-0.34321 -11.23243,-0.51653 -2.65712,-27.796 -9.46576,-56.10814 -19.69045,-83.88008 l 0,0"
       id="path4739" />
  </g>
</svg>
