<?xml version="1.0" encoding="utf-8"?>
<!-- Generator: Adobe Illustrator 16.0.3, SVG Export Plug-In . SVG Version: 6.00 Build 0)  -->
<!DOCTYPE svg PUBLIC "-//W3C//DTD SVG 1.1//EN" "http://www.w3.org/Graphics/SVG/1.1/DTD/svg11.dtd">
<svg version="1.1" id="Layer_1" xmlns="http://www.w3.org/2000/svg" xmlns:xlink="http://www.w3.org/1999/xlink" x="0px" y="0px"
	 width="600px" height="300px" viewBox="0 0 600 300" enable-background="new 0 0 600 300" xml:space="preserve">
<circle fill="none" stroke="#6C7EB7" stroke-miterlimit="10" cx="141.458" cy="149.051" r="118.571"/>
<g>
	<path fill="#6C7EB7" d="M131.617,146.957c-0.089,0.071-0.119,0.199-0.066,0.303c0.202,0.418,4.512,9.229,8.216,11.423
		l-0.057,13.432c-0.236,0.009-0.471,0.009-0.699,0.019c-0.739,0.046-1.462,0.099-2.17,0.143c-1.396,0.143-2.71,0.311-3.848,0.477
		c-1.13,0.188-2.091,0.356-2.774,0.492c-0.707,0.146-1.105,0.235-1.105,0.235c-0.284,0.061-0.564,0.188-0.808,0.372
		c-0.898,0.681-1.073,1.961-0.396,2.856c0.683,0.899,1.963,1.074,2.861,0.398l0.013-0.014c0,0,0.072-0.054,0.213-0.163
		c0.117-0.08,0.275-0.222,0.518-0.376c0.501-0.325,1.253-0.752,2.216-1.153c0.487-0.188,1.009-0.425,1.586-0.582
		c0.573-0.156,1.185-0.365,1.829-0.475c0.647-0.103,1.313-0.264,2.002-0.322c0.681-0.04,1.366-0.081,2.055-0.121
		c0.726,0.05,1.444,0.095,2.154,0.139c0.698,0.061,1.334,0.233,1.973,0.336c0.633,0.114,1.244,0.332,1.819,0.488
		c0.575,0.172,1.097,0.412,1.577,0.604c0.962,0.403,1.714,0.839,2.216,1.169c0.503,0.34,0.702,0.539,0.689,0.527
		c0.985,0.488,2.178,0.086,2.666-0.897c0.488-0.987,0.085-2.176-0.902-2.666c0,0-0.114-0.036-0.327-0.087
		c-0.188-0.043-0.461-0.102-0.811-0.175c-0.68-0.137-1.639-0.316-2.766-0.513c-1.142-0.179-2.438-0.36-3.855-0.51
		c-0.717-0.055-1.444-0.114-2.19-0.167c-0.114-0.004-0.224-0.013-0.332-0.013l0.054-13.66c3.653-2.471,7.784-10.721,7.981-11.13
		c0.051-0.105,0.022-0.229-0.067-0.305c-2.183-1.78-4.959-2.888-8.017-3.208C138.827,143.394,134.652,144.531,131.617,146.957z"/>
	<path fill="#6C7EB7" d="M130.658,126.715c-0.013,0.27-0.076,0.538-0.141,0.825c-0.039,0.145-0.069,0.291-0.092,0.414l-0.054,0.194
		c-0.107,0.36-0.21,0.698-0.338,1.016l-0.06,0.153c-0.139,0.342-0.273,0.66-0.435,0.967c-0.134,0.286-0.287,0.548-0.432,0.801
		l-0.087,0.152c-0.412,0.677-0.761,1.133-0.931,1.356c-0.123,0.154-0.214,0.266-0.274,0.332l-0.131,0.152
		c-0.338,0.385-0.322,0.976,0.029,1.338c0.162,0.171,0.38,0.282,0.618,0.305c0.288,0.028,0.575-0.069,0.792-0.271l0.134-0.133
		c0.094-0.094,0.231-0.226,0.381-0.389c0.372-0.39,0.801-0.915,1.213-1.474l0.099-0.147c0.193-0.266,0.407-0.577,0.6-0.899
		c0.237-0.368,0.439-0.764,0.653-1.182l0.04-0.077c0.225-0.438,0.401-0.908,0.614-1.446c0.044-0.155,0.094-0.313,0.145-0.47
		c0.112-0.352,0.235-0.712,0.285-1.083l0.161-0.813c0.021-0.177,0.034-0.351,0.048-0.525l0.024-0.301
		c0.004-0.089,0.009-0.179,0.019-0.268c0.017-0.178,0.035-0.362,0.02-0.549c-0.017-0.253-0.02-0.499-0.039-0.77
		c0-0.445-0.085-0.854-0.161-1.245l-0.094-0.466c-0.027-0.175-0.063-0.344-0.112-0.509c-0.07-0.21-0.142-0.416-0.207-0.615
		c-0.046-0.125-0.089-0.248-0.127-0.366c-0.086-0.258-0.163-0.503-0.274-0.708l-0.723-1.439c-0.022-0.045-0.047-0.087-0.065-0.112
		c-0.069-0.12-0.162-0.232-0.244-0.304c-0.837-1.174-2.736-2.02-5.078-2.262c-0.422-0.046-0.86-0.068-1.298-0.071
		c-0.332-0.003-0.685,0.014-1.084,0.045l-7.394-0.031l-0.011,0.236c-0.005,0.072-0.059,1.716,2.104,4.666l0.142,0.179l0.011-0.004
		c0.902,1.065,2.716,1.826,4.91,2.055c0.422,0.047,0.859,0.072,1.295,0.072c0.801,0.004,1.594-0.067,2.358-0.207v0.01l0.333-0.074
		c0,0,0.425-0.094,0.945-0.04c0.906,0.091,1.531,0.539,1.84,1.266c0.018,0.07,0.029,0.145,0.036,0.238
		c0.023,0.137,0.04,0.273,0.063,0.41l0.028,0.205c0.02,0.112,0.018,0.223,0.018,0.338c-0.004,0.088-0.004,0.173,0.002,0.24v0.247
		c0.003,0.129,0.004,0.262,0,0.376L130.658,126.715z"/>
	<path fill="#6C7EB7" d="M150.959,125.597l0.012,0.201c0.014,0.206,0.027,0.407,0.054,0.634l0.142,0.781
		c0.055,0.387,0.171,0.755,0.288,1.11c0.048,0.152,0.089,0.305,0.147,0.508c0.184,0.471,0.372,0.956,0.589,1.401l0.029,0.056
		c0.215,0.429,0.421,0.831,0.649,1.194c0.193,0.338,0.399,0.634,0.598,0.919l0.1,0.15c0.395,0.548,0.818,1.077,1.196,1.479
		c0.157,0.166,0.288,0.303,0.385,0.398c0.084,0.081,0.134,0.13,0.134,0.13c0.156,0.154,0.369,0.251,0.586,0.275
		c0.273,0.026,0.55-0.06,0.756-0.235c0.412-0.36,0.459-0.988,0.085-1.428l-0.109-0.132c-0.065-0.069-0.154-0.178-0.273-0.334
		c-0.164-0.211-0.501-0.672-0.911-1.356l-0.089-0.152c-0.145-0.255-0.296-0.52-0.437-0.821c-0.154-0.298-0.289-0.627-0.432-0.979
		l-0.047-0.127c-0.128-0.32-0.225-0.653-0.33-1.015l-0.051-0.18c-0.023-0.145-0.056-0.293-0.089-0.438
		c-0.06-0.287-0.122-0.556-0.132-0.845l-0.067-0.636c-0.009-0.132,0-0.262,0-0.392l0.004-0.228c0.007-0.086,0.007-0.173,0.007-0.256
		c0-0.119,0-0.233,0.024-0.396c0.034-0.192,0.059-0.376,0.09-0.581c0.009-0.077,0.026-0.151,0.018-0.167
		c0.564-1.301,1.836-1.371,2.538-1.296c0.171,0.019,0.268,0.043,0.28,0.043l1.395,0.319l-0.18-0.114
		c0.477,0.062,0.981,0.09,1.478,0.093c2.709,0.011,5.113-0.793,6.219-2.068l0.014,0.009l0.141-0.184
		c2.187-2.931,2.147-4.58,2.143-4.647l-0.004-0.237l-7.4-0.031c-0.379-0.036-0.738-0.049-1.079-0.054
		c-2.879-0.009-5.392,0.884-6.367,2.245c-0.148,0.137-0.262,0.28-0.341,0.441l-0.734,1.433c-0.116,0.208-0.197,0.452-0.279,0.704
		c-0.043,0.122-0.085,0.245-0.137,0.379l-0.215,0.614c-0.049,0.151-0.081,0.313-0.112,0.483l-0.101,0.487
		c-0.078,0.395-0.163,0.799-0.17,1.231l-0.046,0.774c-0.014,0.197,0,0.385,0.017,0.568
		C150.947,125.422,150.956,125.502,150.959,125.597z"/>
	<path fill="#6C7EB7" d="M215.803,81.546c-4.153-5.049-8.455-8.561-11.652-10.786c0,0,8.717,2.357,8.905,2.096
		c0.182-0.265-47.174-24.26-55.455-25.045c1.182-0.896,8.888-4.915,8.812-5.266c-0.074-0.347-22.006,4.504-24.441,5.973
		c-2.418-1.489-33.149-6.501-33.225-6.153c-0.072,0.346,7.606,4.437,8.77,5.336c-8.284,0.71-49.956,25.755-49.776,26.02
		c0.183,0.267,8.918-2.02,8.918-2.02c-3.214,2.193-4.605,4.2-8.797,9.214c-7.341,8.775-12.559,58.101-12.221,58.144
		c0.325,0.024,4.681-9.926,4.681-9.926c-0.524,14.853,34.635,78.486,34.89,78.356c0.255-0.135,0.291-7.119,0.291-7.119
		c3.232,6.837,10.866,13.114,18.835,19.669c10.255,8.435,20.864,15.688,24.6,26.885c0.916,2.741,1.649,9.107,2.035,9.141
		c0.022,0.002,0.047,0.005,0.069,0.002c0.415,0.003,1.202-6.147,2.062-8.762c3.725-11.332,14.542-18.592,24.996-27.032
		c8.037-6.488,20.152-17.124,23.442-23.936c0,0-0.017,6.993,0.237,7.124c0.26,0.136,31.632-69.079,31.233-83.935
		c0,0,4.253,10.006,4.593,9.964C227.943,129.446,223.064,90.389,215.803,81.546z M90.516,95.494l0.094,6.79
		c-6.952-7.014-9.782-15.487-6.313-18.926c3.47-3.437,11.569-0.666,17.716,5.718C102.013,89.078,92.703,90.084,90.516,95.494z
		 M164.891,148.088l15.305,16.948c-0.079,17.819,2.043,27.214-38.363,27.042l-0.009-0.005c-21.938-0.091-31.309-2.905-35.282-8.301
		c-0.611-0.832-1.108-1.719-1.489-2.668c-1.71-4.26-1.386-9.738-1.357-16.393l15.447-16.814c0,0-20.657-14.161-20.517-46.043
		c0,0,19.549-8.816,43.628-8.713c24.071,0.104,43.551,9.084,43.551,9.084C185.661,134.107,164.891,148.088,164.891,148.088z
		 M192.564,102.221l1.052-5.202c-2.143-5.428-12.334-8.102-12.334-8.102c6.196-6.331,14.323-9.027,17.761-5.565
		C202.477,86.822,199.58,95.271,192.564,102.221z"/>
</g>
<circle fill="none" stroke="#6C7EB7" stroke-width="5" stroke-miterlimit="10" cx="141.958" cy="149.52" r="124.5"/>
<path fill="none" d="M438.724,86h-24.106l5.358-28h-25.446l-21.426,108h25.443l12.053-60h20.088c9.376,0,9.376,3.886,8.036,10.582
	L429.35,166h26.784l9.374-54.731C468.186,97.877,460.15,87,438.724,86z"/>
<path fill="none" d="M348.997,85h-49.551L278.02,194h25.445l5.355-28h24.106c22.767,1,48.211-17.733,48.211-49.875
	C381.138,97.377,370.424,87,348.997,85z M330.249,147h-16.071l6.696-41h17.41c9.373,0,16.07,4.43,16.07,12.467
	C353.016,141.232,342.302,145,330.249,147z"/>
<path fill="none" d="M528.449,85h-49.55l-21.427,109h25.445l5.355-28h24.105c22.768,1,48.212-17.733,48.212-49.875
	C560.591,97.377,549.877,87,528.449,85z M509.701,147h-16.07l6.695-41h17.41c9.375,0,16.07,4.43,16.07,12.467
	C532.467,141.232,521.754,145,509.701,147z"/>
<path fill="none" d="M430.688,106c9.376,0,9.376,3.886,8.036,10.582L429.35,166h26.784l9.374-54.731
	C468.186,97.877,460.15,87,438.724,86h-24.106l5.358-28h-25.446l-21.426,108h25.443l12.053-60H430.688z"/>
<path fill="none" d="M381.138,116.125c0-18.748-10.714-29.125-32.141-31.125h-49.551L278.02,194h25.445l5.355-28h24.106
	C355.693,167,381.138,148.267,381.138,116.125z"/>
<path fill="none" d="M528.449,85h-49.55l-21.427,109h25.445l5.355-28h24.105c22.768,1,48.212-17.733,48.212-49.875
	C560.591,97.377,549.877,87,528.449,85z"/>
<path fill="#6C7EB7" d="M206.442,43c35.977,21.826,60.016,61.365,60.016,106.52c0,45.829-24.767,85.868-61.643,107.48H586V43
	H206.442z M305.07,232h-4.192l1.471-11.747c0.021-0.17,0.059-0.272,0.113-0.466c0.053-0.191,0.09-0.269,0.111-0.312l-9.088,11.124
	c-0.085-0.129-0.299-0.471-0.64-1.047c-0.341-0.576-0.752-1.254-1.232-2.043s-0.987-1.635-1.52-2.541
	c-0.534-0.906-1.035-1.748-1.504-2.527c-0.47-0.778-0.864-1.44-1.184-1.983c-0.32-0.545-0.501-0.858-0.544-0.943
	c-0.021,0.043-0.016,0.159,0.016,0.352c0.032,0.192,0.026,0.217-0.016,0.387L285.422,232h-3.936l2.976-24.194
	c0.085,0.148,0.282,0.563,0.592,1.087c0.309,0.523,0.688,1.201,1.136,1.959c0.448,0.758,0.949,1.614,1.504,2.531
	c0.554,0.918,1.12,1.861,1.696,2.811s1.141,1.882,1.696,2.788c0.554,0.907,1.056,1.735,1.504,2.483
	c0.448,0.746,0.821,1.372,1.12,1.872c0.299,0.502,0.491,0.816,0.576,0.944c0.042-0.063,0.261-0.335,0.656-0.814
	c0.395-0.48,0.901-1.083,1.52-1.809c0.618-0.725,1.317-1.552,2.096-2.48c0.779-0.928,1.573-1.871,2.384-2.831
	c0.811-0.96,1.616-1.909,2.416-2.849c0.8-0.938,1.524-1.791,2.176-2.56c0.65-0.769,1.2-1.419,1.647-1.952
	c0.449-0.533,0.736-1.032,0.865-1.181L305.07,232z M303.465,194H278.02l21.427-109h49.551c21.427,2,32.141,12.377,32.141,31.125
	c0,32.142-25.444,50.875-48.211,49.875H308.82L303.465,194z M324.334,232h-3.104l0.128-0.739c0.021-0.105,0.032-0.128,0.032-0.226
	c0-0.096,0.01-0.125,0.031-0.168c-0.085,0.107-0.244,0.281-0.479,0.484c-0.235,0.202-0.544,0.409-0.928,0.602
	c-0.384,0.191-0.837,0.361-1.36,0.501c-0.522,0.139-1.115,0.21-1.775,0.21c-0.961,0-1.836-0.169-2.625-0.511
	c-0.789-0.341-1.461-0.8-2.016-1.376c-0.555-0.575-0.98-1.241-1.279-1.999c-0.299-0.757-0.448-1.563-0.448-2.416
	c0-1.066,0.224-2.08,0.672-3.04s1.05-1.808,1.808-2.544c0.758-0.735,1.621-1.322,2.592-1.76c0.971-0.437,1.979-0.656,3.024-0.656
	c0.64,0,1.205,0.08,1.696,0.24c0.49,0.16,0.906,0.347,1.248,0.56c0.341,0.214,0.607,0.432,0.8,0.656s0.31,0.543,0.353,0.671
	l0.352-1.489h2.943L324.334,232z M332.719,232h-3.04l3.071-25h3.041L332.719,232z M351.79,232h-3.104l0.129-0.739
	c0.021-0.105,0.031-0.128,0.031-0.226c0-0.096,0.011-0.125,0.032-0.168c-0.085,0.107-0.245,0.281-0.479,0.484
	c-0.235,0.202-0.545,0.409-0.928,0.602c-0.385,0.191-0.838,0.361-1.36,0.501c-0.522,0.139-1.115,0.21-1.776,0.21
	c-0.96,0-1.835-0.169-2.624-0.511c-0.789-0.341-1.462-0.8-2.016-1.376c-0.556-0.575-0.981-1.241-1.28-1.999
	c-0.299-0.757-0.447-1.563-0.447-2.416c0-1.066,0.223-2.08,0.672-3.04c0.447-0.96,1.05-1.808,1.808-2.544
	c0.757-0.735,1.621-1.322,2.592-1.76c0.971-0.437,1.979-0.656,3.024-0.656c0.64,0,1.205,0.08,1.695,0.24s0.906,0.347,1.248,0.56
	c0.342,0.214,0.608,0.432,0.801,0.656c0.191,0.225,0.309,0.543,0.352,0.671L350.51,219h2.944L351.79,232z M371.374,222.302
	L370.158,232h-3.04l1.024-8.259c0.042-0.661-0.117-1.153-0.48-1.634c-0.363-0.479-0.992-0.701-1.888-0.744
	c-0.619,0-1.206,0.132-1.761,0.355c-0.555,0.225-1.039,0.538-1.455,0.922c-0.416,0.385-0.764,0.849-1.041,1.381
	c-0.277,0.534-0.447,0.955-0.512,1.572l-0.8,6.406h-3.071l1.664-13h2.719c-0.043,0-0.068,0.582-0.08,0.881
	c-0.01,0.299-0.021,0.511-0.031,0.776c-0.012,0.268-0.021,0.493-0.032,0.749s-0.026,0.516-0.048,0.814
	c0.641-1.152,1.456-2.089,2.448-2.794c0.991-0.703,2.159-1.06,3.504-1.06c1.386,0,2.442,0.298,3.168,1.055
	C371.172,220.18,371.48,221.085,371.374,222.302z M389.198,231.753c-0.149,1.152-0.459,2.109-0.929,3.017
	c-0.469,0.907-1.066,1.629-1.791,2.236c-0.727,0.607-1.563,1.055-2.512,1.374c-0.95,0.32-1.969,0.471-3.057,0.471
	c-0.832,0-1.552-0.089-2.16-0.26c-0.607-0.17-1.146-0.397-1.615-0.675c-0.471-0.277-0.892-0.587-1.265-0.929
	c-0.374-0.342-0.731-0.684-1.071-1.023l2.207-2.081c0.555,0.555,1.146,1.029,1.776,1.424c0.629,0.395,1.444,0.592,2.448,0.592
	c1.301,0,2.384-0.32,3.248-0.96c0.863-0.64,1.381-1.547,1.552-2.72c0.021-0.107,0.032-0.229,0.032-0.368s0.021-0.282,0.063-0.433
	c0.128-0.361,0.214-0.66,0.257-0.896c-0.215,0.214-0.471,0.448-0.769,0.704c-0.3,0.256-0.651,0.49-1.056,0.704
	c-0.406,0.214-0.859,0.389-1.36,0.528c-0.501,0.139-1.072,0.207-1.712,0.207c-0.939,0-1.787-0.16-2.544-0.479
	c-0.758-0.32-1.408-0.763-1.952-1.328s-0.96-1.231-1.248-2s-0.432-1.601-0.432-2.496c0-1.13,0.219-2.181,0.656-3.151
	c0.437-0.971,1.018-1.818,1.743-2.545c0.726-0.725,1.563-1.29,2.513-1.695c0.949-0.405,1.936-0.608,2.959-0.608
	c0.726,0,1.355,0.097,1.889,0.288s0.977,0.406,1.328,0.641s0.613,0.459,0.783,0.672c0.171,0.213,0.268,0.341,0.289,0.384
	c0.042-0.235,0.101-0.349,0.176-0.626c0.074-0.277,0.133-0.721,0.176-0.721h2.943L389.198,231.753z M373.104,166l21.426-108h25.446
	l-5.358,28h24.106c21.427,1,29.462,11.877,26.784,25.269L456.134,166H429.35l9.374-49.418c1.34-6.696,1.34-10.582-8.036-10.582
	H410.6l-12.053,60H373.104z M421.07,224.949c-0.172,1.236-0.512,2.264-1.024,3.234c-0.512,0.972-1.151,1.749-1.92,2.41
	s-1.638,1.143-2.608,1.484c-0.971,0.341-2,0.502-3.088,0.502s-2.08-0.176-2.976-0.517c-0.896-0.342-1.647-0.845-2.257-1.507
	c-0.607-0.66-1.045-1.478-1.312-2.449c-0.267-0.971-0.325-1.921-0.176-3.157l1.856-14.95h1.312l-1.823,14.854
	c-0.129,1.023-0.086,1.869,0.127,2.69s0.565,1.481,1.057,2.058c0.49,0.576,1.109,0.994,1.855,1.293s1.578,0.438,2.496,0.438
	c0.896,0,1.749-0.153,2.561-0.452c0.811-0.299,1.535-0.739,2.176-1.315c0.64-0.576,1.168-1.275,1.584-2.097s0.688-1.59,0.816-2.614
	L421.582,210h1.313L421.07,224.949z M433.182,221.594c-0.16,0.172-0.262,0.278-0.304,0.32c-0.214-0.32-0.576-0.58-1.089-0.783
	c-0.512-0.203-1.002-0.305-1.471-0.305c-0.257,0-0.545,0.043-0.865,0.129c-0.319,0.085-0.613,0.219-0.879,0.399
	c-0.268,0.182-0.492,0.421-0.672,0.72c-0.182,0.299-0.272,0.662-0.272,1.088c0,0.47,0.138,0.848,0.416,1.137
	c0.276,0.287,0.618,0.539,1.024,0.752c0.404,0.213,0.848,0.405,1.327,0.576c0.48,0.17,0.923,0.373,1.328,0.607
	s0.747,0.539,1.024,0.912s0.416,0.848,0.416,1.424c0,0.512-0.102,1.014-0.305,1.504c-0.203,0.491-0.496,0.918-0.879,1.28
	c-0.385,0.362-0.849,0.655-1.393,0.88s-1.158,0.336-1.84,0.336c-0.662,0-1.34-0.117-2.032-0.352
	c-0.693-0.234-1.231-0.629-1.616-1.184c0.128-0.129,0.283-0.283,0.465-0.465c0.18-0.181,0.293-0.293,0.336-0.336
	c0.084,0.149,0.239,0.299,0.463,0.448c0.225,0.149,0.48,0.282,0.769,0.399c0.288,0.118,0.587,0.214,0.896,0.289
	c0.31,0.074,0.604,0.111,0.881,0.111c0.276,0,0.597-0.048,0.959-0.145c0.363-0.096,0.705-0.25,1.024-0.463
	c0.32-0.213,0.593-0.491,0.815-0.832c0.225-0.342,0.337-0.758,0.337-1.248c0-0.491-0.14-0.885-0.416-1.185
	c-0.278-0.298-0.619-0.549-1.024-0.752c-0.405-0.202-0.848-0.39-1.328-0.56c-0.479-0.171-0.923-0.373-1.328-0.608
	c-0.404-0.234-0.746-0.533-1.023-0.896c-0.277-0.363-0.416-0.843-0.416-1.44c0-0.618,0.117-1.157,0.352-1.616
	s0.545-0.837,0.928-1.136c0.385-0.299,0.806-0.517,1.265-0.656c0.458-0.138,0.912-0.208,1.36-0.208c0.512,0,1.072,0.107,1.68,0.32
	s1.104,0.576,1.488,1.088C433.475,221.274,433.342,221.424,433.182,221.594z M440.414,230.539c0.799,0.607,1.764,0.912,2.896,0.912
	c0.725,0,1.429-0.129,2.112-0.385c0.682-0.256,1.279-0.607,1.791-1.057l0.736,0.801c-0.64,0.533-1.365,0.955-2.176,1.264
	s-1.664,0.465-2.561,0.465c-0.832,0-1.6-0.15-2.304-0.449c-0.704-0.298-1.307-0.709-1.808-1.231
	c-0.502-0.522-0.896-1.136-1.184-1.84c-0.289-0.704-0.433-1.461-0.433-2.272c0-0.959,0.202-1.871,0.608-2.736
	c0.404-0.863,0.943-1.62,1.615-2.271c0.672-0.65,1.445-1.168,2.32-1.552s1.792-0.576,2.752-0.576c1.387,0,2.512,0.399,3.376,1.2
	c0.864,0.8,1.456,1.818,1.776,3.056c-0.811,0.3-1.686,0.63-2.624,0.992c-0.939,0.363-1.899,0.735-2.88,1.12
	c-0.982,0.384-1.958,0.763-2.928,1.136c-0.972,0.374-1.884,0.72-2.736,1.04C439.064,229.136,439.613,229.931,440.414,230.539z
	 M460.909,220.986c-0.683,0.021-1.345,0.139-1.983,0.352c-0.641,0.214-1.217,0.518-1.729,0.912c-0.512,0.396-0.939,0.864-1.28,1.408
	c-0.341,0.545-0.544,0.99-0.608,1.651l-0.863,6.69h-1.088l1.535-12h0.896c0,0-0.016,0.254-0.048,0.574
	c-0.032,0.318-0.063,0.644-0.097,1.006c-0.031,0.363-0.063,0.69-0.096,0.999c-0.031,0.31-0.048,0.491-0.048,0.556
	c0.618-1.066,1.456-1.906,2.513-2.514c1.055-0.609,2.127-0.925,3.215-0.946L460.909,220.986z M491.693,212.123
	c-0.726-0.449-1.547-0.801-2.465-1.057c-0.917-0.256-1.855-0.384-2.815-0.384c-1.515,0-2.971,0.304-4.368,0.911
	c-1.396,0.609-2.635,1.441-3.712,2.496c-1.077,1.057-1.941,2.283-2.592,3.681c-0.651,1.397-0.976,2.886-0.976,4.464
	c0,1.26,0.207,2.438,0.623,3.536s1.009,2.06,1.776,2.88c0.769,0.822,1.712,1.473,2.832,1.952s2.384,0.72,3.792,0.72
	c0.854,0,1.717-0.101,2.592-0.304c0.875-0.202,1.717-0.732,2.528-1.138l0.8-6.881h-5.216l0.16-1h6.464l-1.088,8.821
	c-0.918,0.49-1.915,0.954-2.992,1.243c-1.077,0.287-2.191,0.469-3.344,0.469c-1.6,0-3.04-0.242-4.32-0.765
	c-1.279-0.523-2.357-1.229-3.232-2.136s-1.547-1.968-2.016-3.195c-0.469-1.227-0.703-2.551-0.703-3.98
	c0-1.813,0.361-3.515,1.088-5.104c0.725-1.589,1.695-2.971,2.912-4.144c1.215-1.174,2.617-2.096,4.207-2.768
	s3.248-1.008,4.977-1.008c1.088,0,2.139,0.139,3.152,0.416c1.012,0.277,1.924,0.672,2.735,1.185L491.693,212.123z M502.732,220.986
	c-0.683,0.021-1.344,0.139-1.983,0.352c-0.64,0.214-1.216,0.518-1.728,0.912c-0.513,0.396-0.939,0.864-1.281,1.408
	c-0.341,0.545-0.543,0.99-0.607,1.651L496.27,232h-1.089l1.536-12h0.896c0,0-0.017,0.254-0.049,0.574
	c-0.031,0.318-0.063,0.644-0.096,1.006c-0.031,0.363-0.064,0.69-0.096,0.999c-0.032,0.31-0.049,0.491-0.049,0.556
	c0.619-1.066,1.457-1.906,2.513-2.514c1.056-0.609,2.128-0.925,3.216-0.946L502.732,220.986z M517.021,228.203
	c-0.396,0.863-0.928,1.615-1.601,2.256c-0.672,0.64-1.456,1.146-2.352,1.52s-1.835,0.561-2.816,0.561
	c-0.896,0-1.718-0.166-2.464-0.496c-0.747-0.331-1.376-0.785-1.888-1.36c-0.513-0.576-0.886-1.253-1.12-2.032
	c-0.235-0.778-0.299-1.627-0.191-2.544c0.105-0.896,0.378-1.738,0.815-2.528c0.437-0.789,0.981-1.477,1.632-2.063
	s1.393-1.051,2.225-1.392c0.832-0.342,1.695-0.513,2.592-0.513c0.832,0,1.6,0.149,2.304,0.448s1.312,0.715,1.823,1.248
	c0.513,0.533,0.912,1.152,1.201,1.855c0.287,0.704,0.432,1.462,0.432,2.272C517.613,226.416,517.416,227.338,517.021,228.203z
	 M531.98,232h-0.863l0.287-3.123c-0.555,1.046-1.344,1.991-2.367,2.631c-1.024,0.64-2.155,1.012-3.393,1.012
	c-1.195,0-2.102-0.32-2.72-1.015c-0.619-0.692-0.875-1.537-0.769-2.625l1.088-8.88h1.121l-1.088,8.701
	c-0.043,0.748,0.148,1.369,0.576,1.902c0.426,0.534,1.108,0.823,2.047,0.888c0.705,0,1.377-0.122,2.017-0.356
	s1.216-0.557,1.728-0.963c0.512-0.404,0.939-0.892,1.28-1.456c0.341-0.565,0.555-1.155,0.64-1.839l0.864-6.877h1.088L531.98,232z
	 M551.213,228.203c-0.385,0.863-0.912,1.615-1.584,2.256c-0.672,0.64-1.451,1.146-2.336,1.52c-0.886,0.373-1.819,0.561-2.801,0.561
	c-0.619,0-1.205-0.086-1.76-0.257s-1.051-0.41-1.488-0.72c-0.438-0.309-0.811-0.666-1.119-1.072
	c-0.31-0.404-0.539-0.853-0.688-1.344l-0.128,1.498L538.381,238h-1.12l2.239-18h1.089c0,0-0.011,0.146-0.032,0.381
	c-0.021,0.236-0.053,0.495-0.096,0.814c-0.043,0.32-0.086,0.647-0.129,1s-0.074,0.65-0.096,0.907
	c0.277-0.47,0.619-0.919,1.024-1.347c0.405-0.426,0.864-0.795,1.376-1.104c0.512-0.309,1.061-0.555,1.648-0.736
	c0.586-0.181,1.199-0.272,1.84-0.272c0.832,0,1.6,0.145,2.304,0.432c0.704,0.288,1.301,0.688,1.792,1.2
	c0.49,0.513,0.875,1.12,1.152,1.824s0.416,1.472,0.416,2.304C551.789,226.405,551.597,227.338,551.213,228.203z M512.379,166
	h-24.105l-5.355,28h-25.445l21.427-109h49.55c21.428,2,32.142,12.377,32.142,31.125C560.591,148.267,535.146,167,512.379,166z"/>
<g>
	<path fill="#6C7EB7" d="M517.736,106h-17.41l-6.695,41h16.07c12.053-2,22.766-5.768,24.105-28.533
		C533.807,110.43,527.111,106,517.736,106z"/>
	<path fill="#6C7EB7" d="M338.284,106h-17.41l-6.696,41h16.071c12.053-2,22.767-5.768,24.105-28.533
		C354.354,110.43,347.657,106,338.284,106z"/>
	<path fill="#6C7EB7" d="M549.309,222.123c-0.416-0.438-0.912-0.779-1.488-1.024s-1.216-0.368-1.92-0.368
		c-0.811,0-1.584,0.154-2.32,0.464c-0.735,0.31-1.381,0.736-1.936,1.28s-0.997,1.174-1.328,1.888
		c-0.33,0.716-0.496,1.478-0.496,2.288c0,0.684,0.117,1.313,0.353,1.889c0.234,0.575,0.565,1.082,0.991,1.52
		c0.428,0.438,0.934,0.779,1.521,1.023c0.587,0.246,1.222,0.369,1.904,0.369c0.832,0,1.61-0.155,2.336-0.465
		c0.726-0.309,1.364-0.736,1.92-1.279c0.555-0.545,0.992-1.18,1.312-1.904c0.32-0.725,0.48-1.493,0.48-2.305
		c0-0.66-0.117-1.279-0.352-1.855C550.05,223.066,549.725,222.561,549.309,222.123z"/>
	<path fill="#6C7EB7" d="M383.15,221.371c-0.662,0-1.28,0.117-1.856,0.352c-0.575,0.234-1.077,0.555-1.504,0.96
		s-0.763,0.891-1.008,1.456s-0.368,1.168-0.368,1.808c0,1.067,0.336,1.952,1.008,2.656s1.584,1.056,2.736,1.056
		c0.661,0,1.285-0.122,1.872-0.367c0.587-0.246,1.088-0.576,1.504-0.992s0.747-0.906,0.992-1.473
		c0.245-0.564,0.368-1.168,0.368-1.808c0-1.045-0.336-1.915-1.008-2.608S384.303,221.371,383.15,221.371z"/>
	<path fill="#6C7EB7" d="M345.838,221.371c-0.661,0-1.279,0.117-1.855,0.352s-1.078,0.555-1.504,0.96
		c-0.428,0.405-0.764,0.891-1.008,1.456c-0.246,0.565-0.369,1.168-0.369,1.808c0,1.067,0.336,1.952,1.009,2.656
		c0.672,0.704,1.584,1.056,2.735,1.056c0.662,0,1.285-0.122,1.873-0.367c0.586-0.246,1.088-0.576,1.504-0.992
		s0.746-0.906,0.992-1.473c0.244-0.564,0.367-1.168,0.367-1.808c0-1.045-0.336-1.915-1.008-2.608S346.99,221.371,345.838,221.371z"
		/>
	<path fill="#6C7EB7" d="M318.383,221.371c-0.662,0-1.28,0.117-1.856,0.352c-0.575,0.234-1.077,0.555-1.504,0.96
		s-0.763,0.891-1.008,1.456s-0.368,1.168-0.368,1.808c0,1.067,0.336,1.952,1.008,2.656s1.584,1.056,2.736,1.056
		c0.661,0,1.285-0.122,1.872-0.367c0.587-0.246,1.088-0.576,1.504-0.992s0.747-0.906,0.992-1.473
		c0.245-0.564,0.368-1.168,0.368-1.808c0-1.045-0.336-1.915-1.008-2.608S319.535,221.371,318.383,221.371z"/>
	<path fill="#6C7EB7" d="M446.189,224.475c0.832-0.32,1.621-0.629,2.367-0.928c-0.299-0.854-0.778-1.537-1.439-2.049
		s-1.482-0.768-2.464-0.768c-0.79,0-1.547,0.154-2.272,0.464c-0.725,0.31-1.365,0.736-1.92,1.28s-0.805,1.174-1.146,1.888
		c-0.342,0.716-0.314,1.468-0.314,2.257c0,0.127,0,0.261,0,0.399s-0.188,0.261-0.166,0.368c0.769-0.299,1.48-0.613,2.334-0.944
		c0.853-0.331,1.662-0.661,2.527-0.991C444.559,225.12,445.357,224.795,446.189,224.475z"/>
	<path fill="#6C7EB7" d="M515.117,222.139c-0.428-0.427-0.934-0.768-1.52-1.024c-0.588-0.256-1.223-0.384-1.904-0.384
		c-0.747,0-1.462,0.139-2.145,0.416s-1.296,0.662-1.84,1.152s-0.992,1.061-1.344,1.711c-0.352,0.652-0.571,1.35-0.656,2.097
		c-0.107,0.747-0.059,1.445,0.145,2.097c0.202,0.65,0.512,1.215,0.928,1.695s0.934,0.859,1.552,1.137s1.302,0.416,2.048,0.416
		c0.811,0,1.584-0.155,2.32-0.465c0.736-0.309,1.381-0.73,1.936-1.264s0.998-1.157,1.328-1.872s0.496-1.478,0.496-2.288
		c0-0.661-0.117-1.291-0.352-1.889C515.874,223.078,515.543,222.565,515.117,222.139z"/>
</g>
</svg>
