<?xml version="1.0" encoding="UTF-8" standalone="no"?>
<svg
   xmlns:dc="http://purl.org/dc/elements/1.1/"
   xmlns:cc="http://creativecommons.org/ns#"
   xmlns:rdf="http://www.w3.org/1999/02/22-rdf-syntax-ns#"
   xmlns:svg="http://www.w3.org/2000/svg"
   xmlns="http://www.w3.org/2000/svg"
   viewBox="0 0 621.69336 117.44"
   height="117.44"
   width="621.69336"
   xml:space="preserve"
   id="svg2"
   version="1.1"><metadata
     id="metadata8"><rdf:RDF><cc:Work
         rdf:about=""><dc:format>image/svg+xml</dc:format><dc:type
           rdf:resource="http://purl.org/dc/dcmitype/StillImage" /></cc:Work></rdf:RDF></metadata><defs
     id="defs6"><clipPath
       id="clipPath20"
       clipPathUnits="userSpaceOnUse"><path
         id="path18"
         d="M 0,880.797 V 0 h 4662.66 v 880.797 z" /></clipPath></defs><g
     transform="matrix(1.3333333,0,0,-1.3333333,0,117.44)"
     id="g10"><g
       transform="scale(0.1)"
       id="g12"><g
         id="g14"><g
           clip-path="url(#clipPath20)"
           id="g16"><path
             id="path22"
             style="fill:#231f20;fill-opacity:1;fill-rule:nonzero;stroke:none"
             d="m 1304.99,334.062 c 0,-2.578 -1.35,-6.066 -4.02,-10.468 -2.68,-4.422 -5.92,-8.977 -9.72,-13.672 -3.81,-4.707 -8.04,-9.188 -12.69,-13.445 -4.65,-4.289 -8.81,-7.563 -12.47,-9.836 -29.03,-17.664 -56.02,-31.25 -80.97,-40.789 -24.94,-9.543 -50.67,-14.309 -77.16,-14.309 -14.38,0 -27.13,2.844 -38.26,8.547 -11.14,5.691 -20.93,14.09 -29.39,25.191 -8.45,11.106 -15.86,24.778 -22.19,41.008 -6.35,16.231 -11.91,34.883 -16.7,55.945 -2.541,11.399 -4.936,23.078 -7.19,35.039 -2.261,11.965 -4.656,22.856 -7.187,32.668 -2.539,9.829 -5.5,17.942 -8.883,24.356 -3.379,6.402 -7.609,9.605 -12.68,9.605 -11.843,0 -25.093,-10.394 -39.75,-31.183 -14.652,-20.785 -33.542,-51.684 -56.652,-92.692 -22.828,-41.004 -42.14,-72.175 -57.922,-93.535 -15.789,-21.355 -30.164,-32.027 -43.125,-32.027 -19.453,0 -32.558,9.246 -39.32,27.754 -6.199,18.797 -10.004,50.254 -11.414,94.39 -0.285,17.375 -1.274,32.676 -2.961,45.93 -1.695,13.234 -3.809,24.551 -6.344,33.953 -2.539,9.399 -5.57,17.153 -9.09,23.278 -3.527,6.121 -7.121,10.89 -10.781,14.308 -14.375,-8.828 -28.117,-20.355 -41.223,-34.594 -13.109,-14.25 -25.437,-29.472 -36.996,-45.707 -11.562,-16.226 -22.34,-32.605 -32.34,-49.129 -10.011,-16.511 -18.964,-31.589 -26.847,-45.261 -3.953,-6.836 -8.457,-14.668 -13.531,-23.496 -5.075,-8.829 -10.219,-17.727 -15.43,-26.7 -5.223,-8.964 -10.293,-17.445 -15.223,-25.414 -4.937,-7.976 -9.234,-14.519 -12.898,-19.644 -8.18,-11.965 -18.035,-17.942 -29.594,-17.942 -21.422,0 -35.519,11.106 -42.281,33.313 -1.692,5.699 -3.106,10.816 -4.231,15.379 -1.125,4.551 -2.043,9.109 -2.746,13.672 -0.711,4.543 -1.265,9.465 -1.695,14.734 -0.414,5.266 -0.629,11.313 -0.629,18.149 0,11.382 0.563,23.496 1.688,36.304 1.125,12.817 2.609,25.774 4.445,38.867 1.824,13.098 3.937,26.282 6.336,39.512 2.398,13.242 4.719,26.125 6.976,38.664 4.793,24.488 8.602,46.699 11.418,66.629 2.813,19.93 4.231,38.867 4.231,56.809 0,6.836 1.965,12.601 5.918,17.3 3.941,4.704 9.441,7.043 16.488,7.043 28.184,0 42.277,-19.5 42.277,-58.511 0,-10.25 -0.773,-21.36 -2.324,-33.317 -1.551,-11.961 -3.523,-24.422 -5.918,-37.379 -2.398,-12.949 -5.008,-26.043 -7.82,-39.297 -2.82,-13.234 -5.496,-26.269 -8.035,-39.082 -1.414,-7.683 -2.821,-15.878 -4.227,-24.55 -1.414,-8.692 -2.75,-16.953 -4.023,-24.778 -1.258,-7.84 -2.321,-14.824 -3.164,-20.933 -0.848,-6.114 -1.27,-10.617 -1.27,-13.457 3.656,3.711 8.246,9.121 13.735,16.238 5.503,7.109 11.488,15.508 17.976,25.195 6.484,9.676 13.457,20.364 20.926,32.039 7.469,11.672 15.012,23.774 22.625,36.301 15.777,25.059 30.508,47.199 44.18,66.426 13.664,19.215 26.421,35.664 38.265,49.332 23.676,27.051 49.184,40.574 76.524,40.574 6.765,0 12.683,-1.992 17.757,-5.976 5.075,-3.993 9.446,-9.258 13.106,-15.805 3.664,-6.555 6.765,-13.953 9.301,-22.211 2.539,-8.262 4.656,-16.656 6.343,-25.199 2.813,-14.524 5.567,-30.614 8.247,-48.266 2.671,-17.664 5.351,-34.176 8.027,-49.551 2.68,-15.379 5.504,-28.269 8.457,-38.66 2.965,-10.39 6.414,-15.586 10.363,-15.586 3.102,0 6.828,2.356 11.203,7.039 4.367,4.707 8.875,10.688 13.532,17.953 4.644,7.262 9.441,15.438 14.375,24.547 4.925,9.114 9.656,18.008 14.16,26.703 4.507,8.692 8.672,16.715 12.472,24.137 3.809,7.406 6.828,13.242 9.09,17.512 6.195,11.105 13.387,23.277 21.563,36.523 8.175,13.235 16.984,25.625 26.429,37.153 9.442,11.539 19.661,21.148 30.653,28.836 10.992,7.687 22.547,11.531 34.668,11.531 12.683,0 22.55,-2.918 29.59,-8.762 7.05,-5.832 12.9,-14.519 17.55,-26.047 4.65,-11.539 8.74,-25.992 12.26,-43.355 3.52,-17.371 7.97,-37.586 13.32,-60.645 8.73,-37.59 18.18,-65.644 28.33,-84.148 10.15,-18.528 23.53,-27.774 40.16,-27.774 10.43,0 21.07,0.704 31.93,2.137 10.84,1.426 22.19,3.77 34.03,7.051 11.84,3.269 24.31,7.687 37.42,13.242 13.11,5.559 27.12,12.609 42.07,21.145 1.12,0.574 2.88,1.492 5.28,2.769 2.39,1.289 4.93,2.563 7.61,3.852 2.68,1.277 5.14,2.343 7.4,3.203 2.26,0.847 3.81,1.277 4.65,1.277 1.12,0 2.47,-0.578 4.02,-1.711 1.55,-1.14 3.03,-2.633 4.44,-4.48 1.41,-1.856 2.68,-3.848 3.81,-5.977 1.11,-2.136 1.69,-4.051 1.69,-5.762" /><path
             id="path24"
             style="fill:#231f20;fill-opacity:1;fill-rule:nonzero;stroke:none"
             d="m 1466.49,552.742 c 0,9.973 -2.68,17.871 -8.03,23.711 -5.35,5.832 -12.12,8.758 -20.29,8.758 -2.82,-0.289 -6.28,-1.359 -10.36,-3.207 -4.09,-1.852 -8.39,-4.274 -12.9,-7.258 -4.5,-2.992 -8.87,-6.48 -13.1,-10.469 -4.23,-3.988 -7.76,-8.117 -10.57,-12.382 -13.81,-19.938 -25.02,-42.223 -33.62,-66.844 -8.6,-24.641 -14.3,-54.035 -17.12,-88.203 22.26,17.078 41.36,32.949 57.29,47.617 15.92,14.668 28.96,28.406 39.11,41.223 10.15,12.812 17.61,24.699 22.41,35.66 4.79,10.968 7.18,21.425 7.18,31.394 z m 237.62,-240.894 c -21.99,-17.383 -45.53,-33.899 -70.61,-49.551 -25.09,-15.664 -50.31,-29.477 -75.68,-41.438 -25.37,-11.953 -50.17,-21.425 -74.41,-28.41 -24.25,-6.969 -46.51,-10.445 -66.8,-10.445 -22.84,0 -43.13,3.34 -60.89,10.027 -17.76,6.692 -32.83,17.149 -45.24,31.399 -12.4,14.234 -21.84,32.39 -28.33,54.453 -6.49,22.066 -9.72,48.476 -9.72,79.226 0,28.203 2.54,54.895 7.61,80.098 5.07,25.199 12.05,48.481 20.93,69.832 8.88,21.359 19.16,40.652 30.87,57.879 11.69,17.227 24.23,31.824 37.62,43.781 13.39,11.961 27.13,21.145 41.22,27.555 14.1,6.402 27.91,9.609 41.44,9.609 13.53,0 25.29,-1.922 35.31,-5.769 10,-3.84 18.31,-9.18 24.93,-16.016 6.63,-6.832 11.63,-14.945 15.02,-24.348 3.38,-9.398 5.07,-19.648 5.07,-30.75 0,-7.414 -1.48,-16.238 -4.44,-26.484 -2.96,-10.25 -8.39,-22.07 -16.28,-35.457 -7.89,-13.387 -18.75,-28.402 -32.55,-45.055 -13.81,-16.664 -31.57,-34.957 -53.28,-54.894 -6.2,-5.692 -12.89,-11.524 -20.08,-17.512 -7.18,-5.973 -14.58,-11.812 -22.19,-17.508 -7.61,-5.703 -15.09,-11.101 -22.41,-16.23 -7.34,-5.125 -14.1,-9.551 -20.3,-13.242 0.56,-14.246 2.68,-27.332 6.35,-39.297 3.65,-11.953 9.44,-22.207 17.33,-30.75 7.89,-8.547 18.18,-15.168 30.86,-19.863 12.69,-4.708 28.33,-7.051 46.93,-7.051 19.73,0 40.74,3.484 63,10.468 22.27,6.969 44.67,15.797 67.23,26.485 22.55,10.672 44.53,22.422 65.95,35.23 21.42,12.825 41.16,25.207 59.19,37.16 1.41,0.86 3.17,1.922 5.29,3.204 2.11,1.289 3.6,1.925 4.44,1.925 2.53,0 4.86,-1.562 6.97,-4.711 2.12,-3.125 3.18,-7.402 3.18,-12.8 0,-1.707 -0.5,-4.129 -1.49,-7.266 -0.98,-3.137 -2.18,-6.34 -3.59,-9.609 -1.41,-3.274 -2.89,-6.2 -4.43,-8.75 -1.56,-2.571 -2.9,-4.278 -4.02,-5.125" /><path
             id="path26"
             style="fill:#231f20;fill-opacity:1;fill-rule:nonzero;stroke:none"
             d="m 1882.95,537.367 c -0.28,4.274 -0.92,8.473 -1.9,12.606 -0.99,4.125 -2.47,7.754 -4.44,10.89 -1.98,3.129 -4.23,5.621 -6.77,7.473 -2.53,1.852 -5.49,2.777 -8.87,2.777 -14.95,-0.855 -29.88,-10.035 -44.82,-27.554 -14.94,-17.504 -29.04,-40.645 -42.28,-69.403 -3.11,-6.265 -5.85,-13.316 -8.25,-21.148 -2.39,-7.832 -4.64,-15.801 -6.76,-23.922 -2.11,-8.109 -3.95,-16.156 -5.5,-24.137 -1.55,-7.965 -2.89,-15.086 -4.01,-21.344 14.65,11.09 28.18,21.344 40.59,30.75 12.4,9.395 23.95,19.075 34.66,29.043 6.77,6.258 13.68,13.028 20.72,20.293 7.04,7.254 13.46,14.879 19.24,22.852 5.78,7.965 10.36,16.23 13.74,24.769 3.38,8.547 4.93,17.235 4.65,26.055 z m 323.02,-85 c 0,-4.265 -3.1,-11.816 -9.3,-22.633 -14.66,-21.367 -31.08,-42.711 -49.25,-64.082 -18.19,-21.343 -37.5,-41.636 -57.93,-60.855 -20.44,-19.223 -41.72,-37.168 -63.84,-53.82 -22.13,-16.661 -44.47,-31.036 -67.02,-43.145 -22.55,-12.109 -45.03,-21.426 -67.43,-27.977 -22.42,-6.554 -44.05,-9.679 -64.91,-9.394 -45.09,0 -80.12,13.25 -105.05,39.715 -24.96,26.496 -37.43,66.504 -37.43,120.027 0,44.699 6.83,88.149 20.51,130.281 13.67,42.145 36.99,82.719 69.97,121.735 6.2,6.836 13.18,13.383 20.93,19.644 7.75,6.262 15.92,11.821 24.52,16.66 8.59,4.84 17.48,8.688 26.64,11.536 9.16,2.839 18.39,4.55 27.69,5.129 2.26,0 5.35,-0.29 9.3,-0.856 3.95,-0.578 8.18,-1.566 12.69,-2.992 4.5,-1.43 8.88,-3.203 13.11,-5.34 4.22,-2.137 7.61,-4.77 10.14,-7.898 7.89,-9.122 14.17,-18.516 18.82,-28.196 4.65,-9.679 7.25,-20.359 7.82,-32.035 0.56,-13.098 -0.92,-25.984 -4.44,-38.652 -3.53,-12.676 -9.44,-25.629 -17.76,-38.871 -8.32,-13.239 -19.24,-26.907 -32.76,-41.008 -13.53,-14.09 -29.88,-29.262 -49.05,-45.481 -12.12,-10.254 -25.58,-21.574 -40.37,-33.964 -14.81,-12.383 -32.63,-25.411 -53.49,-39.083 0,-27.621 8.24,-48.624 24.73,-63 16.49,-14.382 39.11,-21.574 67.86,-21.574 16.07,0 32.27,2.141 48.62,6.41 16.34,4.278 32.41,9.891 48.2,16.875 15.79,6.969 31.07,14.942 45.88,23.915 14.79,8.964 28.68,18.156 41.64,27.546 23.95,17.661 45.66,35.239 65.11,52.754 19.45,17.512 38.75,35.95 57.93,55.317 l 22.83,23.062 c 13.8,12.242 23.82,18.367 30.01,18.367 3.39,0 5.08,-2.711 5.08,-8.117" /><path
             id="path28"
             style="fill:#231f20;fill-opacity:1;fill-rule:nonzero;stroke:none"
             d="m 2520.53,549.758 c 0,-8.266 -1.62,-14.668 -4.87,-19.223 -3.23,-4.555 -7.17,-7.973 -11.84,-10.254 -4.65,-2.277 -9.65,-3.699 -15.01,-4.265 -5.34,-0.575 -10.14,-1.004 -14.36,-1.286 -23.67,-1.707 -47.85,-3.632 -72.5,-5.761 -24.67,-2.145 -47.15,-4.274 -67.45,-6.414 -20.3,-2.129 -37,-4.2 -50.1,-6.188 -13.11,-1.996 -19.81,-3.562 -20.08,-4.703 -1.98,-8.262 -4.52,-18.512 -7.62,-30.75 -3.1,-12.246 -6.34,-25.418 -9.72,-39.516 -3.38,-14.082 -6.77,-28.617 -10.14,-43.566 -3.39,-14.941 -6.42,-29.18 -9.1,-42.715 -2.68,-13.523 -4.86,-25.762 -6.55,-36.726 -1.69,-10.969 -2.54,-19.719 -2.54,-26.274 0,-5.972 0.43,-13.23 1.27,-21.773 0.85,-8.547 2.89,-16.739 6.13,-24.571 3.24,-7.832 7.96,-14.457 14.16,-19.855 6.2,-5.422 14.66,-8.125 25.38,-8.125 5.91,0 13.17,1.863 21.77,5.559 8.59,3.699 17.97,8.828 28.11,15.371 10.15,6.558 20.72,14.375 31.71,23.496 11,9.109 21.85,19.082 32.56,29.898 5.35,5.403 11.2,10.61 17.54,15.598 6.36,4.973 13.17,7.473 20.51,7.473 10.43,0 15.64,-4.985 15.64,-14.961 0,-5.118 -0.91,-10.032 -2.73,-14.731 -1.85,-4.695 -4.24,-9.391 -7.2,-14.098 -2.95,-4.687 -6.34,-9.394 -10.15,-14.082 -3.8,-4.707 -7.82,-9.621 -12.05,-14.75 -2.82,-3.699 -6.98,-8.464 -12.48,-14.304 -5.48,-5.84 -12.11,-12.176 -19.86,-19.004 -7.76,-6.836 -16.35,-13.738 -25.8,-20.723 -9.43,-6.98 -19.44,-13.23 -30.01,-18.789 -10.57,-5.555 -21.57,-10.105 -32.98,-13.672 -11.42,-3.554 -22.9,-5.332 -34.46,-5.332 -16.63,0 -30.51,2.41 -41.64,7.254 -11.14,4.848 -20.23,11.25 -27.27,19.223 -7.05,7.969 -12.47,17.011 -16.28,27.129 -3.81,10.105 -6.56,20.281 -8.24,30.535 -1.7,10.254 -2.62,20.281 -2.76,30.117 -0.14,9.816 -0.2,18.289 -0.2,25.41 0,8.82 0.91,19.285 2.74,31.399 1.83,12.097 4.02,24.988 6.56,38.652 2.53,13.672 5.42,27.559 8.66,41.641 3.24,14.097 6.13,27.554 8.67,40.371 2.54,12.808 4.72,24.554 6.55,35.238 1.84,10.672 2.75,19.148 2.75,25.414 0,3.695 -1.76,5.762 -5.28,6.195 -3.53,0.422 -8.25,0.211 -14.16,-0.644 -5.93,-0.856 -12.62,-1.707 -20.09,-2.563 -7.47,-0.855 -15.15,-0.578 -23.04,0.856 -5.08,0.851 -9.87,2.133 -14.37,3.843 -4.52,1.708 -8.53,4.055 -12.06,7.047 -3.52,2.993 -6.34,6.836 -8.46,11.532 -2.11,4.703 -3.17,10.609 -3.17,17.726 0,8.824 2.33,14.953 6.99,18.367 4.64,3.418 10.21,5.125 16.7,5.125 h 99.35 c 1.69,0.856 3.87,3.77 6.56,8.762 2.67,4.977 5.63,11.387 8.87,19.215 3.24,7.828 6.7,16.664 10.36,26.48 3.66,9.832 7.4,20.082 11.21,30.754 3.8,10.684 7.46,21.426 10.99,32.25 3.52,10.828 6.83,20.934 9.94,30.328 4.79,15.375 10.42,26.336 16.91,32.891 6.48,6.547 14.65,9.824 24.52,9.824 6.48,0 11.91,-1.211 16.28,-3.633 4.36,-2.421 7.82,-5.41 10.36,-8.964 2.53,-3.567 4.37,-7.332 5.5,-11.325 1.11,-3.988 1.69,-7.683 1.69,-11.101 0,-1.141 -0.93,-4.488 -2.76,-10.035 -1.83,-5.563 -4.16,-12.461 -6.97,-20.723 -2.82,-8.262 -6.07,-17.512 -9.73,-27.766 -3.66,-10.246 -7.39,-20.496 -11.2,-30.75 -3.8,-10.25 -7.4,-20.222 -10.78,-29.898 -3.38,-9.684 -6.34,-18.09 -8.88,-25.199 26.21,1.703 48.41,3.414 66.58,5.121 18.19,1.711 33.76,3.203 46.73,4.488 12.95,1.281 24.03,2.348 33.2,3.203 9.15,0.856 17.82,1.281 25.99,1.281 12.4,0 22.34,-0.574 29.81,-1.71 7.47,-1.137 13.24,-2.774 17.34,-4.911 4.08,-2.129 6.83,-4.843 8.24,-8.113 1.4,-3.281 2.11,-7.051 2.11,-11.32" /><path
             id="path30"
             style="fill:#231f20;fill-opacity:1;fill-rule:nonzero;stroke:none"
             d="m 366.227,157.695 c 0,-3.332 -3.141,-8.867 -9.391,-16.648 -3.141,-3.985 -5.906,-7.481 -8.32,-10.473 -2.426,-3.008 -4.633,-5.496 -6.621,-7.488 -4.844,-4.434 -15.368,-8.106 -31.583,-10.996 -8.261,-1.543 -15.871,-2.695 -22.839,-3.485 -6.969,-0.785 -13.301,-1.164 -18.993,-1.164 -3.136,0 -7.683,0.215 -13.656,0.657 -5.98,0.468 -10.676,0.672 -14.094,0.672 -14.507,0 -27.808,2.609 -39.902,7.812 -12.101,5.234 -22.984,11.984 -32.652,20.305 -9.676,8.328 -17.864,17.801 -24.543,28.457 -6.695,10.64 -11.738,21.531 -15.156,32.617 -2.286,7.312 -3.915,15.918 -4.907,25.801 -0.996,9.871 -1.347,21.121 -1.066,33.777 0,3.992 0.07,7.637 0.207,10.977 0.144,3.32 0.281,6.777 0.434,10.324 0.14,3.531 0.21,7.312 0.21,11.308 0,3.993 0,8.543 0,13.641 0,30.164 -2.132,52.258 -6.402,66.231 -4.265,13.984 -11.383,20.964 -21.3436,20.964 -4.2656,0 -14.9375,-2.886 -32.0117,-8.66 -17.0743,-5.762 -27.7422,-8.64 -32.0118,-8.64 -6.8281,0 -13.8086,3.32 -20.914,9.976 C 3.55469,390.098 0,395.867 0,400.969 c 0,8.211 7.96484,17.183 23.9023,26.957 15.6446,9.984 29.3008,15.976 40.9766,17.972 1.9844,0.215 6.6836,1.215 14.0859,2.993 15.9375,5.101 33.2932,14.195 52.0702,27.293 19.356,13.754 29.031,25.734 29.031,35.941 0,3.105 -0.578,6.766 -1.711,10.98 -1.425,5.102 -2.71,12.868 -3.839,23.297 -1.43,10.868 -3.137,19.414 -5.121,25.629 -7.684,25.957 -11.524,48.25 -11.524,66.891 0.567,46.371 22.895,84.199 67.012,113.484 6.828,4.442 21.191,10.43 43.105,17.977 22.2,7.539 37.141,11.312 44.821,11.312 11.953,0 22.625,-1.785 32.015,-5.328 10.242,-3.324 15.367,-8.765 15.367,-16.305 0,-6.878 -1.711,-14.972 -5.125,-24.296 -3.418,-9.317 -8.683,-13.973 -15.793,-13.973 -4.843,0 -11.671,0.664 -20.484,1.996 -9.117,1.328 -15.945,1.992 -20.492,1.992 -10.817,0 -23.473,-4.992 -37.985,-14.976 -14.511,-9.981 -24.05,-19.082 -28.601,-27.289 -3.992,-7.106 -6.125,-25.407 -6.402,-54.911 0,-6.656 2.132,-16.753 6.402,-30.285 4.269,-13.758 6.402,-24.629 6.402,-32.617 0.282,-25.512 -1.136,-45.867 -4.269,-61.062 -3.137,-15.207 -7.403,-26.129 -12.805,-32.786 -3.992,-5.109 -9.035,-10.043 -15.156,-14.816 -6.117,-4.766 -13.301,-9.367 -21.547,-13.805 -15.094,-7.105 -22.625,-11.871 -22.625,-14.308 0,-2.446 4.117,-5.332 12.375,-8.653 9.957,-4.668 17.355,-12.976 22.199,-24.961 4.836,-11.984 7.254,-23.964 7.254,-35.949 0,-8.64 -0.851,-26.402 -2.559,-53.242 -1.707,-26.629 -2.562,-44.375 -2.562,-53.25 -0.574,-31.062 5.473,-54.465 18.144,-70.223 12.657,-15.746 31.372,-23.617 56.129,-23.617 12.227,0 23.188,0.891 32.86,2.66 8.82,1.543 20.344,4.539 34.578,8.973 5.121,1.797 8.68,2.664 10.672,2.664 23.617,0 35.426,-5.215 35.426,-15.633" /><path
             id="path32"
             style="fill:#231f20;fill-opacity:1;fill-rule:nonzero;stroke:none"
             d="m 2824.95,458.879 c 0,-2.887 -1.42,-5.992 -4.23,-9.317 -2.81,-3.332 -6.25,-6.441 -10.32,-9.324 -4.08,-2.879 -8.43,-5.265 -13.06,-7.152 -4.65,-1.891 -8.65,-2.828 -12.02,-2.828 -25.58,0 -46.09,2.547 -61.54,7.652 -1.97,-1.328 -4.15,-3.383 -6.53,-6.152 -2.39,-2.778 -4.57,-5.774 -6.53,-8.992 -1.97,-3.227 -3.59,-6.379 -4.86,-9.485 -1.26,-3.117 -1.89,-5.652 -1.89,-7.644 0,-4.446 5.06,-27.746 15.18,-69.895 3.36,-11.758 5.95,-20.742 7.79,-26.953 1.83,-6.211 3.3,-11.484 4.42,-15.809 1.13,-4.328 1.97,-8.476 2.54,-12.472 0.55,-3.992 1.11,-9.539 1.69,-16.649 0.83,-8.437 0.77,-17.636 -0.22,-27.621 -0.99,-9.988 -2.88,-19.91 -5.7,-29.785 -2.8,-9.871 -6.52,-19.305 -11.16,-28.289 -4.63,-8.984 -10.32,-16.582 -17.07,-22.793 -11.8,-11.316 -25.85,-20.019 -42.15,-26.133 -16.3,-6.093 -34.98,-9.148 -56.06,-9.148 -5.34,0 -10.61,0.058 -15.8,0.176 -5.21,0.117 -10.33,0.496 -15.38,1.148 -5.06,0.676 -9.91,1.731 -14.55,3.164 -4.63,1.445 -9.2,3.613 -13.7,6.496 -9.83,6.438 -14.75,13.535 -14.75,21.297 0,3.996 2.24,7.551 6.74,10.656 4.5,3.118 9.76,5.711 15.81,7.825 6.04,2.097 12.22,3.71 18.54,4.824 6.33,1.109 11.32,1.648 14.97,1.648 1.41,0 3.58,-0.156 6.54,-0.488 2.93,-0.344 6.1,-0.664 9.48,-1.008 3.37,-0.32 6.53,-0.664 9.48,-0.984 2.95,-0.34 4.98,-0.625 6.1,-0.828 31.76,9.531 47.92,40.144 48.48,91.843 0,6.868 -0.56,14.422 -1.68,22.637 -1.12,8.195 -2.53,16.621 -4.22,25.281 -1.69,8.657 -3.45,17.2 -5.26,25.625 -1.84,8.43 -3.45,16.528 -4.86,24.289 -1.96,10 -3.36,18.704 -4.2,26.133 -0.85,7.434 -1.28,13.692 -1.28,18.797 0,13.762 3.09,23.078 9.28,27.961 6.46,5.102 16.29,9.316 29.5,12.648 -1.13,0.211 -3.09,0.825 -5.89,1.829 -2.83,0.992 -5.84,2 -9.07,2.988 -3.24,1.008 -6.18,2 -8.85,3.004 -2.68,0.992 -4.57,1.828 -5.69,2.488 -5.35,2.883 -10.47,6.215 -15.39,9.988 -4.91,3.774 -9.2,7.817 -12.85,12.149 -3.65,4.32 -6.61,8.929 -8.85,13.808 -2.25,4.875 -3.37,9.985 -3.37,15.305 -1.41,16.422 1.96,34.949 10.12,55.582 3.92,10.426 7.79,19.801 11.58,28.117 3.8,8.324 7.38,16.418 10.76,24.301 3.36,7.871 6.73,15.973 10.1,24.285 3.38,8.328 6.6,17.692 9.71,28.125 3.64,10.653 5.47,23.406 5.47,38.274 0,7.539 -2.17,14.304 -6.53,20.297 -4.37,5.992 -10.04,11.035 -17.07,15.14 -7.03,4.106 -14.76,7.27 -23.19,9.488 -8.43,2.211 -16.72,3.329 -24.86,3.329 -14.61,0 -29.72,-1.387 -45.31,-4.161 -15.6,-2.777 -29.15,-7.605 -40.68,-14.472 -3.93,-2.449 -7.38,-4.555 -10.32,-6.324 -2.96,-1.786 -5.14,-2.668 -6.53,-2.668 -4.22,0 -7.24,0.722 -9.08,2.164 -1.82,1.441 -2.73,3.277 -2.73,5.492 0,22.633 11.59,39.992 34.78,52.086 23.18,12.086 57.94,18.136 104.31,18.136 7.87,0 16.15,-1.054 24.88,-3.164 8.7,-2.109 17.2,-5.046 25.49,-8.82 8.28,-3.773 15.95,-8.148 22.97,-13.144 7.03,-4.993 12.79,-10.485 17.29,-16.473 5.89,-7.77 10.67,-16.695 14.32,-26.793 3.66,-10.094 5.48,-21.793 5.48,-35.109 0,-15.969 -2.24,-29.731 -6.74,-41.262 -1.12,-2.887 -3.09,-7.77 -5.9,-14.645 -2.81,-6.875 -5.83,-14.144 -9.07,-21.797 -3.22,-7.656 -6.32,-14.808 -9.26,-21.464 -2.95,-6.657 -5.27,-11.317 -6.96,-13.981 -3.93,-7.984 -7.23,-15.527 -9.91,-22.629 -2.68,-7.101 -4.84,-14.148 -6.53,-21.133 -1.69,-6.992 -2.95,-14.203 -3.79,-21.632 -0.84,-7.434 -1.27,-15.473 -1.27,-24.125 12.08,-10.871 24.46,-16.305 37.09,-16.305 2.81,0 7.23,0.164 13.28,0.492 6.04,0.344 12.36,0.723 18.97,1.168 6.61,0.445 12.91,0.828 18.97,1.164 6.04,0.332 10.47,0.5 13.27,0.5 13.77,0 25.43,-2.445 34.98,-7.32 9.56,-4.883 14.35,-12.43 14.35,-22.629" /><path
             id="path34"
             style="fill:#231f20;fill-opacity:1;fill-rule:nonzero;stroke:none"
             d="m 3588.21,538.176 c -17.68,11.148 -38.42,16.726 -62.23,16.726 -38.35,0 -68.81,-14.414 -91.37,-43.23 -15.28,-19.809 -22.93,-38.86 -22.93,-57.149 0,-20.558 10.97,-40.546 32.9,-59.972 21.93,-19.434 49.07,-29.141 81.4,-29.141 32.58,0 59.79,9.649 81.58,28.953 21.82,19.297 32.72,39.602 32.72,60.903 0,10.781 -4.27,24.5 -12.78,41.172 -8.53,16.667 -21.63,30.574 -39.29,41.738" /><path
             id="path36"
             style="fill:#231f20;fill-opacity:1;fill-rule:nonzero;stroke:none"
             d="m 4427.66,538.176 c -17.67,11.148 -38.42,16.726 -62.23,16.726 -38.35,0 -68.8,-14.414 -91.36,-43.23 -15.29,-19.809 -22.93,-38.86 -22.93,-57.149 0,-20.558 10.96,-40.546 32.9,-59.972 21.92,-19.434 49.06,-29.141 81.39,-29.141 32.58,0 59.79,9.649 81.59,28.953 21.81,19.297 32.71,39.602 32.71,60.903 0,10.781 -4.27,24.5 -12.78,41.172 -8.53,16.667 -21.62,30.574 -39.29,41.738" /><path
             id="path38"
             style="fill:#231f20;fill-opacity:1;fill-rule:nonzero;stroke:none"
             d="m 4491.01,329.695 c -36.6,-27.578 -77.82,-41.367 -123.7,-41.367 -19.8,0 -39.35,2.883 -58.65,8.656 -19.3,5.758 -38.48,14.414 -57.52,25.938 V 196.594 h 46.25 c 18.54,0 31.77,-3.567 39.66,-10.715 7.9,-7.141 11.84,-16.477 11.84,-28.008 0,-11.277 -3.94,-20.488 -11.84,-27.637 -7.89,-7.136 -21.12,-10.711 -39.66,-10.711 H 4160.9 c -18.55,0 -31.76,3.575 -39.66,10.711 -7.9,7.149 -11.84,16.36 -11.84,27.637 0,11.531 4,20.867 12.03,28.008 8.02,7.148 21.17,10.715 39.47,10.715 h 13.17 v 348.164 h -13.17 c -18.55,0 -31.76,3.562 -39.66,10.711 -7.9,7.14 -11.84,16.472 -11.84,28.008 0,11.281 3.94,20.488 11.84,27.636 7.9,7.141 21.11,10.711 39.66,10.711 h 90.24 v -26.316 c 18.04,12.273 36.72,21.433 56.01,27.453 19.31,6.016 39.1,9.023 59.42,9.023 52.63,0 97.5,-17.863 134.59,-53.586 37.1,-35.71 55.64,-76.64 55.64,-122.753 0,-50.887 -21.93,-92.864 -65.79,-125.95 z m -484.39,-49.254 c -18.3,0 -31.4,3.575 -39.29,10.711 -7.9,7.149 -11.85,16.485 -11.85,28.02 0,14.031 6.02,24.93 18.05,32.703 6.26,4.004 19.04,5.891 38.35,5.637 v 139.492 c 0,19.793 -4.51,33.711 -13.54,41.734 -11.78,10.774 -29.19,16.164 -52.26,16.164 -17.04,0 -32.14,-3.32 -45.3,-9.961 -13.16,-6.652 -30.89,-20.996 -53.2,-43.054 V 357.512 c 19.8,0 32.58,-1.875 38.34,-5.637 12.29,-7.773 18.43,-18.801 18.43,-33.086 0,-11.277 -3.94,-20.488 -11.85,-27.637 -7.89,-7.136 -21.11,-10.711 -39.66,-10.711 h -87.6 c -18.56,0 -31.77,3.575 -39.67,10.711 -7.89,7.149 -11.83,16.485 -11.83,28.02 0,14.031 6.13,24.93 18.41,32.703 6.02,4.004 18.8,5.891 38.35,5.637 v 333.496 h -13.15 c -18.56,0 -31.78,3.57 -39.67,10.711 -7.9,7.148 -11.85,16.484 -11.85,28.015 0,11.274 3.95,20.493 11.85,27.629 7.89,7.149 21.11,10.711 39.67,10.711 h 90.23 V 603.777 c 16.04,9.524 32.27,16.606 48.68,21.243 16.42,4.636 33.03,6.964 49.82,6.964 26.57,0 50.25,-4.511 71.06,-13.539 20.8,-9.019 38.04,-23.25 51.7,-42.672 13.66,-19.433 20.49,-43.937 20.49,-73.507 V 357.512 c 19.55,0 32.34,-1.875 38.35,-5.637 12.03,-7.773 18.05,-18.801 18.05,-33.086 0,-11.277 -3.89,-20.488 -11.66,-27.637 -7.77,-7.136 -20.93,-10.711 -39.48,-10.711 z m -355.06,49.254 c -36.6,-27.578 -77.82,-41.367 -123.7,-41.367 -19.8,0 -39.35,2.883 -58.66,8.656 -19.29,5.758 -38.47,14.414 -57.52,25.938 V 196.594 h 46.25 c 18.55,0 31.77,-3.567 39.66,-10.715 7.9,-7.141 11.85,-16.477 11.85,-28.008 0,-11.277 -3.95,-20.488 -11.85,-27.637 -7.89,-7.136 -21.11,-10.711 -39.66,-10.711 h -136.48 c -18.55,0 -31.77,3.575 -39.67,10.711 -7.89,7.149 -11.83,16.36 -11.83,27.637 0,11.531 4,20.867 12.03,28.008 8.02,7.148 21.17,10.715 39.47,10.715 h 13.16 v 348.164 h -13.16 c -18.55,0 -31.77,3.562 -39.67,10.711 -7.89,7.14 -11.83,16.472 -11.83,28.008 0,11.281 3.94,20.488 11.83,27.636 7.9,7.141 21.12,10.711 39.67,10.711 h 90.23 v -26.316 c 18.05,12.273 36.72,21.433 56.02,27.453 19.31,6.016 39.1,9.023 59.41,9.023 52.64,0 97.5,-17.863 134.59,-53.586 37.1,-35.71 55.65,-76.64 55.65,-122.753 0,-50.887 -21.93,-92.864 -65.79,-125.95 z m -520.49,-47 c -10.28,-9.773 -24.44,-14.66 -42.49,-14.66 -18.05,0 -32.21,4.887 -42.48,14.66 -10.27,9.778 -15.41,21.934 -15.41,36.477 0,14.527 5.14,26.687 15.41,36.465 10.27,9.773 24.43,14.668 42.48,14.668 18.05,0 32.21,-4.895 42.49,-14.668 10.27,-9.778 15.42,-21.938 15.42,-36.465 0,-14.543 -5.15,-26.699 -15.42,-36.477 z M 4492.58,880.797 H 3088.59 c -93.94,0 -170.08,-76.149 -170.08,-170.078 V 170.078 C 2918.51,76.1445 2994.65,0 3088.59,0 h 1403.99 c 93.94,0 170.08,76.1445 170.08,170.078 v 540.641 c 0,93.929 -76.14,170.078 -170.08,170.078" /></g></g></g></g></svg>