<?xml version="1.0" encoding="UTF-8" ?>
<!DOCTYPE svg PUBLIC "-//W3C//DTD SVG 1.1//EN" "http://www.w3.org/Graphics/SVG/1.1/DTD/svg11.dtd">
<svg width="601pt" height="466pt" viewBox="0 0 601 466" version="1.1" xmlns="http://www.w3.org/2000/svg">
<path fill="#fefefe" d=" M 0.00 0.00 L 311.38 0.00 C 276.95 1.58 242.28 16.87 221.10 44.63 C 211.07 43.49 200.97 44.13 190.95 45.05 C 152.47 48.68 115.22 63.27 83.99 85.95 C 51.86 109.26 26.58 141.07 8.14 176.01 C 2.68 189.54 1.58 204.33 0.00 218.70 L 0.00 0.00 Z" />
<path fill="#050607" d=" M 311.38 0.00 L 327.23 0.00 C 355.73 1.59 383.43 10.05 409.32 21.77 C 413.00 23.55 416.25 26.07 419.47 28.56 C 443.48 47.55 461.21 74.39 469.05 104.00 C 475.29 127.03 475.45 151.35 471.70 174.82 C 480.00 184.05 485.00 196.50 483.96 209.00 C 482.86 223.00 475.09 236.76 462.70 243.74 C 455.29 248.18 446.66 250.62 437.98 250.03 C 437.37 253.64 436.85 257.26 436.26 260.87 C 446.19 272.83 455.06 285.77 466.57 296.34 C 474.92 304.21 484.14 311.24 494.33 316.55 C 496.24 317.62 498.27 318.55 499.96 319.97 C 502.05 322.73 503.57 326.30 502.61 329.80 C 501.96 331.66 501.02 333.40 500.19 335.18 C 493.39 339.07 485.68 340.91 478.02 342.16 C 460.85 345.06 442.83 343.39 426.78 336.48 C 432.47 351.22 441.23 365.29 454.00 374.88 C 458.00 378.13 463.59 379.17 468.46 377.43 C 474.34 375.15 479.21 370.98 483.88 366.84 C 493.25 358.22 501.75 348.72 510.42 339.41 C 518.71 330.45 525.47 319.45 526.95 307.13 C 527.24 302.55 527.92 297.58 525.59 293.38 C 519.68 280.97 516.39 266.95 518.58 253.22 C 519.62 248.08 521.59 242.96 525.02 238.93 C 528.66 235.60 533.90 233.32 538.86 234.75 C 543.21 236.14 546.98 238.79 550.81 241.22 C 561.63 248.13 572.24 255.43 583.57 261.51 C 586.77 263.22 590.12 264.66 593.19 266.62 C 597.64 269.31 599.87 274.44 601.00 279.32 L 601.00 286.36 C 598.04 300.51 588.92 312.20 580.25 323.34 C 576.43 331.57 573.53 340.24 569.46 348.38 C 555.24 378.41 535.65 406.88 508.20 426.24 C 490.50 438.77 469.78 447.44 448.10 449.61 C 433.63 450.89 417.75 449.62 405.78 440.54 C 406.65 446.75 405.11 454.03 399.41 457.52 C 395.57 460.09 390.69 459.16 386.77 457.30 C 376.66 459.49 366.32 460.55 356.00 460.99 C 346.50 460.73 336.88 461.78 327.48 459.95 C 323.34 462.96 318.69 465.49 313.51 466.00 L 301.64 466.00 C 293.76 465.19 285.82 463.47 277.89 464.55 C 270.87 465.22 263.17 464.02 257.70 459.24 C 254.13 455.47 252.36 450.18 252.48 445.03 C 252.68 438.63 253.87 432.32 254.85 426.01 C 240.43 425.42 225.94 426.64 211.56 425.07 C 213.92 433.33 216.31 442.79 212.11 450.87 C 209.65 456.66 203.06 459.48 197.08 459.49 C 184.04 459.44 171.06 460.71 158.09 461.89 C 150.05 461.91 141.99 463.26 133.97 462.05 C 128.80 461.81 124.13 459.20 120.24 455.94 C 108.37 462.46 94.30 463.83 81.03 462.20 C 72.97 461.63 65.00 460.13 56.93 459.71 C 51.51 459.43 45.61 457.06 43.05 451.97 C 37.92 442.84 39.07 432.00 39.07 421.94 C 40.16 407.40 42.06 392.90 44.76 378.56 C 19.16 339.25 2.59 293.66 0.00 246.65 L 0.00 218.70 C 1.58 204.33 2.68 189.54 8.14 176.01 C 26.58 141.07 51.86 109.26 83.99 85.95 C 115.22 63.27 152.47 48.68 190.95 45.05 C 200.97 44.13 211.07 43.49 221.10 44.63 C 242.28 16.87 276.95 1.58 311.38 0.00 Z" />
<path fill="#fefefe" d=" M 327.23 0.00 L 601.00 0.00 L 601.00 279.32 C 599.87 274.44 597.64 269.31 593.19 266.62 C 590.12 264.66 586.77 263.22 583.57 261.51 C 572.24 255.43 561.63 248.13 550.81 241.22 C 546.98 238.79 543.21 236.14 538.86 234.75 C 533.90 233.32 528.66 235.60 525.02 238.93 C 521.59 242.96 519.62 248.08 518.58 253.22 C 516.39 266.95 519.68 280.97 525.59 293.38 C 527.92 297.58 527.24 302.55 526.95 307.13 C 525.47 319.45 518.71 330.45 510.42 339.41 C 501.75 348.72 493.25 358.22 483.88 366.84 C 479.21 370.98 474.34 375.15 468.46 377.43 C 463.59 379.17 458.00 378.13 454.00 374.88 C 441.23 365.29 432.47 351.22 426.78 336.48 C 442.83 343.39 460.85 345.06 478.02 342.16 C 485.68 340.91 493.39 339.07 500.19 335.18 C 501.02 333.40 501.96 331.66 502.61 329.80 C 503.57 326.30 502.05 322.73 499.96 319.97 C 498.27 318.55 496.24 317.62 494.33 316.55 C 484.14 311.24 474.92 304.21 466.57 296.34 C 455.06 285.77 446.19 272.83 436.26 260.87 C 436.85 257.26 437.37 253.64 437.98 250.03 C 446.66 250.62 455.29 248.18 462.70 243.74 C 475.09 236.76 482.86 223.00 483.96 209.00 C 485.00 196.50 480.00 184.05 471.70 174.82 C 475.45 151.35 475.29 127.03 469.05 104.00 C 461.21 74.39 443.48 47.55 419.47 28.56 C 416.25 26.07 413.00 23.55 409.32 21.77 C 383.43 10.05 355.73 1.59 327.23 0.00 Z" />
<path fill="#fefefe" d=" M 302.37 26.38 C 306.59 24.13 311.16 28.91 311.57 33.06 C 312.61 30.45 313.45 26.78 316.82 26.39 C 319.59 27.24 322.49 30.68 320.65 33.56 C 319.11 35.64 316.87 37.03 314.92 38.69 C 319.32 37.88 323.88 35.97 328.32 37.63 C 328.16 41.72 325.36 45.00 321.40 46.00 L 320.25 44.57 C 321.05 47.82 325.97 48.38 326.25 52.02 C 326.82 54.89 323.59 57.03 321.02 56.39 C 317.30 55.68 314.34 53.15 311.52 50.79 C 312.19 53.31 313.68 56.05 312.60 58.67 C 310.76 60.44 307.29 60.63 305.62 58.52 C 304.09 56.92 304.52 54.57 304.36 52.57 C 303.58 54.30 302.81 56.04 301.71 57.60 C 299.52 62.63 291.19 56.89 293.78 52.70 C 294.78 50.63 296.77 49.35 298.46 47.90 C 295.48 48.23 291.16 49.98 289.09 46.85 C 288.79 44.76 288.98 42.25 290.77 40.85 C 292.34 39.21 294.78 39.95 296.79 39.91 C 295.01 38.24 293.76 36.15 292.75 33.95 C 295.47 31.48 299.33 30.28 302.88 31.67 C 302.57 29.93 302.00 28.16 302.37 26.38 Z" />
<path fill="#fefefe" d=" M 372.21 40.26 C 375.98 39.22 379.75 41.16 382.60 43.50 C 385.84 46.38 386.79 50.79 387.44 54.87 C 388.59 49.98 390.04 43.90 395.03 41.59 C 400.26 40.98 404.95 46.94 404.17 51.94 C 402.67 57.51 396.81 59.81 393.09 63.65 C 400.02 62.76 406.79 59.51 413.87 60.67 C 417.38 61.50 416.40 65.91 415.23 68.30 C 413.06 73.67 407.36 76.82 401.67 76.39 C 406.16 79.00 411.22 81.96 413.09 87.11 C 414.40 91.84 409.75 96.72 404.98 95.98 C 397.71 94.97 391.99 89.80 386.80 85.01 C 388.76 89.98 390.85 95.49 389.00 100.82 C 385.57 102.27 381.30 103.48 378.08 100.89 C 374.20 97.69 374.82 92.09 375.26 87.65 C 372.83 92.73 371.03 99.04 365.90 102.05 C 360.81 101.05 354.46 97.23 355.57 91.17 C 356.94 86.08 361.56 82.87 365.60 79.91 C 361.72 80.94 357.74 81.92 353.71 81.73 C 351.60 81.53 349.21 80.82 348.21 78.77 C 346.78 74.17 348.56 68.21 353.19 66.16 C 356.75 64.62 360.61 66.05 363.94 67.49 C 361.01 64.95 357.92 62.34 356.15 58.81 C 355.17 56.96 355.01 54.10 356.97 52.82 C 361.55 49.69 368.02 48.44 372.86 51.74 C 371.81 48.13 369.68 43.73 372.21 40.26 Z" />
<path fill="#5aa0bf" d=" M 93.55 91.59 C 127.96 67.39 169.91 53.87 212.02 54.17 C 221.33 53.99 230.18 57.10 239.10 59.29 C 245.34 61.10 251.90 62.13 257.67 65.26 C 261.95 67.54 266.18 69.88 270.46 72.15 C 262.10 83.73 256.81 97.21 253.11 110.92 C 247.58 131.73 246.18 153.42 246.87 174.87 C 247.67 195.88 250.54 216.79 255.04 237.32 C 257.19 212.60 261.32 187.98 268.41 164.18 C 276.44 137.98 287.78 111.33 308.78 92.85 C 342.89 111.20 376.92 129.68 411.05 147.98 C 412.87 149.04 415.06 149.92 416.04 151.93 C 419.00 157.62 421.17 163.69 422.86 169.86 C 429.52 189.83 430.60 211.20 429.57 232.08 C 428.83 239.02 428.05 245.96 427.37 252.91 C 425.16 263.48 423.78 274.25 420.50 284.58 C 417.68 294.99 411.96 304.82 412.36 315.91 C 413.07 331.05 418.75 345.60 426.40 358.55 C 432.78 368.82 440.56 378.69 451.05 385.00 C 457.19 388.79 465.06 389.48 471.80 386.94 C 479.60 384.09 486.04 378.63 492.12 373.13 C 497.75 368.07 502.80 362.43 507.99 356.95 C 514.52 349.81 521.64 343.09 526.84 334.86 C 534.49 323.18 538.92 308.94 537.01 294.92 C 536.81 293.65 536.25 292.48 535.72 291.33 C 530.09 280.24 526.63 267.56 528.47 255.08 C 529.25 251.29 530.45 247.04 533.82 244.74 C 536.13 243.43 538.48 245.45 540.46 246.50 C 555.57 256.18 570.35 266.54 586.58 274.30 C 592.61 277.31 591.56 285.34 589.49 290.58 C 585.75 299.80 579.76 307.88 573.43 315.47 C 572.20 316.97 571.08 318.58 570.38 320.40 C 558.61 352.08 541.87 382.72 517.02 406.06 C 502.31 419.83 484.67 430.73 465.19 436.20 C 451.54 439.96 436.87 441.48 422.99 438.04 C 417.36 436.76 412.65 433.26 408.17 429.80 C 389.51 414.16 372.91 396.18 357.78 377.13 C 356.35 375.24 353.96 373.45 351.50 374.50 C 344.77 376.69 339.71 381.91 334.33 386.25 C 331.88 388.45 328.92 390.04 326.61 392.40 C 324.92 395.26 324.61 398.69 324.24 401.93 C 323.51 412.13 323.66 422.37 323.77 432.59 C 320.88 430.77 317.57 428.91 314.03 429.72 C 310.76 430.09 308.33 432.41 306.04 434.54 C 303.53 432.14 300.65 429.67 296.98 429.57 C 292.81 429.18 289.30 431.79 286.52 434.58 C 283.49 431.07 278.76 428.46 274.04 429.96 C 268.23 431.39 264.93 437.33 264.43 442.94 C 263.90 446.83 265.62 450.46 266.82 454.04 C 265.44 452.48 263.35 451.23 263.02 449.01 C 261.66 441.33 264.35 433.74 264.99 426.13 C 265.25 423.19 264.48 419.78 261.85 418.08 C 258.90 416.25 255.34 415.92 251.95 415.77 C 235.96 415.12 219.81 416.89 203.96 414.04 C 195.90 412.93 187.92 411.31 180.05 409.20 C 168.05 406.26 156.16 402.08 143.68 401.88 C 147.17 391.77 150.68 381.65 153.38 371.29 C 156.52 358.39 152.22 344.82 145.09 334.01 C 142.38 330.21 139.98 325.81 135.87 323.36 C 133.95 322.02 131.72 323.45 129.72 323.81 C 128.96 326.23 127.85 329.11 129.93 331.24 C 136.71 339.52 143.01 348.99 143.99 359.94 C 144.64 366.07 142.44 371.95 140.73 377.72 C 138.02 387.44 133.77 396.71 131.83 406.64 C 130.26 408.87 128.46 411.07 127.78 413.78 C 126.70 417.92 127.34 422.25 127.61 426.46 C 124.89 425.36 121.95 424.17 118.98 424.99 C 115.94 425.48 113.66 427.67 111.53 429.70 C 108.85 426.74 105.19 424.30 101.01 424.79 C 97.38 424.86 94.52 427.29 92.07 429.70 C 88.37 425.12 81.57 423.01 76.40 426.46 C 68.17 431.87 68.11 444.86 74.77 451.60 C 68.27 450.50 61.71 449.96 55.15 449.43 C 51.37 448.83 50.41 444.37 49.75 441.22 C 48.43 432.74 49.01 424.08 49.75 415.57 C 50.84 402.34 53.11 389.25 55.37 376.18 C 26.38 333.40 8.76 282.03 10.00 230.05 C 9.83 217.99 11.20 205.93 13.44 194.08 C 14.49 189.43 15.20 184.62 17.22 180.26 C 35.72 145.61 61.21 114.20 93.55 91.59 Z" />
<path fill="#fefefe" d=" M 278.48 89.69 C 283.45 86.95 290.10 91.62 289.13 97.23 C 288.79 102.36 282.44 105.55 278.09 102.86 C 272.99 100.28 273.18 91.94 278.48 89.69 Z" />
<path fill="#fefefe" d=" M 433.71 98.63 C 438.71 98.20 442.41 102.37 442.85 107.08 C 443.81 104.47 444.36 101.27 446.97 99.75 C 449.93 99.30 451.98 102.38 452.52 104.92 C 452.65 108.98 448.63 111.04 446.11 113.53 C 450.32 112.92 454.71 110.43 458.93 112.09 C 460.40 116.80 456.11 121.79 451.28 121.66 C 453.89 123.49 457.29 125.49 457.53 129.03 C 457.85 131.60 455.59 134.10 452.96 133.79 C 448.82 133.42 445.83 130.16 442.89 127.57 C 443.87 130.54 444.35 133.65 444.16 136.78 C 442.03 137.54 439.20 138.62 437.33 136.74 C 435.31 134.82 435.83 131.82 435.77 129.33 C 434.53 132.23 433.34 135.28 431.07 137.56 C 427.94 137.39 424.76 134.99 424.49 131.70 C 424.85 128.32 427.58 125.94 430.06 123.94 C 427.20 124.47 423.78 125.94 421.13 123.99 C 419.32 121.69 420.24 118.05 422.06 115.99 C 423.86 114.00 426.72 114.88 428.96 115.45 C 426.83 113.40 423.44 110.40 425.05 107.14 C 427.53 104.94 431.12 104.31 434.21 105.56 C 433.65 103.29 433.43 100.96 433.71 98.63 Z" />
<path fill="#050607" d=" M 166.39 115.49 C 181.61 107.31 198.56 101.43 216.02 101.52 C 224.74 101.76 233.63 103.46 241.33 107.71 C 243.46 108.79 244.44 111.07 245.68 112.97 C 244.67 115.66 242.77 117.71 239.99 118.60 C 233.73 115.43 227.15 112.61 220.06 112.11 C 203.33 110.80 186.88 116.47 172.29 124.22 C 158.66 131.67 147.45 142.92 138.31 155.36 C 129.05 168.22 121.43 182.36 116.50 197.44 C 115.42 200.91 114.35 204.42 114.02 208.06 C 114.58 210.48 116.03 212.58 117.19 214.75 C 123.75 226.19 130.60 237.63 139.52 247.42 C 142.38 250.66 145.92 253.23 149.83 255.05 C 151.93 254.18 154.49 253.90 155.97 251.99 C 159.74 247.41 164.35 243.19 170.09 241.32 C 172.13 240.64 174.12 241.71 176.03 242.33 C 176.48 243.63 176.95 244.94 177.43 246.24 C 175.47 251.65 169.07 252.51 165.70 256.69 C 162.39 259.91 162.88 264.84 161.95 269.01 C 161.03 273.87 160.45 279.30 163.39 283.64 C 166.51 287.99 171.91 289.61 176.31 292.32 C 182.40 283.94 191.32 278.20 200.28 273.31 C 202.70 271.78 205.56 272.16 208.03 273.36 C 208.29 274.03 208.80 275.36 209.06 276.03 C 209.19 276.78 209.32 277.54 209.45 278.30 C 206.25 283.04 200.48 284.69 196.13 288.09 C 190.93 291.34 186.79 295.90 182.87 300.54 C 183.27 305.35 181.95 310.77 185.01 314.97 C 189.26 321.07 195.58 325.28 201.63 329.43 C 208.84 334.01 217.10 338.13 225.89 337.34 C 232.10 336.95 237.39 332.69 240.54 327.55 C 244.79 321.07 245.72 313.22 247.59 305.87 C 250.23 295.68 252.36 285.33 255.84 275.38 C 258.43 274.43 261.16 274.28 263.78 275.27 C 264.50 277.76 265.13 280.40 264.19 282.94 C 261.02 294.61 258.11 306.35 255.39 318.14 C 253.64 325.77 250.44 333.27 244.94 338.98 C 238.86 345.39 229.74 348.72 220.95 347.86 C 211.17 346.86 202.11 342.42 194.04 337.00 C 188.17 333.00 182.41 328.65 177.91 323.10 C 174.67 319.14 172.61 314.11 172.76 308.95 C 172.54 306.55 173.55 303.41 171.15 301.82 C 166.22 298.06 159.73 296.37 155.92 291.18 C 149.83 283.98 150.34 273.84 152.09 265.15 C 142.46 265.68 135.05 258.47 129.27 251.71 C 120.87 241.77 114.05 230.60 107.70 219.28 C 105.82 215.78 103.53 212.16 103.74 208.02 C 103.93 202.35 105.75 196.91 107.49 191.56 C 113.27 175.01 121.82 159.45 132.52 145.57 C 141.87 133.64 153.07 122.90 166.39 115.49 Z" />
<path fill="#fefefe" d=" M 264.47 113.81 C 269.59 111.45 275.77 116.57 274.45 122.05 C 273.81 127.55 266.52 129.99 262.45 126.47 C 258.12 123.21 259.27 115.48 264.47 113.81 Z" />
<path fill="#050607" d=" M 323.06 122.32 C 335.19 119.50 348.35 121.82 359.07 128.02 C 362.50 129.83 361.77 133.98 360.91 137.06 C 358.14 137.61 355.20 138.01 352.69 136.38 C 341.47 130.37 327.25 129.87 315.93 135.86 C 309.73 139.01 304.43 143.65 299.76 148.75 C 298.26 150.50 296.20 151.54 294.15 152.49 C 292.77 151.85 291.38 151.22 290.00 150.61 C 289.15 148.03 288.80 145.03 290.90 142.93 C 299.20 133.08 310.31 125.07 323.06 122.32 Z" />
<path fill="#fefefe" d=" M 253.53 138.73 C 258.12 135.67 265.21 139.32 264.79 144.98 C 265.23 150.31 258.91 154.25 254.23 151.77 C 249.05 149.56 248.56 141.46 253.53 138.73 Z" />
<path fill="#050607" d=" M 331.54 142.70 C 346.81 140.12 362.86 144.70 375.05 154.11 C 384.40 161.19 390.84 171.60 394.26 182.72 C 398.57 197.40 396.59 213.77 388.87 226.98 C 380.95 241.42 365.99 251.34 349.91 254.22 C 336.14 256.76 321.60 253.71 309.79 246.26 C 296.11 238.04 286.99 223.32 284.34 207.72 C 283.36 199.67 283.42 191.34 285.63 183.48 C 289.03 172.11 295.50 161.42 305.02 154.15 C 312.74 148.25 321.90 144.13 331.54 142.70 Z" />
<path fill="#fefefe" d=" M 331.25 153.13 C 343.59 150.77 356.89 153.50 367.07 160.93 C 376.64 167.73 383.42 178.33 385.55 189.89 C 387.89 202.21 385.10 215.50 377.67 225.64 C 370.77 235.45 359.79 242.27 347.96 244.22 C 335.88 246.48 322.97 243.35 313.05 236.15 C 302.02 228.40 294.96 215.49 293.96 202.09 C 292.90 188.49 298.17 174.49 308.13 165.12 C 314.47 158.99 322.59 154.78 331.25 153.13 Z" />
<path fill="#fefefe" d=" M 429.61 158.05 C 431.93 159.30 434.27 160.55 436.63 161.73 C 434.82 161.90 433.03 162.08 431.23 162.27 C 430.68 160.86 430.14 159.46 429.61 158.05 Z" />
<path fill="#fefefe" d=" M 254.37 167.44 C 259.29 165.12 265.71 169.46 264.78 174.99 C 264.67 180.70 257.10 183.69 252.85 180.15 C 248.47 176.99 249.42 169.52 254.37 167.44 Z" />
<path fill="#fefefe" d=" M 434.22 172.01 C 441.01 171.27 448.04 171.88 454.26 174.88 C 464.19 179.48 471.64 189.07 473.43 199.90 C 475.14 209.22 472.75 219.23 466.93 226.73 C 460.42 235.29 449.66 240.47 438.89 240.04 C 439.04 236.78 439.48 233.55 439.84 230.31 C 442.19 230.17 444.90 230.56 446.80 228.84 C 450.84 225.96 450.42 219.10 446.20 216.60 C 444.37 215.37 442.08 215.57 440.00 215.55 C 439.73 200.89 437.88 186.23 434.22 172.01 Z" />
<path fill="#050607" d=" M 331.44 216.51 C 335.46 213.97 341.54 216.36 342.45 221.11 C 344.01 226.02 339.09 231.39 334.03 230.24 C 327.39 229.64 325.48 219.51 331.44 216.51 Z" />
<path fill="#fefefe" d=" M 0.00 246.65 C 2.59 293.66 19.16 339.25 44.76 378.56 C 42.06 392.90 40.16 407.40 39.07 421.94 C 39.07 432.00 37.92 442.84 43.05 451.97 C 45.61 457.06 51.51 459.43 56.93 459.71 C 65.00 460.13 72.97 461.63 81.03 462.20 C 94.30 463.83 108.37 462.46 120.24 455.94 C 124.13 459.20 128.80 461.81 133.97 462.05 C 141.99 463.26 150.05 461.91 158.09 461.89 C 171.06 460.71 184.04 459.44 197.08 459.49 C 203.06 459.48 209.65 456.66 212.11 450.87 C 216.31 442.79 213.92 433.33 211.56 425.07 C 225.94 426.64 240.43 425.42 254.85 426.01 C 253.87 432.32 252.68 438.63 252.48 445.03 C 252.36 450.18 254.13 455.47 257.70 459.24 C 263.17 464.02 270.87 465.22 277.89 464.55 C 285.82 463.47 293.76 465.19 301.64 466.00 L 0.00 466.00 L 0.00 246.65 Z" />
<path fill="#050607" d=" M 288.54 274.66 C 292.97 265.30 302.77 259.20 312.90 258.09 C 320.35 257.92 328.79 257.09 335.06 261.99 C 337.94 265.55 338.88 270.18 340.71 274.30 C 350.25 296.36 367.35 315.01 388.34 326.67 C 391.09 328.18 394.03 329.92 395.04 333.11 C 397.07 337.13 395.16 341.45 393.17 345.04 C 389.30 347.06 385.20 348.69 380.86 349.31 C 363.22 352.80 344.87 350.03 328.10 344.00 C 314.19 338.93 301.21 331.50 289.40 322.60 C 285.63 320.01 283.63 315.52 283.19 311.08 C 282.51 298.79 282.30 285.72 288.54 274.66 Z" />
<path fill="#fefefe" d=" M 306.42 270.50 C 313.05 267.08 320.85 267.65 327.94 269.07 C 337.39 298.48 359.26 323.29 386.59 337.47 C 366.55 343.48 344.76 340.28 325.77 332.20 C 314.44 327.24 303.56 320.96 294.07 313.00 C 292.33 304.89 292.64 296.32 294.28 288.21 C 295.83 281.09 299.60 273.79 306.42 270.50 Z" />
<path fill="#050607" d=" M 541.49 268.82 C 550.81 273.86 560.13 279.09 568.42 285.73 C 572.45 288.88 575.43 294.89 572.72 299.76 C 570.23 302.05 567.25 299.40 565.21 297.84 C 557.80 291.62 549.13 286.43 543.76 278.16 C 541.81 275.45 541.52 272.06 541.49 268.82 Z" />
<path fill="#fefefe" d=" M 433.61 273.62 C 444.11 287.78 455.52 301.50 469.49 312.40 C 476.97 318.34 485.11 323.44 493.68 327.66 C 475.06 334.45 453.98 335.64 435.18 328.89 C 431.15 327.28 426.92 325.85 423.46 323.16 C 422.44 316.11 422.36 308.58 425.11 301.87 C 428.66 292.69 431.58 283.26 433.61 273.62 Z" />
<path fill="#fefefe" d=" M 580.25 323.34 C 588.92 312.20 598.04 300.51 601.00 286.36 L 601.00 466.00 L 313.51 466.00 C 318.69 465.49 323.34 462.96 327.48 459.95 C 336.88 461.78 346.50 460.73 356.00 460.99 C 366.32 460.55 376.66 459.49 386.77 457.30 C 390.69 459.16 395.57 460.09 399.41 457.52 C 405.11 454.03 406.65 446.75 405.78 440.54 C 417.75 449.62 433.63 450.89 448.10 449.61 C 469.78 447.44 490.50 438.77 508.20 426.24 C 535.65 406.88 555.24 378.41 569.46 348.38 C 573.53 340.24 576.43 331.57 580.25 323.34 Z" />
<path fill="#5aa0bf" d=" M 335.46 398.48 C 341.02 394.68 345.91 390.04 351.24 385.94 C 363.88 401.24 377.03 416.23 391.90 429.41 C 388.70 430.02 385.95 431.70 383.90 434.21 C 381.29 431.54 377.99 429.12 374.05 429.36 C 370.83 429.11 368.16 431.06 365.55 432.62 C 365.39 433.15 365.08 434.21 364.93 434.74 C 362.88 432.82 360.85 430.71 358.15 429.74 C 355.73 429.28 353.26 429.50 350.82 429.52 C 343.14 433.24 339.96 442.96 342.96 450.74 C 339.68 450.71 336.40 450.71 333.12 450.73 C 333.27 445.14 334.49 439.63 334.33 434.03 C 334.25 425.71 334.32 417.38 334.27 409.06 C 334.20 405.49 334.62 401.94 335.46 398.48 Z" />
<path fill="#5aa0bf" d=" M 138.37 415.05 C 140.89 413.20 143.85 411.77 147.07 412.44 C 158.26 413.76 169.07 417.15 179.95 419.98 C 186.73 421.67 193.61 422.96 200.48 424.25 C 201.02 425.39 201.57 426.55 202.14 427.69 C 199.06 424.71 194.89 424.20 190.79 424.51 C 188.51 425.92 186.40 427.56 184.51 429.46 C 182.62 427.55 180.45 425.96 178.21 424.48 C 173.30 424.04 168.14 425.24 165.04 429.36 C 162.29 426.21 158.24 423.87 153.92 424.56 C 149.17 424.97 145.70 428.68 143.79 432.78 C 143.44 433.84 143.08 434.91 142.71 435.97 C 142.01 441.86 143.93 447.59 147.33 452.36 C 144.18 452.46 141.03 452.44 137.89 452.34 C 135.30 451.84 132.70 451.45 130.09 451.17 C 135.15 441.62 140.11 430.99 137.83 419.89 C 137.97 418.27 138.18 416.66 138.37 415.05 Z" />
<path fill="#fefefe" d=" M 80.30 430.16 C 84.69 428.39 89.30 432.72 89.21 437.08 C 89.32 440.73 89.80 445.10 86.60 447.69 C 83.96 450.28 79.32 449.65 77.29 446.61 C 73.54 441.67 74.35 432.97 80.30 430.16 Z" />
<path fill="#fefefe" d=" M 99.34 430.32 C 103.17 428.44 107.43 431.58 108.51 435.31 C 109.77 439.87 109.28 446.15 104.61 448.63 C 101.06 450.78 96.68 447.98 95.47 444.42 C 93.81 439.61 94.43 433.00 99.34 430.32 Z" />
<path fill="#fefefe" d=" M 118.42 430.50 C 121.65 428.64 125.93 430.55 127.24 433.89 C 129.72 438.79 128.79 446.15 123.56 448.85 C 119.95 450.25 115.97 447.73 114.87 444.22 C 112.90 439.60 114.01 433.30 118.42 430.50 Z" />
<path fill="#fefefe" d=" M 153.25 430.18 C 157.54 428.48 162.11 432.67 162.13 436.94 C 162.12 439.95 162.71 443.28 160.92 445.94 C 159.17 449.36 154.16 450.46 151.30 447.79 C 146.38 443.13 146.85 433.31 153.25 430.18 Z" />
<path fill="#fefefe" d=" M 171.48 430.82 C 174.79 428.44 179.48 430.53 180.90 434.09 C 183.06 439.01 182.38 446.47 176.92 448.91 C 172.73 450.66 168.65 446.78 167.93 442.84 C 167.27 438.63 167.56 433.41 171.48 430.82 Z" />
<path fill="#fefefe" d=" M 192.34 430.07 C 196.87 428.56 200.83 432.92 201.31 437.12 C 202.31 441.76 200.34 448.23 195.13 449.21 C 190.44 449.96 187.37 445.13 186.99 441.05 C 186.51 436.87 188.10 431.71 192.34 430.07 Z" />
<path fill="#fefefe" d=" M 274.34 435.25 C 278.35 433.09 282.78 436.74 283.70 440.66 C 284.69 445.21 284.13 451.15 279.52 453.55 C 276.00 455.46 271.78 452.84 270.54 449.36 C 268.60 444.65 269.40 437.80 274.34 435.25 Z" />
<path fill="#fefefe" d=" M 293.39 435.45 C 297.81 432.72 303.33 437.21 303.16 441.94 C 303.12 445.15 303.81 448.87 301.48 451.50 C 299.59 454.12 295.64 455.20 292.97 453.10 C 287.47 449.02 287.62 439.19 293.39 435.45 Z" />
<path fill="#fefefe" d=" M 313.26 435.19 C 316.64 433.49 320.63 435.78 321.97 439.06 C 324.30 444.01 323.17 451.48 317.76 453.91 C 312.91 455.56 308.57 450.52 308.72 445.95 C 308.26 441.91 309.36 437.18 313.26 435.19 Z" />
<path fill="#fefefe" d=" M 350.88 436.04 C 354.19 433.13 359.43 435.23 360.87 439.09 C 362.50 443.48 362.43 449.30 358.66 452.62 C 357.07 454.11 354.82 453.99 352.81 454.20 C 346.46 450.62 345.48 440.85 350.88 436.04 Z" />
<path fill="#fefefe" d=" M 370.15 436.18 C 372.84 433.62 377.42 434.54 379.38 437.53 C 381.62 440.21 381.02 443.86 381.00 447.08 C 380.64 451.33 376.65 454.75 372.35 454.17 C 365.92 450.83 364.99 440.99 370.15 436.18 Z" />
<path fill="#fefefe" d=" M 391.29 435.09 C 394.75 433.73 398.71 436.06 399.81 439.49 C 402.19 444.27 400.85 451.41 395.75 453.83 C 391.74 455.35 387.62 451.76 386.85 447.92 C 385.56 443.35 386.65 437.32 391.29 435.09 Z" />
<path fill="#5aa0bf" d=" M 88.31 452.65 C 89.56 451.49 90.83 450.37 92.13 449.28 C 93.36 450.43 94.60 451.57 95.86 452.71 C 93.34 452.66 90.83 452.66 88.31 452.65 Z" />
<path fill="#5aa0bf" d=" M 305.17 454.21 C 306.17 453.59 308.29 454.46 307.52 455.82 C 306.47 457.54 302.93 455.48 305.17 454.21 Z" />
</svg>
