<?xml version="1.0" encoding="utf-8"?>
<!-- Generator: Adobe Illustrator 17.1.0, SVG Export Plug-In . SVG Version: 6.00 Build 0)  -->
<!DOCTYPE svg PUBLIC "-//W3C//DTD SVG 1.1//EN" "http://www.w3.org/Graphics/SVG/1.1/DTD/svg11.dtd">
<svg version="1.1" id="Layer_1" xmlns="http://www.w3.org/2000/svg" xmlns:xlink="http://www.w3.org/1999/xlink" x="0px" y="0px"
	 width="560.4px" height="225.2px" viewBox="0 0 560.4 225.2" enable-background="new 0 0 560.4 225.2" xml:space="preserve">
<g enable-background="new    ">
	<path fill="#48535B" d="M113.5,145.1c-5.6,8.1-13.1,14.5-22.5,19c-5,2.4-9.7,3.9-14.1,4.5c-4.5,0.6-9.2,0.9-14.1,0.9H37l-7.6,39.1
		H0.3L28.1,65.4H79c3.5,0,6.8,0.1,10,0.2c3.2,0.1,6.2,0.5,9.1,1.1c2.9,0.6,5.7,1.5,8.4,2.7c2.7,1.2,5.2,2.9,7.7,5
		c5.9,5.4,9.5,12.1,10.8,20c1.3,7.9,1.1,16.1-0.6,24.7C122.7,128.3,119,137,113.5,145.1z M92.4,95.6c-3.5-5.3-10-7.9-19.5-7.9h-20
		l-11.6,59.6h17.8c10.3,0,18.4-2.6,24.2-7.7c5.9-5.1,9.8-12.7,11.7-22.6C96.9,107.9,96,100.8,92.4,95.6z"/>
	<path fill="#48535B" d="M196.7,169.4l11.5-59.1c0.8-4.1,1.3-7.6,1.4-10.5c0.1-2.8-0.3-5.2-1.4-7c-1-1.8-2.8-3.2-5.4-3.9
		c-2.6-0.8-6.2-1.2-10.9-1.2h-23.5l-15.9,81.8h-29.2L151.1,27h29.1l-7.5,38.4h29.8c7.2,0,13.5,0.6,18.7,1.9
		c5.2,1.3,9.3,3.4,12.4,6.4c3,3,5,7,5.8,12.1c0.8,5.1,0.5,11.4-1,18.9l-12.6,64.7H196.7z"/>
</g>
<g enable-background="new    ">
	<path fill="#48535B" d="M342.9,145.1c-5.6,8.1-13.1,14.5-22.5,19c-5,2.4-9.7,3.9-14.1,4.5c-4.5,0.6-9.2,0.9-14.1,0.9h-25.7
		l-7.6,39.1h-29.1l27.8-143.1h50.9c3.5,0,6.8,0.1,10,0.2c3.2,0.1,6.2,0.5,9.1,1.1c2.9,0.6,5.7,1.5,8.4,2.7c2.7,1.2,5.2,2.9,7.7,5
		c5.9,5.4,9.5,12.1,10.8,20c1.3,7.9,1.1,16.1-0.6,24.7C352.1,128.3,348.4,137,342.9,145.1z M321.8,95.6c-3.5-5.3-10-7.9-19.5-7.9
		h-20l-11.6,59.6h17.8c10.3,0,18.4-2.6,24.2-7.7c5.9-5.1,9.8-12.7,11.7-22.6C326.3,107.9,325.4,100.8,321.8,95.6z"/>
</g>
<path fill="#00ADEE" d="M544.6,155.9c-1.4,7.4-8.7,13.5-16.1,13.5H366.9c-7.4,0-12.3-6-10.8-13.5l15-77.1
	c1.4-7.4,8.6-13.5,16.1-13.5h161.7c7.4,0,12.3,6,10.9,13.5L544.6,155.9z"/>
<path fill="#FFFFFF" d="M413.8,143.8c-3.4,0-6.4-0.3-9-0.9c-2.6-0.6-5.1-2-7.4-4.1c-3-2.7-4.8-5.9-5.5-9.8
	c-0.7-3.8-0.6-7.9,0.3-12.3c0.4-2,1-4.1,1.8-6.2s1.8-4.2,3-6.1s2.6-3.7,4.2-5.4c1.6-1.7,3.4-3.1,5.4-4.3c2.6-1.6,5.3-2.6,8.1-3.1
	c2.8-0.5,5.6-0.7,8.3-0.7h20l-2.2,11.3h-19.1c-3.6,0-6.4,0.6-8.4,1.9s-3.4,3.8-4.4,7.5H439l-2.2,11.3h-30.1c-0.3,2-0.2,3.7,0.2,4.9
	c0.4,1.3,1.1,2.2,2,2.9c1,0.7,2.2,1.1,3.6,1.4c1.4,0.2,3,0.3,4.9,0.3h17.5l-2.2,11.3L413.8,143.8L413.8,143.8z"/>
<path fill="#FFFFFF" d="M502.8,143.8l6.1-31.4c0.3-1.6,0.5-3,0.6-4.3s-0.1-2.3-0.6-3.2c-0.4-0.9-1.2-1.5-2.2-2s-2.5-0.7-4.3-0.7
	h-7.6l-8.1,41.6h-14.3l8.1-41.6h-15.3l-8.1,41.6h-14.3l10.3-52.9h52.4c1.5,0,3,0,4.6,0.1c1.5,0.1,3,0.3,4.5,0.5
	c1.4,0.3,2.8,0.8,4,1.5s2.3,1.6,3.1,2.8c1.3,1.9,2.1,4.1,2.3,6.7s0.1,5.1-0.4,7.7l-6.5,33.7L502.8,143.8L502.8,143.8z"/>
<line fill="none" x1="-33.6" y1="-96.9" x2="-33.6" y2="312"/>
<line fill="none" x1="577.7" y1="312" x2="577.7" y2="-96.9"/>
<line fill="none" x1="-33.6" y1="312" x2="-33.6" y2="-97.7"/>
<line fill="none" x1="577.7" y1="-97.7" x2="577.7" y2="312"/>
</svg>
