<svg xmlns="http://www.w3.org/2000/svg" width="108.76157" height="123.585" viewBox="0 0 108.76157 ">
  <path d="M105.348 26.4175L82.4195 3.4238c-4.5563-4.565-11.9388-4.565-16.49 0l-9.0088 9.2725c-.9425.9812-1.7962 1.3275-2.5337 1.3525-.7326-.025-1.6064-.3713-2.544-1.3525l-9.0086-9.2725c-4.5563-4.565-11.9388-4.565-16.49 0l-22.93 22.9937c-4.555 4.565-4.55 11.9675 0 16.5325l42.33 42.4413c2.3775 2.3825 5.5312 3.5212 8.6425 3.4187 3.115.1025 6.255-1.0362 8.6324-3.4187L105.348 42.95c4.5514-4.565 4.5514-11.9675 0-16.5325M3.258 121.3488c0 1.1862.689 1.9475 1.8514 1.9475h5.9475c1.045 0 1.665-.785 1.7086-1.5663.0238-.8112-.4987-1.715-1.7087-1.715H6.823v-11.9325c0-1.1925-.761-1.8562-1.7824-1.8562-1.025 0-1.7825.6637-1.7825 1.8562v13.2663M14.8406 121.5875c0 1.1863.7575 1.8513 1.7825 1.8513 1.02 0 1.7826-.665 1.7826-1.8513v-13.505c0-1.1925-.7625-1.8562-1.7825-1.8562-1.025 0-1.7824.6637-1.7824 1.8562v13.505M21.5256 121.3238c-.02.1425-.02.2887-.02.4062 0 1.0438.7575 1.7088 1.7088 1.7088 1.2162 0 1.69-.5475 1.8562-1.66L26.472 112.1h.0486l2.8513 9.9613c.166.5712.62 1.3775 1.9036 1.3775 1.285 0 1.7338-.8063 1.9-1.3775L36.032 112.1h.0486l1.4013 9.6788c.166 1.1125.64 1.66 1.856 1.66.9476 0 1.709-.665 1.709-1.7088 0-.1175 0-.2637-.025-.4062l-2.2064-13.2663c-.1462-.855-1.075-1.8312-2.3337-1.8312-1.1876 0-2.115.855-2.379 1.7137l-2.8024 9.415h-.0487l-2.8076-9.415c-.2588-.8587-1.1863-1.7137-2.3738-1.7137-1.2637 0-2.1875.9762-2.3337 1.8312l-2.2114 13.2663M46.897 116.2113h2.5186c1.665 0 2.52.7625 2.52 1.88 0 1.3337-.9525 2.0662-2.2362 2.0662H46.897v-3.9462zm0-6.7038h1.85c1.05 0 1.9286.5713 1.9286 1.69 0 1.1863-.7612 1.875-1.9287 1.875h-1.85v-3.565zm-3.57 11.9825c0 1.1188.811 1.8063 1.905 1.8063h4.8974c3.2812 0 5.5125-1.8063 5.5125-5.1563 0-2.07-1.5926-3.7587-3.614-4.0425v-.0487c1.524-.7125 2.2126-1.8313 2.2126-3.4963 0-2.52-1.9975-4.185-4.4687-4.185h-4.565c-1.094 0-1.88.645-1.88 1.7825v13.34M58.0194 116.5688c0 4.0425 3.2562 7.0162 7.2262 7.0162 3.9263 0 7.2025-3.0225 7.2025-7.0162v-8.4863c0-1.1925-.756-1.8562-1.7824-1.8562-1.02 0-1.7825.6637-1.7825 1.8562v8.295c0 2.095-1.4736 3.9263-3.6374 3.9263-2.26 0-3.6612-1.7388-3.6612-3.9263v-8.295c0-1.1925-.7625-1.8562-1.7825-1.8562-1.0214 0-1.7826.6637-1.7826 1.8562v8.4863M79.192 109.6488h2.45c1.3036 0 2.2074.7375 2.2074 2.095 0 1.3287-.9038 2.115-2.2075 2.115h-2.45v-4.21zm-3.565 11.9387c0 1.1863.756 1.8513 1.7824 1.8513 1.02 0 1.7825-.665 1.7825-1.8513v-5.1612h.0486l5.2775 6.3975c.3814.4487.9526.615 1.3776.615 1.045 0 1.7825-.9038 1.7825-1.8263 0-.3375-.1424-.6937-.4736-1.05l-4.0438-4.3262c2.4275-.3813 4.4-1.88 4.4-4.4925 0-3.735-2.2612-5.3763-5.9187-5.3763h-4.189c-1.186 0-1.826.7138-1.826 1.8563v13.3637M99.152 113.2625c-.9026 0-1.66.62-1.66 1.6163 0 .9762.6886 1.665 1.66 1.665h2.4274c0 2.715-2.1638 3.76-4.0438 3.76-3.0175 0-4.4675-2.5688-4.4675-5.4688 0-2.8812 1.499-5.4687 4.4676-5.4687 3.115 0 3.4475 1.7337 5.0688 1.7337.83 0 1.47-.64 1.47-1.665 0-1.6612-2.945-3.35-6.5388-3.35-4.8487 0-8.1787 3.8038-8.1787 8.75 0 4.9213 3.355 8.75 8.1786 8.75 4.7563 0 7.7538-3.4475 7.7538-8.0375 0-1.5237-.595-2.285-2.0938-2.285H99.152" fill="#ed1c24"/>
  <path d="M27.1944 27.6138h10.385c1.5.0287 2.7787.2587 3.8387.6975 1.084.44 1.939 1.0887 2.559 1.9387.62.8788 1.005 1.9138 1.161 3.1.1564 1.1625.064 2.495-.2674 3.995-.1325.6925-.3275 1.3813-.5862 2.05-.23.65-.5125 1.3038-.85 1.9775-.3613.645-.7763 1.28-1.24 1.9-.44.595-.9425 1.1475-1.5138 1.665-.6987.6738-1.4062 1.23-2.1287 1.67-.7226.41-1.46.7075-2.2126.8888-.7225.18-1.4688.3225-2.2463.425-.776.0775-1.5474.1162-2.3236.1162h-4.6538l-1.9725 7.3638h-5.39l7.4414-27.7875zm4.185 4.4187l-3.0963 11.625c.049 0 .0876.015.1126.04h.9325c1.2164.0288 2.339-.025 3.369-.1562 1.06-.1275 2.016-.3225 2.871-.5813.825-.2837 1.5476-.8887 2.1676-1.8212.6213-.9275 1.1388-2.2075 1.5538-3.8338.3075-1.3712.3712-2.4412.19-3.2175-.1813-.7762-.605-1.2637-1.2788-1.4737-.67-.2063-1.4462-.3475-2.325-.425-.85-.1025-1.7962-.1563-2.8275-.1563-.156.0288-.3124.0388-.4636.0388h-1.205v-.0388zM52.8244 20.2113h5.3512l-1.9775 7.4025h4.805c1.289.0287 2.4164.18 3.369.4687.9574.2588 1.7486.6438 2.3686 1.1613.62.5175.9913 1.265 1.1225 2.2462.1276.9813.01 2.1975-.351 3.6425l-3.4476 12.905h-5.425l3.2912-12.3237c.18-.645.2588-1.2013.2338-1.665 0-.4638-.0925-.825-.2725-1.0838-.205-.2837-.5276-.4937-.9676-.62-.4388-.1325-.9963-.1962-1.665-.1962L54.997 32.11l-4.2626 15.9275H45.383l7.4414-27.8262zM74.2006 27.6138H84.587c1.4986.0287 2.7786.2587 3.8374.6975 1.0837.44 1.9387 1.0887 2.5587 1.9387.62.8788 1.0064 1.9138 1.1626 3.1.1513 1.1625.0638 2.495-.2737 3.995-.1264.6925-.3226 1.3813-.5814 2.05-.2337.65-.5175 1.3038-.8537 1.9775-.3614.645-.7726 1.28-1.2364 1.9-.4387.595-.9462 1.1475-1.5137 1.665-.6976.6738-1.4064 1.23-2.134 1.67-.7224.41-1.46.7075-2.206.8888-.7226.18-1.475.3225-2.2464.425-.7762.0775-1.5525.1162-2.3287.1162h-4.649l-1.9774 7.3638h-5.3862l7.4412-27.7875zm4.185 4.4187l-3.1 11.625c.0525 0 .0925.015.1163.04h.9274c1.2162.0288 2.34-.025 3.375-.1562 1.0587-.1275 2.0162-.3225 2.8662-.5813.83-.2837 1.5525-.8887 2.1725-1.8212.62-.9275 1.1376-2.2075 1.5476-3.8338.3125-1.3712.3763-2.4412.195-3.2175-.18-.7762-.605-1.2637-1.2787-1.4737-.674-.2063-1.445-.3475-2.324-.425-.855-.1025-1.7974-.1563-2.8324-.1563-.1512.0288-.3075.0388-.4637.0388h-1.2014v-.0388z" fill="#fff"/>
</svg>
