<svg xmlns="http://www.w3.org/2000/svg" width="320" height="84" viewBox="0 0 320 84" stroke-miterlimit="10" fill="none" stroke-linecap="square">
  <path d="M32.8036 44.188q0 4.4375-1.2657 7.672-1.25 3.2343-3.4844 5.3905-2.2344 2.1406-5.2813 3.172-3.047 1.031-6.625 1.031-1.2187 0-2.422-.1717-1.203-.1563-2.1874-.4063v12.5938h-7.75V28.6255h6.703l.1876 4.7656q.9843-1.2342 2.0468-2.25 1.0625-1.0155 2.297-1.7342 1.25-.7188 2.6718-1.0938 1.422-.375 3.203-.375 2.8595 0 5.0782 1.1406 2.2188 1.1407 3.7188 3.25 1.5156 2.1094 2.3125 5.1094.797 3 .797 6.75zm-8.125.3125q0-2.672-.3907-4.5312-.375-1.875-1.0938-3.0782-.703-1.2186-1.7344-1.7655-1.0312-.5625-2.375-.5625-1.9687 0-3.7656 1.5938-1.7813 1.578-3.7813 4.3125V54.563q.9218.3438 2.2656.578 1.3593.219 2.75.219 1.8437 0 3.3437-.7657 1.5156-.7657 2.578-2.1563 1.0626-1.4062 1.625-3.422.5783-2.0155.5783-4.5155zM58.94 60.8755V39.86q0-5.297-3.9375-5.297-1.9687 0-3.7656 1.5938-1.7813 1.578-3.7813 4.3125v20.4062h-7.75V16.0318h7.75v11.0468l-.375 5.8282q.9843-1.172 2-2.1094 1.0156-.9375 2.1875-1.5625 1.1718-.6407 2.5312-.969 1.375-.328 3.0156-.328 2.4844 0 4.3125.8125 1.8438.797 3.0782 2.2813 1.25 1.4687 1.8593 3.5468.625 2.0782.625 4.6563v21.6405h-7.75zm45.699-16.6875q0 4.4375-1.2656 7.672-1.25 3.2343-3.4844 5.3905-2.2344 2.1406-5.2813 3.172-3.0468 1.031-6.625 1.031-1.2187 0-2.4218-.1717-1.2033-.1563-2.1876-.4063v12.5938h-7.75V28.6255h6.703l.1876 4.7656q.9844-1.2342 2.047-2.25 1.0624-1.0155 2.2967-1.7342 1.25-.7188 2.672-1.0938 1.4218-.375 3.203-.375 2.8594 0 5.0782 1.1406 2.2186 1.1407 3.7186 3.25 1.5156 2.1094 2.3125 5.1094.797 3 .797 6.75zm-8.125.3125q0-2.672-.3906-4.5312-.375-1.875-1.0938-3.0782-.703-1.2186-1.7344-1.7655-1.0312-.5625-2.375-.5625-1.9687 0-3.7656 1.5938-1.7812 1.578-3.7812 4.3125V54.563q.9218.3438 2.2656.578 1.3594.219 2.75.219 1.8437 0 3.3437-.7657 1.5157-.7657 2.5782-2.1563 1.0624-1.4062 1.625-3.422.578-2.0155.578-4.5155z" fill="#000"/>
  <path d="M129.409 79.6484h-19.9845V4.3516h19.9844v5.6718h-13.2657v63.9532h13.2656v5.6718zM316.212 79.6484h-19.9843v-5.6718h13.172V10.0234h-13.172V4.3516h19.9844v75.2968z" fill="#6aa84f"/>
  <path d="M153.5632 66.655h-5.8593l-.875-27.453-.375-10.547-2.047 6.125-6.5 17.5156h-4.1563l-6.1875-16.8437-2.0625-6.797-.125 11.0156-.7812 26.9844h-5.6563l2.1563-44.0312h7.1094l5.9217 16.578 1.922 5.5938 1.8593-5.5937 6.2343-16.5782h7.297l2.125 44.0312zm18.742-28.9687h-10V32.827h15.9375v28.9374h10.078v4.8906h-27.125v-4.8906h11.1095v-24.078zm2.0625-19.047q.9843 0 1.8125.3595.8437.3593 1.4687 1 .625.6406.9687 1.4687.3593.8125.3593 1.797 0 .9374-.3593 1.781-.3438.844-.9688 1.4845-.625.6406-1.4688 1-.8282.3438-1.8125.3438-.9844 0-1.8282-.3438-.828-.3594-1.453-1-.625-.6406-.9845-1.4844-.3437-.8437-.3437-1.7812 0-.9844.3437-1.797.3594-.828.9844-1.4686.625-.6407 1.453-1 .844-.3594 1.8283-.3594zm53.117 48.0157h-7.8282l-12.8282-27.453-3.703-8.8282V66.655h-5.5938V22.6238h7.703l12.2345 26 4.4218 10.078V22.624h5.5938V66.655zm39.6324-22.5q0 3.1563-.5 6.0625-.4842 2.8906-1.5624 5.3906-1.078 2.4845-2.7968 4.5314-1.7188 2.0312-4.2188 3.4844-2.4844 1.453-5.797 2.25-3.2967.7812-7.5.7812h-9.4374V22.6238h11.3594q10.3125 0 15.375 5.3125 5.078 5.2968 5.078 16.2187zm-6.3124.4375q0-4.6875-.875-7.922-.875-3.2342-2.6562-5.2186-1.7813-2-4.4844-2.8907-2.6875-.8907-6.328-.8907h-5.1564v33.797h4.4844q15.0156 0 15.0156-16.875zm42.5388 10.1406q0 3.125-1.2812 5.4845-1.2813 2.3594-3.5782 3.9375-2.2812 1.5625-5.5 2.3438-3.2187.7656-7.0937.7656-1.75 0-3.4844-.1406-1.7344-.125-3.3438-.3282-1.5938-.203-3.0157-.4687-1.4062-.2814-2.5624-.5782v-5.797q2.5313.9376 5.672 1.4845 3.1562.5312 7.1718.5312 2.8906 0 4.922-.453 2.0468-.4532 3.3436-1.344 1.297-.8905 1.8907-2.1717.5938-1.2813.5938-2.9375 0-1.7813-1-3.047-.9844-1.2655-2.6094-2.25-1.6093-1-3.6875-1.828-2.0782-.8282-4.2344-1.7032-2.1563-.875-4.2344-1.8905-2.0625-1.0312-3.6875-2.422-1.6094-1.406-2.6094-3.2967-.9844-1.8907-.9844-4.4844 0-2.25.9374-4.4375.9532-2.2032 2.9375-3.8907 1.9843-1.7032 5.0937-2.75 3.125-1.047 7.4375-1.047 1.1093 0 2.4062.1095 1.297.0937 2.625.2812 1.3282.1875 2.625.422 1.3125.2343 2.422.5v5.3905q-2.5938-.7344-5.1876-1.125-2.5938-.3906-5.0313-.3906-5.1562 0-7.578 1.7186-2.422 1.7188-2.422 4.6094 0 1.797.9844 3.078 1 1.2814 2.6093 2.297 1.625 1 3.6875 1.828 2.078.8283 4.2344 1.7033 2.1562.875 4.2343 1.9218 2.0782 1.0314 3.6876 2.469 1.625 1.4374 2.6094 3.3593 1 1.9062 1 4.5468z" fill="#6aa84f"/>
</svg>
