<?xml version="1.0" standalone="yes"?>

<svg version="1.1" viewBox="0.0 0.0 400.0 400.0" fill="none" stroke="none" stroke-linecap="square" stroke-miterlimit="10" xmlns="http://www.w3.org/2000/svg" xmlns:xlink="http://www.w3.org/1999/xlink"><clipPath id="p.0"><path d="m0 0l400.0 0l0 400.0l-400.0 0l0 -400.0z" clip-rule="nonzero"></path></clipPath><g clip-path="url(#p.0)"><path fill="#000000" fill-opacity="0.0" d="m0 0l400.0 0l0 400.0l-400.0 0z" fill-rule="nonzero"></path><path fill="#000000" fill-opacity="0.0" d="m24.031496 146.5987l130.11024 0l0 106.80315l-130.11024 0z" fill-rule="nonzero"></path><path fill="#000000" d="m66.45337 201.6312q0 4.4375 -1.265625 7.671875q-1.2499962 3.234375 -3.4843712 5.390625q-2.234375 2.140625 -5.28125 3.171875q-3.046875 1.03125 -6.625 1.03125q-1.21875 0 -2.421875 -0.171875q-1.203125 -0.15625 -2.1875 -0.40625l0 12.59375l-7.75 0l0 -44.84375l6.703125 0l0.1875 4.765625q0.984375 -1.234375 2.046875 -2.25q1.0625 -1.015625 2.296875 -1.734375q1.25 -0.71875 2.671875 -1.09375q1.421875 -0.375 3.203125 -0.375q2.859375 0 5.078125 1.140625q2.21875 1.140625 3.71875 3.25q1.5156212 2.109375 2.3124962 5.109375q0.796875 3.0 0.796875 6.75zm-8.124996 0.3125q0 -2.671875 -0.390625 -4.53125q-0.375 -1.875 -1.09375 -3.078125q-0.703125 -1.21875 -1.734375 -1.765625q-1.03125 -0.5625 -2.375 -0.5625q-1.96875 0 -3.765625 1.59375q-1.78125 1.578125 -3.78125 4.3125l0 14.09375q0.921875 0.34375 2.265625 0.578125q1.359375 0.21875 2.75 0.21875q1.84375 0 3.34375 -0.765625q1.515625 -0.765625 2.578125 -2.15625q1.0625 -1.40625 1.625 -3.421875q0.578125 -2.015625 0.578125 -4.515625zm34.261456 16.375l0 -21.015625q0 -5.296875 -3.9375 -5.296875q-1.96875 0 -3.765625 1.59375q-1.78125 1.578125 -3.78125 4.3125l0 20.40625l-7.75 0l0 -44.84375l7.75 0l0 11.046875l-0.375 5.828125q0.984375 -1.171875 2.0 -2.109375q1.015625 -0.9375 2.1875 -1.5625q1.171875 -0.640625 2.53125 -0.96875q1.375 -0.328125 3.015625 -0.328125q2.484375 0 4.3125 0.8125q1.84375 0.796875 3.078125 2.28125q1.25 1.46875 1.859375 3.546875q0.625 2.078125 0.625 4.65625l0 21.640625l-7.75 0zm45.69896 -16.6875q0 4.4375 -1.265625 7.671875q-1.25 3.234375 -3.484375 5.390625q-2.234375 2.140625 -5.28125 3.171875q-3.046875 1.03125 -6.625 1.03125q-1.21875 0 -2.421875 -0.171875q-1.203125 -0.15625 -2.1875 -0.40625l0 12.59375l-7.75 0l0 -44.84375l6.703125 0l0.1875 4.765625q0.984375 -1.234375 2.046875 -2.25q1.0625 -1.015625 2.296875 -1.734375q1.25 -0.71875 2.671875 -1.09375q1.421875 -0.375 3.203125 -0.375q2.859375 0 5.078125 1.140625q2.21875 1.140625 3.71875 3.25q1.515625 2.109375 2.3125 5.109375q0.796875 3.0 0.796875 6.75zm-8.125 0.3125q0 -2.671875 -0.390625 -4.53125q-0.375 -1.875 -1.09375 -3.078125q-0.703125 -1.21875 -1.734375 -1.765625q-1.03125 -0.5625 -2.375 -0.5625q-1.96875 0 -3.765625 1.59375q-1.78125 1.578125 -3.78125 4.3125l0 14.09375q0.921875 0.34375 2.265625 0.578125q1.359375 0.21875 2.75 0.21875q1.84375 0 3.34375 -0.765625q1.515625 -0.765625 2.578125 -2.15625q1.0625 -1.40625 1.625 -3.421875q0.578125 -2.015625 0.578125 -4.515625z" fill-rule="nonzero"></path><path fill="#000000" fill-opacity="0.0" d="m120.08996 132.12225l283.24408 0l0 209.19684l-283.24408 0z" fill-rule="nonzero"></path><path fill="#6aa84f" d="m163.0587 237.09161l-19.984375 0l0 -75.296875l19.984375 0l0 5.671875l-13.265625 0l0 63.953125l13.265625 0l0 5.671875z" fill-rule="nonzero"></path><path fill="#6aa84f" d="m349.86185 237.09161l-19.984375 0l0 -5.671875l13.171875 0l0 -63.953125l-13.171875 0l0 -5.671875l19.984375 0l0 75.296875z" fill-rule="nonzero"></path><path fill="#000000" fill-opacity="0.0" d="m103.81485 148.53818l258.70865 0l0 130.04724l-258.70865 0z" fill-rule="nonzero"></path><path fill="#6aa84f" d="m187.21303 224.09818l-5.859375 0l-0.875 -27.453125l-0.375 -10.546875l-2.046875 6.125l-6.5 17.515625l-4.15625 0l-6.1875 -16.84375l-2.0625 -6.796875l-0.125 11.015625l-0.78125 26.984375l-5.65625 0l2.15625 -44.03125l7.109375 0l5.921875 16.578125l1.921875 5.59375l1.859375 -5.59375l6.234375 -16.578125l7.296875 0l2.125 44.03125zm18.741928 -28.96875l-10.0 0l0 -4.859375l15.9375 0l0 28.9375l10.078125 0l0 4.890625l-27.125 0l0 -4.890625l11.109375 0l0 -24.078125zm2.0625 -19.046875q0.984375 0 1.8125 0.359375q0.84375 0.359375 1.46875 1.0q0.625 0.640625 0.96875 1.46875q0.359375 0.8125 0.359375 1.796875q0 0.9375 -0.359375 1.78125q-0.34375 0.84375 -0.96875 1.484375q-0.625 0.640625 -1.46875 1.0q-0.828125 0.34375 -1.8125 0.34375q-0.984375 0 -1.828125 -0.34375q-0.828125 -0.359375 -1.453125 -1.0q-0.625 -0.640625 -0.984375 -1.484375q-0.34375 -0.84375 -0.34375 -1.78125q0 -0.984375 0.34375 -1.796875q0.359375 -0.828125 0.984375 -1.46875q0.625 -0.640625 1.453125 -1.0q0.84375 -0.359375 1.828125 -0.359375zm53.116913 48.015625l-7.8281097 0l-12.828125 -27.453125l-3.703125 -8.828125l0 22.203125l0 14.078125l-5.59375 0l0 -44.03125l7.703125 0l12.234375 26.0l4.421875 10.078125l0 -23.578125l0 -12.5l5.5937347 0l0 44.03125zm39.63257 -22.5q0 3.15625 -0.5 6.0625q-0.484375 2.890625 -1.5625 5.390625q-1.078125 2.484375 -2.796875 4.53125q-1.71875 2.03125 -4.21875 3.484375q-2.484375 1.453125 -5.796875 2.25q-3.296875 0.78125 -7.5 0.78125l-9.4375 0l0 -44.03125l11.359375 0q10.3125 0 15.375 5.3125q5.078125 5.296875 5.078125 16.21875zm-6.3125 0.4375q0 -4.6875 -0.875 -7.921875q-0.875 -3.234375 -2.65625 -5.21875q-1.78125 -2.0 -4.484375 -2.890625q-2.6875 -0.890625 -6.328125 -0.890625l-5.15625 0l0 33.796875l4.484375 0q15.015625 0 15.015625 -16.875zm42.538788 10.140625q0 3.125 -1.28125 5.484375q-1.28125 2.359375 -3.578125 3.9375q-2.28125 1.5625 -5.5 2.34375q-3.21875 0.765625 -7.09375 0.765625q-1.75 0 -3.484375 -0.140625q-1.734375 -0.125 -3.34375 -0.328125q-1.59375 -0.203125 -3.015625 -0.46875q-1.40625 -0.28125 -2.5625 -0.578125l0 -5.796875q2.53125 0.9375 5.671875 1.484375q3.15625 0.53125 7.171875 0.53125q2.890625 0 4.921875 -0.453125q2.046875 -0.453125 3.34375 -1.34375q1.296875 -0.890625 1.890625 -2.171875q0.59375 -1.28125 0.59375 -2.9375q0 -1.78125 -1.0 -3.046875q-0.984375 -1.265625 -2.609375 -2.25q-1.609375 -1.0 -3.6875 -1.828125q-2.078125 -0.828125 -4.234375 -1.703125q-2.15625 -0.875 -4.234375 -1.890625q-2.0625 -1.03125 -3.6875 -2.421875q-1.609375 -1.40625 -2.609375 -3.296875q-0.984375 -1.890625 -0.984375 -4.484375q0 -2.25 0.9375 -4.4375q0.953125 -2.203125 2.9375 -3.890625q1.984375 -1.703125 5.09375 -2.75q3.125 -1.046875 7.4375 -1.046875q1.109375 0 2.40625 0.109375q1.296875 0.09375 2.625 0.28125q1.328125 0.1875 2.625 0.421875q1.3125 0.234375 2.421875 0.5l0 5.390625q-2.59375 -0.734375 -5.1875 -1.125q-2.59375 -0.390625 -5.03125 -0.390625q-5.15625 0 -7.578125 1.71875q-2.421875 1.71875 -2.421875 4.609375q0 1.796875 0.984375 3.078125q1.0 1.28125 2.609375 2.296875q1.625 1.0 3.6875 1.828125q2.078125 0.828125 4.234375 1.703125q2.15625 0.875 4.234375 1.921875q2.078125 1.03125 3.6875 2.46875q1.625 1.4375 2.609375 3.359375q1.0 1.90625 1.0 4.546875z" fill-rule="nonzero"></path></g></svg>

