<?xml version="1.0" encoding="UTF-8" standalone="no"?>
<svg
   xmlns:dc="http://purl.org/dc/elements/1.1/"
   xmlns:cc="http://creativecommons.org/ns#"
   xmlns:rdf="http://www.w3.org/1999/02/22-rdf-syntax-ns#"
   xmlns:svg="http://www.w3.org/2000/svg"
   xmlns="http://www.w3.org/2000/svg"
   viewBox="0 0 609.57501 359.3125"
   height="359.3125"
   width="609.57501"
   xml:space="preserve"
   version="1.1"
   id="svg2"><metadata
     id="metadata8"><rdf:RDF><cc:Work
         rdf:about=""><dc:format>image/svg+xml</dc:format><dc:type
           rdf:resource="http://purl.org/dc/dcmitype/StillImage" /></cc:Work></rdf:RDF></metadata><defs
     id="defs6" /><g
     transform="matrix(1.25,0,0,-1.25,0,359.3125)"
     id="g10"><g
       transform="scale(0.1,0.1)"
       id="g12"><path
         id="path14"
         style="fill:#4d4c7b;fill-opacity:1;fill-rule:nonzero;stroke:none"
         d="m 1559.91,765.391 0,293.049 c 311.89,0 320.25,172.35 320.3,174.11 l -0.05,1641.94 549.43,0 c 346.49,0 588.52,-226.36 588.52,-550.51 l 0,-295.58 c 0.32,-19.05 -1.11,-208.99 -144.12,-354.08 -98.73,-100.2 -235.08,-150.98 -405.32,-150.98 l 0,293.04 c 229.16,0 255.66,148.04 256.39,211.69 l 0,295.91 c 0,232.36 -206.62,257.47 -295.47,257.47 l -256.39,0 0,-1352.94 c -4.44,-162.83 -138.27,-463.119 -613.29,-463.119" /><path
         id="path16"
         style="fill:#393536;fill-opacity:1;fill-rule:nonzero;stroke:none"
         d="m 1785.29,1974.44 c 0,-80.95 -65.6,-146.53 -146.52,-146.53 -80.93,0 -146.52,65.58 -146.52,146.53 0,80.86 65.59,146.52 146.52,146.52 80.92,0 146.52,-65.66 146.52,-146.52" /><path
         id="path18"
         style="fill:#4d4c7b;fill-opacity:1;fill-rule:nonzero;stroke:none"
         d="m 2488.34,764.969 0,238.961 -94.61,0 0,-238.961 -113.87,0 0,570.921 113.87,0 0,-229.32 94.61,0 0,229.32 113.87,0 0,-570.921 -113.87,0" /><path
         id="path20"
         style="fill:#4d4c7b;fill-opacity:1;fill-rule:nonzero;stroke:none"
         d="m 2852.36,1233.25 -48.1,0 0,-159.57 48.1,0 c 43.3,0 45.71,44.11 45.71,80.19 0,36.08 -2.41,79.38 -45.71,79.38 z m -0.8,-262.199 -47.3,0 0,-206.082 -113.87,0 0,570.921 161.17,0 c 123.49,0 160.37,-69.76 160.37,-181.22 0,-112.26 -36.88,-183.619 -160.37,-183.619" /><path
         id="path22"
         style="fill:#393536;fill-opacity:1;fill-rule:nonzero;stroke:none"
         d="m 2108.51,9.62109 -131.58,0 -81.78,448.05091 -81.79,-448.05091 -131.56,0 -132.46,632.94891 138.68,0 59.56,-447.148 78.23,447.148 138.68,0 78.23,-447.148 59.56,447.148 138.68,0 L 2108.51,9.62109" /><path
         id="path24"
         style="fill:#393536;fill-opacity:1;fill-rule:nonzero;stroke:none"
         d="m 2280.91,9.62109 0,632.94891 291.58,0 0,-113.789 -165.35,0 0,-143.121 142.24,0 0,-113.789 -142.24,0 0,-148.461 165.35,0 0,-113.78891 -291.58,0" /><path
         id="path26"
         style="fill:#393536;fill-opacity:1;fill-rule:nonzero;stroke:none"
         d="m 2632.7,9.62109 0,632.94891 291.58,0 0,-113.789 -165.35,0 0,-143.121 142.23,0 0,-113.789 -142.23,0 0,-148.461 165.35,0 0,-113.78891 -291.58,0" /><path
         id="path28"
         style="fill:#393536;fill-opacity:1;fill-rule:nonzero;stroke:none"
         d="m 3192.85,528.781 0,-519.15991 -126.24,0 0,519.15991 -106.67,0 0,113.789 339.59,0 0,-113.789 -106.68,0" /><path
         id="path30"
         style="fill:#393536;fill-opacity:1;fill-rule:nonzero;stroke:none"
         d="m 3344.36,9.62109 0,632.94891 126.23,0 0,-519.16 165.35,0 0,-113.78891 -291.58,0" /><path
         id="path32"
         style="fill:#393536;fill-opacity:1;fill-rule:nonzero;stroke:none"
         d="m 3887.71,456.781 -48.89,-234.699 97.79,0 -48.9,234.699 z m 93.34,-447.15991 -20.43,98.66791 -145.8,0 -20.44,-98.66791 -131.58,0 162.69,632.94891 124.45,0 162.69,-632.94891 -131.58,0" /><path
         id="path34"
         style="fill:#393536;fill-opacity:1;fill-rule:nonzero;stroke:none"
         d="m 4410.19,9.62109 -90.68,231.12891 -40.9,-85.34 0,-145.78891 -126.23,0 0,632.94891 126.23,0 0,-272.019 120.01,272.019 126.24,0 -126.24,-263.129 146.69,-369.81991 -135.12,0" /><path
         id="path36"
         style="fill:#393536;fill-opacity:1;fill-rule:nonzero;stroke:none"
         d="m 4585.06,9.62109 0,632.94891 291.58,0 0,-113.789 -165.35,0 0,-143.121 142.24,0 0,-113.789 -142.24,0 0,-148.461 165.35,0 0,-113.78891 -291.58,0" /><path
         id="path38"
         style="fill:#393536;fill-opacity:1;fill-rule:nonzero;stroke:none"
         d="m 1075.84,2216.78 c -0.44,0.33 -0.91,0.74 -1.36,1.06 l 0,-1532.09 c 0,-215.441 -175.261,-390.738 -390.71,-390.738 -215.45,0 -390.727,175.297 -390.727,390.738 L 0,685.75 C 0,308.09 306.121,1.96875 683.77,1.96875 L 683.77,0 c 377.63,0 683.75,306.129 683.75,683.789 0,44.731 0,758.771 0,945.111 0,118.89 0,212.75 0,212.75 l 0,347.99 c 0,215.45 175.28,390.66 390.73,390.66 l 0,293.04 c -368.47,0 -668.04,-291.65 -682.41,-656.56" /></g></g></svg>