<?xml version="1.0" encoding="UTF-8" standalone="no"?>
<svg
   xmlns:dc="http://purl.org/dc/elements/1.1/"
   xmlns:cc="http://creativecommons.org/ns#"
   xmlns:rdf="http://www.w3.org/1999/02/22-rdf-syntax-ns#"
   xmlns:svg="http://www.w3.org/2000/svg"
   xmlns="http://www.w3.org/2000/svg"
   version="1.1"
   id="svg7526"
   viewBox="0 0 6943.6063 1638.7769"
   height="462.49927mm"
   width="1959.64mm">
  <defs
     id="defs7528" />
  <metadata
     id="metadata7531">
    <rdf:RDF>
      <cc:Work
         rdf:about="">
        <dc:format>image/svg+xml</dc:format>
        <dc:type
           rdf:resource="http://purl.org/dc/dcmitype/StillImage" />
        <dc:title></dc:title>
      </cc:Work>
    </rdf:RDF>
  </metadata>
  <g
     transform="translate(2102.1464,727.47089)"
     id="layer1">
    <g
       style="fill:#ffffff"
       id="Haphpy">
      <path
         style="opacity:1;fill:#ffffff;fill-opacity:1;stroke:none;stroke-width:7.08661413;stroke-miterlimit:4;stroke-dasharray:none"
         d="m -1754.0682,-516.78294 c 33.0016,-33.71104 67.7556,-71.20982 76.6254,-119.18052 21.9597,-26.01197 96.2938,-31.5429 107.555,7.58288 -2.1572,45.20133 -26.8989,85.92992 -33.6934,130.62069 -43.3946,171.09783 -85.4818,342.58439 -131.9341,512.876746 -23.3557,83.820267 -54.8022,169.304734 -119.9922,229.981834 -33.4962,31.17731 -72.5584,58.73169 -115.3123,74.6038 -46.9193,17.41847 -69.8133,-47.32247 -56.8915,-88.43946 25.0551,-79.72463 94.4183,-129.5291 157.728,-175.423216 155.3755,-104.140447 305.5129,-224.740724 407.6167,-383.777444 31.2917,-55.73895 68.2184,-119.03129 53.7295,-185.30866 -10.7036,-30.0373 -13.032,-6.32898 -8.7571,10.16481 18.652,-6.31978 50.6063,-34.96121 17.6784,-5.25974 -54.7427,58.8931 -78.1366,139.4296 -102.2092,214.44513 -39.648,138.63562 -69.9574,288.43204 -31.9154,430.84977 9.7612,31.13722 34.1879,110.82301 76.1405,74.47942 38.7701,-33.58654 75.8813,-97.78946 83.0347,-136.93679 5.7148,-31.274381 10.5102,-42.560719 39.8168,-38.995966 l 70.2174,-4.562008 c -48.0626,97.899844 -147.907,297.379454 -262.5801,262.083444 -47.7819,-18.98356 -53.9344,-78.10049 -63.2359,-122.21979 -23.3531,-161.231615 21.8883,-320.4635 49.1682,-478.14325 17.5651,-80.67102 21.32,-170.20915 68.399,-238.79483 25.5281,-37.1899 79.946,-83.84035 128.4781,-53.95926 43.4571,38.22923 30.7359,105.24831 11.2075,152.75221 -67.5327,145.21542 -184.1094,260.13614 -299.9776,367.646141 -81.9068,76.8931168 -175.163,141.609778 -251.3305,224.513919 -22.7979,26.15646 -44.2956,56.59238 -47.56,91.74322 -19.5271,-13.84346 -25.7413,-15.77137 0.4966,-21.01149 -14.2195,9.37278 -39.5868,28.75302 -5.4877,12.28179 75.3139,-40.2764 125.7323,-112.64834 160.4017,-188.757857 80.583,-168.109993 116.1322,-356.934583 102.6407,-542.875653 1.4861,-15.82188 -9.1225,-82.39226 -3.5,-68.56148 17.6374,48.26971 67.4839,2.47518 93.9554,-12.38572 15.7988,-14.96153 -29.8298,32.88134 -37.0842,48.98986 -9.2454,27.94796 -22.2074,41.35634 -50.4425,30.65787 -27.6619,-3.89347 -55.3239,-7.78693 -82.9859,-11.6804 z"
         id="path8200" />
      <path
         style="opacity:1;fill:#ffffff;fill-opacity:1;stroke:none;stroke-width:7.08661413;stroke-miterlimit:4;stroke-dasharray:none"
         d="m -776.2154,274.86356 c 3.55021,27.75222 93.29421,36.47272 121.50642,22.96456 33.80972,-11.51206 61.57857,-37.54554 75.58203,-70.3496 28.45785,-72.20127 29.90929,-158.958401 -9.92188,-227.27148875 -19.83209,-30.27599525 -52.76267,-63.52016625 -92.53711,-53.86132825 -10.24577,2.434045 -19.83005,6.816752 -29.11523,11.966797 3.49044,-32.693555 -23.75062,-43.88282 -52.1875,-40.849609 -4.16328,-1.063866 -7.75629,-1.536952 -10.85547,-1.50586 -21.69423,0.217643 -14.63679,25.510177 -18.66211,44.171875 -19.97426,92.602282 -47.04664,164.874324 -107.35947,230.792394 -46.71455,51.05603 -85.82892,54.17102 -129.83198,22.30331 -6.5606,-4.46694 -12.5324,-9.60732 -17.9082,-15.2793 2.4775,-2.05111 4.9318,-4.1353 7.3555,-6.26172 40.42978,-35.72709 81.40046,-76.51802 97.25978,-129.378902 7.52944,-25.09646 5.10835,-53.1111993 -3.78126,-77.697266 -10.44802,-28.896177 -41.77155,-55.294542 -73.95702,-45.441406 -21.6598,6.862187 -42.0107,20.068442 -57.5508,36.414062 -41.8415,44.010375 -59.3851,118.898211 -51.2969,172.632812 3.7043,24.61002 11.5742,48.52871 24.2832,69.77149 -10.8581,7.04467 -22.2638,13.18239 -34.4179,17.89453 -36.4382,13.69546 -78.4833,22.08374 -115.9864,7.79687 -21.7985,-9.95556 -25.2726,-37.11562 -25.4609,-58.36523 4.7689,-49.3379 30.6144,-94.637431 62.4375,-131.689456 14.4462,-18.592622 32.3477,-33.993333 51.3828,-47.2324221 14.9801,-10.4188205 36.4947,-16.6272829 54.8379,-9.1933594 l 46.2843,-43.6793375 c 9.3836,-8.792986 -5.668,-21.358632 -14.5831,-21.242537 -5.3491,0.06966 -11.3977,0.704373 -15.0352,0.658203 -45.1382,2.774166 -81.3486,32.863881 -113.8203,60.9101559 -24.4944,21.1561611 -42.1902,49.6352261 -59.291,77.1367191 -26.9496,43.340274 -52.8591,91.730804 -51.1309,144.435544 0.4595,14.01283 3.019,29.17642 10.3301,41.37305 14.7409,24.59146 45.6588,31.5975 72.5371,28.93555 46.4204,-4.103 90.7225,-22.63523 130.2559,-46.70508 3.7353,-2.22556 7.4374,-4.49752 11.123,-6.79297 8.616,11.71294 18.6597,22.39027 29.9883,31.65625 19.7064,18.22885 71.43525,18.66191 96.91907,11.15118 29.78674,-8.77891 66.68437,-38.62852 91.16805,-71.5211 41.55156,-55.82238 49.82941,-87.54264 79.02422,-130.520706 -0.71911,8.130373 -1.4191,16.262408 -2.10156,24.396485 -27.6866,103.104631 -41.81084,209.247741 -60.44727,314.226561 -12.91432,71.51818 -13.75146,145.1927 -33.3125,215.44336 -14.06387,27.47546 4.04146,70.60512 39.4375,53.14648 33.51189,2.71129 47.19245,-24.69974 45.75586,-54.11523 8.90668,-95.75879 11.61141,-192.01945 19.75781,-287.85742 3.24734,-30.28072 6.30011,-60.71637 9.7754,-91.11914 5.69022,-45.19165 11.92587,-91.97147 19.63281,-130.34766 1.32789,-2.89894 2.43124,-5.92172 4.05469,-8.67383 16.50482,-27.979366 42.22055,-91.176484 75.19475,-88.376949 34.9413,4.19463 52.70877,56.971309 58.16853,81.748049 8.42688,49.39889 1.92036,111.74278 -43.49219,141.65039 -46.58249,33.45372 -105.5249,8.88648 -66.85227,1.83533 38.67263,-7.05114 38.08816,-19.98402 3.84178,-14.55671 -34.24639,5.42731 -50.5481,16.72138 -46.99788,44.47361 z M -1021.8262,-8.90625 c 31.81266,0.6703572 33.36057,40.688262 35.0137,56.955078 0.57269,49.481592 -31.1844,91.771362 -63.8594,125.914062 -3.0628,2.79627 -6.1532,5.59083 -9.2636,8.37109 -25.0842,-37.60255 -29.334,-89.438227 -8.5957,-129.957027 10.0118,-18.696665 29.0281,-48.7772365 46.0603,-56.5080817 -4.4118,-2.4050964 -12.3137,-0.362169 -22.8046,8.198606 4.4412,-6.4348273 10.9449,-13.2372198 23.4493,-12.9737273 z m 202.17581,625.60937 c 1.05331,2.53522 1.87094,5.56729 2.40039,9.1875 -0.85237,-3.05091 -1.64972,-6.1138 -2.40039,-9.1875 z"
         id="path8208" />
      <path
         style="opacity:1;fill:#ffffff;fill-opacity:1;stroke:none;stroke-width:7.08661413;stroke-miterlimit:4;stroke-dasharray:none"
         d="m -723.58643,230.1168 c 95.12015,-8.49318 180.34441,-120.61946 248.49054,-202.519492 66.454,-82.070525 120.47705,-174.315298 161.99843,-271.299518 20.56201,-57.30324 37.07611,-119.54005 25.53288,-181.96734 -5.23597,-28.31684 -54.9329,-36.13192 -45.55866,-20.01243 14.76411,-8.16787 36.95857,-26.73966 13.64103,-3.60597 -35.82992,57.92668 -46.11924,127.17088 -58.74864,193.04202 -13.07077,106.7759 -21.28059,214.275881 -40.70914,320.19693 0.36452,-11.849898 -6.67954,37.97676 -8.90718,51.30913 -6.90616,51.26785 -16.68952,103.63368 -9.33909,155.32177 21.01726,-7.96469 -48.45919,3.93021 -62.57567,0.41204 -5.61561,-1.44274 -6.98788,-8.47827 -4.62202,-20.2018 35.53055,-75.07077 70.49337,-152.390852 125.61128,-215.48683 32.34457,-28.1934204 91.60575,-58.834237 116.78984,-4.72203 27.39111,55.391266 31.98283,147.93168 34.72145,178.92238 47.65549,-5.58949 123.06905,-128.755038 138.190676,-146.833729 15.12162,-18.078694 17.755076,12.196158 17.755076,12.196158 -27.89869,47.272781 -100.252502,162.964841 -145.779262,195.019491 -39.23302,27.62333 -88.9339,5.04764 -91.07522,-39.64707 -3.38776,-51.5878 6.33165,-107.95435 -21.35009,-154.594247 -27.19079,19.177168 53.77803,-33.245735 9.4892,-7.342107 -59.57731,50.142584 -95.27216,124.031304 -111.56723,199.202044 -6.50897,29.3068 -61.98153,15.08577 -80.56079,11.77314 12.28948,-58.79763 25.99233,-114.02143 36.34839,-175.61577 15.14202,-102.89484726 29.97642,-205.80649 40.70938,-309.2797 11.28714,-88.01285 26.66011,-176.00324 52.05053,-260.96845 7.90013,-26.4366 35.74964,-45.83467 60.52424,-57.03382 52.01785,-23.51423 107.59117,35.97376 108.93375,88.86845 4.96891,97.20396 -44.53409,185.7564 -90.39426,268.00906 -71.83305,124.377988 -148.36827,201.353045 -245.99615,305.96234 -33.3902,32.65877 -96.31193,93.83817 -163.2291,103.64282 -47.5301,6.96407 -49.3163,-9.27037 -10.37419,-12.74747 z"
         id="path8244" />
      <path
         style="opacity:1;fill:#ffffff;fill-opacity:1;stroke:none;stroke-width:7.08661413;stroke-miterlimit:4;stroke-dasharray:none"
         d="m -163.97615,168.78053 c 54.96727,-66.24839 76.231057,-127.895915 98.963457,-181.661654 5.429546,-12.841739 -2.228526,-22.361851 4.461488,-14.876837 C -47.520172,5.95568 -4.2920836,-34.954043 4.5997465,-37.331442 -16.86901,-15.402236 -14.178702,16.337828 -21.075223,44.160278 -33.078537,109.97217 -42.794765,176.16149 -46.894148,242.976 c -9.82916,133.14982 -35.741405,264.48024 -46.999032,397.47686 -23.93265,16.79985 -72.09129,15.64649 -72.69153,-3.90049 14.68753,-24.8847 15.75149,-49.53956 22.04061,-77.24583 18.1941,-87.02735 29.83425,-175.46515 50.775485,-261.86289 C -72.599119,231.69943 -53.174163,165.43959 -36.699056,98.37518 -25.969594,61.928909 -17.320868,23.952876 1.4119528,-9.341059 21.382582,-28.154502 48.437033,-48.947465 77.394806,-43.751168 c 42.825284,7.217752 73.452894,41.208236 102.088734,71.014944 45.2014,53.885136 41.22111,135.586174 8.61702,194.742464 -31.12098,52.59881 -98.477533,90.06936 -159.101166,67.59964 -41.857907,-12.70479 -82.641354,-35.697 -109.707383,-70.47477 -0.862041,-19.74749 26.562458,-17.84033 39.8457,-26.12137 l 30.703965,-11.97179 c 6.9874707,31.20679 43.258909,40.08401 69.388995,49.74231 12.334975,9.58888 53.396179,2.17197 47.127109,2.76769 -10.654072,4.94811 -32.395479,21.01655 -8.129318,7.95115 C 157.79747,197.80487 167.09899,97.86921 108.73405,49.123451 94.982891,31.606884 57.24123,18.904842 45.502946,26.815116 58.506219,23.937526 89.768664,-4.821288 61.956921,16.049395 28.813196,59.499326 16.20159,113.92518 -4.2892176,163.68932 -29.708791,237.11368 -57.693571,310.11486 -74.729984,386.03326 -87.723345,454.35564 -89.356372,524.40468 -97.958155,593.063 c 5.840895,21.77775 11.243532,56.25597 -22.653775,53.14361 -16.41646,7.27188 -46.98051,8.39275 -45.87295,-12.21355 40.10359,-126.4668 57.73733,-258.72272 71.937813,-390.22609 7.669705,-86.89472 25.533308,-173.497254 22.299828,-260.734312 -1.562815,-42.163672 2.648595,-47.277162 42.88886,-64.914904 45.083356,-19.760524 51.070224,38.925274 33.576794,66.088625 -17.49343,27.163351 -57.496557,89.15699 -125.714825,167.542931 -12.82901,14.74113 -58.6735,36.54847 -42.47974,17.03122 z"
         id="path8315" />
      <path
         style="opacity:1;fill:#ffffff;fill-opacity:1;stroke:none;stroke-width:7.08661413;stroke-miterlimit:4;stroke-dasharray:none"
         d="m 173.31461,107.80644 c 23.20859,-49.412729 76.1142,-85.63803 120.01945,-122.771017 29.47006,-24.92438 77.5845,-31.645557 84.09154,14.06362067 C 384.378,47.995666 356.91195,93.189961 349.06386,140.40469 c -5.6953,28.89002 -16.77271,67.85165 10.16808,89.41311 17.79174,15.95526 70.12255,-7.0819 87.53082,-19.15055 32.63563,-22.62534 82.85684,-119.607713 81.29301,-189.742704 -6.80401,-28.1460951 7.52821,41.11299 26.15688,9.505977 74.03757,-47.306613 15.93215,37.055348 4.66869,73.043177 -19.61869,85.32598 -19.79097,159.21335 -34.67326,259.68175 -10.9713,74.06582 -31.51505,160.40354 -52.78299,233.59441 -21.40967,73.67864 -47.29817,132.91287 -93.81891,194.31633 -22.90859,30.23741 -71.64656,58.50317 -104.79897,20.19034 -34.01149,-39.30563 -18.01718,-96.41115 1.25845,-138.15187 37.55992,-81.33472 100.6475,-146.89378 156.5816,-215.7591 57.00893,-70.18864 128.4059,-126.9502 202.48127,-178.29854 l 42.6099,16.81344 c -77.12732,36.57765 -148.80413,86.44473 -202.09908,153.89258 -46.3541,58.6638 -93.79332,118.3017 -125.24632,186.34851 -16.25002,35.156 -46.55949,89.68468 -16.14773,117.93962 11.87301,11.03097 -55.72896,39.83791 -21.36822,11.96558 63.07639,-51.16555 93.36432,-93.27479 129.18717,-199.31881 52.03739,-174.15472 34.29037,-348.40035 66.66788,-507.028799 7.51248,-34.122212 2.71858,-60.6701527 37.69688,-82.61578 27.60634,-17.320408 54.35651,-17.809872 53.61265,14.8275579 C 597.44937,17.857904 590.7506,63.251311 577.04177,94.954158 552.49721,146.53654 521.46988,196.42405 480.59556,236.51312 c -43.96398,30.10815 -93.59291,67.3427 -150.04001,56.82079 -49.97023,-12.1444 -65.53027,-72.82032 -57.31252,-117.65625 5.19206,-49.29469 29.36373,-95.905288 27.51358,-145.810559 10.43664,35.074114 76.64833,-31.7269177 35.95512,-1.593755 -38.22501,17.82316 -84.60112,37.445277 -113.57472,52.921132 z"
         id="path8319" />
    </g>
    <flowRoot
       style="font-style:normal;font-weight:normal;font-size:40px;line-height:125%;font-family:sans-serif;letter-spacing:0px;word-spacing:0px;fill:#ffffff;fill-opacity:1;stroke:none;stroke-width:7.08661413;stroke-linecap:butt;stroke-linejoin:miter;stroke-miterlimit:4;stroke-dasharray:none;stroke-opacity:1;"
       id="flowRoot8449"
       xml:space="preserve"><flowRegion
         id="flowRegion8451"><rect
           style="stroke:none;stroke-width:7.08661413;stroke-miterlimit:4;stroke-dasharray:none;fill:#ffffff;"
           y="1246.6479"
           x="-202.85715"
           height="677.14288"
           width="394.28571"
           id="rect8453" /></flowRegion><flowPara
         id="flowPara8455" /></flowRoot>    <flowRoot
       style="font-style:normal;font-weight:normal;font-size:40px;line-height:125%;font-family:sans-serif;letter-spacing:0px;word-spacing:0px;fill:#ffffff;fill-opacity:1;stroke:none;stroke-width:7.08661413;stroke-linecap:butt;stroke-linejoin:miter;stroke-miterlimit:4;stroke-dasharray:none;stroke-opacity:1;"
       id="flowRoot8579"
       xml:space="preserve"><flowRegion
         id="flowRegion8581"><rect
           style="stroke:none;stroke-width:7.08661413;stroke-miterlimit:4;stroke-dasharray:none;fill:#ffffff;"
           y="1189.505"
           x="1040"
           height="125.71429"
           width="168.57143"
           id="rect8583" /></flowRegion><flowPara
         id="flowPara8585" /></flowRoot>    <g
       style="fill:#ffffff"
       transform="translate(3433.8891,-1515.2288)"
       id="Birthday">
      <path
         style="opacity:1;fill:#ffffff;fill-opacity:1;stroke:none;stroke-width:7.08661413;stroke-miterlimit:4;stroke-dasharray:none"
         d="m -2166.9611,1805.1116 c 43.8659,-37.1326 84.445,-78.1456 119.2146,-124.1534 94.9663,-113.5433 151.5611,-253.9216 188.1647,-395.9845 26.4592,-111.9399 45.5884,-225.7417 53.4995,-340.47534 3.3872,-49.12346 62.0142,-77.65829 103.747,-65.40392 55.1067,16.18148 105.8089,51.05724 138.6091,99.56312 49.7987,66.88424 56.1549,154.86524 52.069,235.36044 -10.8197,82.4236 -50.4572,169.4383 -129.8416,205.7483 -20.8229,14.2085 -79.1713,50.2402 -75.8426,-10.838 1.2772,-23.4359 20.0966,-54.2867 64.6381,-42.9656 79.5225,20.2123 175.8267,28.5788 229.3748,99.9887 40.9888,50.4399 34.8943,124.2017 -2.0629,174.9021 -58.1364,87.4252 -155.0813,145.0626 -256.8728,165.6428 -107.5055,21.0642 -226.3696,13.7437 -321.6012,-44.3447 -62.8283,-43.5893 -92.2814,-117.9485 -139.6745,-175.653 21.0709,-11.8238 42.1417,-23.6477 63.2126,-35.4715 20.7735,54.1544 51.1138,105.059 87.4865,150.1009 57.9447,56.9734 142.2878,78.0359 221.3391,82.4019 104.3948,3.2415 216.0147,-35.263 278.3185,-122.9554 33.4983,-44.1273 58.8295,-110.2748 21.4016,-159.928 -49.1325,-66.7718 -144.8128,-83.2927 -221.3956,-63.1613 -35.6285,18.2733 30.3059,-54.7385 23.8023,-75.053 -12.9452,13.3247 35.8391,-15.7566 46.1944,-31.1805 52.1049,-77.6089 61.8097,-179.5012 26.4408,-263.9125 -22.8763,-54.5965 -68.6022,-103.03677 -130.6654,-116.5093 29.9379,-32.70681 4.4214,-22.35393 0.02,-9.94794 -34.0815,96.07194 -61.593,198.13754 -89.936,297.81654 -28.2912,99.4968 -49.7887,201.41 -93.2174,295.818 -27.119,67.7593 -61.1049,132.5381 -104.2909,191.489 -22.2809,31.3561 -39.7357,66.4509 -65.0779,95.2209 -29.0179,-5.3717 -58.0369,-10.7425 -87.0542,-16.1148 z"
         id="path8367" />
      <path
         style="opacity:1;fill:#ffffff;fill-opacity:1;stroke:none;stroke-width:7.08661413;stroke-miterlimit:4;stroke-dasharray:none"
         d="m -1215.2171,1454.4487 c -26.4231,22.0162 -41.2803,54.6955 -57.0854,84.6238 -24.3574,51.8196 -45.252,113.1736 -23.5806,169.5085 8.6564,27.632 37.7138,39.9645 64.7601,34.9392 59.1809,-4.0034 114.6643,-30.9155 159.2746,-69.1768 47.2427,-38.8002 90.66427,-87.7506 107.43532,-147.739 5.82347,-21.4696 4.90953,-68.845 -23.92761,-64.4237 -13.85621,2.1244 -19.93431,12.3384 -24.48421,21.3135 7.2182,-7.8369 13.16827,-16.7812 31.68271,-17.6417 -19.81331,15.2297 -43.98521,44.4348 -26.90381,69.2849 25.26347,24.6866 62.61828,5.5601 87.7118,-9.5172 12.50783,-7.4113 23.69736,-15.2667 4.35439,-4.0617 -13.55628,7.3759 -21.25601,10.0574 -4.3722,-1.3196 18.89429,-18.8847 40.48898,-34.9659 64.98891,-46.0423 19.05451,-7.89 39.64703,-30.0454 59.89395,-12.2261 27.8591,21.5153 9.70205,57.5227 1.63277,84.1817 -20.84675,56.0798 -50.76466,110.4923 -55.31966,171.1915 -3.82478,34.0048 37.74845,80.3911 163.53968,-123.0674 35.75498,-57.8311 49.35263,-44.7373 16.53136,19.9291 -57.12987,117.4554 -139.93874,230.5045 -222.6368,182.9569 -30.16768,-16.1354 -40.45909,-54.7994 -28.89032,-85.8234 19.23018,-63.8918 55.49289,-123.7356 59.73217,-191.4495 0.23404,-0.7704 15.30178,8.6804 24.41965,19.8904 -17.41075,8.3261 -43.58101,21.7643 -78.11832,42.6265 -41.36323,24.9853 -85.80718,38.7889 -131.90618,14.2964 -30.1602,-14.6882 -51.1035,-49.762 -40.8856,-83.348 8.2526,-30.9772 26.0188,-60.0328 49.4502,-81.6492 27.4257,-20.529 62.54829,-47.6569 98.33005,-31.6136 37.65472,16.3937 46.48387,64.0109 39.44613,100.736 -11.04329,59.7146 -56.29871,104.3336 -98.61291,144.5109 -58.31727,53.0708 -122.40127,101.5805 -195.02487,133.2966 -36.6269,14.9265 -81.6693,28.8219 -118.0603,6.2866 -41.5893,-31.0515 -50.2263,-88.2942 -46.6104,-137.0107 5.0652,-72.3799 41.9784,-136.8645 58.375,-206.5762 z"
         id="path8385" />
      <path
         style="opacity:1;fill:#ffffff;fill-opacity:1;stroke:none;stroke-width:7.08661413;stroke-miterlimit:4;stroke-dasharray:none"
         d="m -639.65364,1446.8188 c 23.49023,-73.6669 46.6607,-114.9045 83.93098,-257.8182 3.38758,-15.2378 12.54929,-57.0597 9.70582,-56.9828 -3.89173,41.6304 43.72879,24.2693 60.70985,6.2597 9.90207,-6.378 25.15035,-17.8113 7.12329,-3.9426 -37.21743,49.3833 -54.4148,110.2256 -74.84712,167.7693 -28.40333,93.8674 -52.48804,189.9558 -60.40301,287.9491 -2.01447,44.143 1.11676,93.9022 31.80659,128.5441 22.60556,28.8774 72.13015,-9.7396 82.79218,-9.2697 l -24.71238,76.6791 c -35.58219,11.6122 -81.00852,24.9172 -111.9784,-4.3271 -37.49517,-34.2812 -39.90798,-89.8932 -42.19994,-137.2751 3.00936,-79.2624 21.39949,-157.0124 36.8078,-234.5524 16.43054,-72.3386 43.05888,-141.8577 61.10957,-213.793 9.41561,-27.9656 17.58921,-57.0149 29.61197,-83.6978 23.84928,-15.349 47.99459,-45.0563 79.10192,-37.6993 24.47038,22.5343 4.93522,55.4178 -9.80097,77.6216 -85.26367,147.2186 -142.70132,372.3795 -173.98422,457.0286 -45.10425,122.0486 -5.44258,-97.6752 15.22607,-162.4935 z"
         id="path8445" />
      <path
         style="opacity:1;fill:#ffffff;fill-opacity:1;stroke:none;stroke-width:7.08661413;stroke-miterlimit:4;stroke-dasharray:none"
         d="m -588.0166,1741.4683 c 61.59351,-8.4947 84.1218,-34.8895 110.15301,-54.7694 144.43881,-110.3071 267.07048,-253.8482 340.85496,-421.2525 39.482814,-87.3518 80.0423,-263.4729 39.941157,-279.96331 -40.101147,-16.49045 -92.295957,147.38861 -120.284227,232.03661 -31.52161,94.1294 -57.13961,190.2052 -72.46077,288.3793 -12.81887,75.8791 -22.04533,152.3176 -29.72013,228.8731 15.87016,40.1307 -29.02309,78.4062 -67.16299,64.9996 -46.95205,-16.1249 -16.87213,-70.6688 -3.98309,-101.1864 25.89839,-61.3614 76.01643,-129.9599 144.02337,-148.9202 59.68175,-16.6393 79.71782,36.301 80.07719,71.0766 0.42047,40.6875 6.81203,87.5085 8.27844,107.2821 25.91081,8.8261 30.26461,-3.8952 53.33857,-17.2304 -4.20017,14.949 -44.22841,85.8528 -92.93957,88.1827 -31.01594,1.4836 -32.29074,-36.6894 -34.62386,-96.3414 -0.98968,-25.3035 6.06668,-126.4245 -15.74103,-119.4113 -52.94485,17.0268 -64.56889,131.9299 -111.67909,161.2521 -31.93969,12.0728 -44.8683,-15.8037 -27.36337,-41.3671 42.82635,-158.1499 59.8833,-322.2441 108.48057,-479.01 32.58732,-109.1949 70.5537,-219.3693 134.62155,-314.13736 24.84547,-36.751 82.809316,-21.83224 101.672383,14.49152 19.106592,31.00009 8.268865,68.39905 9.324178,102.60874 -11.721359,175.0749 -104.442921,332.0136 -210.330721,467.1027 -83.5433,100.9528 -155.28742,211.7106 -265.65233,283.2234 -52.5317,34.0388 -107.72832,21.9263 -121.64286,6.0042 -13.91453,-15.9221 19.11081,-38.6537 42.81866,-41.9233 z"
         id="path8495" />
      <path
         style="opacity:1;fill:#ffffff;fill-opacity:1;stroke:none;stroke-width:7.08661413;stroke-miterlimit:4;stroke-dasharray:none"
         d="m 531.872,1522.3896 c -28.77658,-17.5694 -65.41407,-21.614 -98.02494,-14.0031 -76.40692,20.0808 -128.25979,112.3679 -120.22493,178.9093 7.95583,49.0972 52.08094,93.3893 103.80656,90.0329 53.8849,0.7305 110.03994,-28.6166 139.94894,-66.6722 40.24576,-42.6412 59.19764,-106.1431 44.62284,-163.3564 -22.12553,0.7653 30.14626,-11.4092 51.47548,-15.3099 14.36302,-9.5076 -8.82667,12.2572 -6.49211,20.9723 -12.88129,42.1752 -15.99829,76.7235 4.33483,123.7922 13.67572,31.6577 33.1048,57.5914 56.43162,55.0074 34.25467,-3.7945 83.78091,-23.7253 140.75453,-173.2963 19.24152,-11.2212 52.40943,-58.299 72.23142,-60.865 -36.60658,63.1483 -106.43439,272.0296 -210.80016,294.5483 -27.96682,6.0343 -73.63169,-18.2094 -98.23148,-55.4555 -39.95938,-60.5018 -48.48692,-97.1244 -44.57088,-160.8204 1.35651,-22.0641 8.66085,-53.1149 26.11105,-64.1942 16.03026,-10.1777 39.6767,-30.3187 56.04763,-23.6812 20.60978,12.0833 15.21236,37.0255 13.92347,56.9224 -4.08479,47.8771 -19.36069,94.9152 -44.77412,135.6879 -52.97902,67.1715 -118.46333,119.1722 -197.77762,130.0389 -28.0642,2.8383 -57.34371,-0.1239 -81.83796,-15.1751 -39.81562,-23.995 -67.95746,-67.8561 -72.86478,-114.0875 2.1345,-98.6787 58.89141,-171.927 152.84028,-209.9555 51.12199,-20.8442 107.72523,-18.8802 161.7246,-14.1001 -6.21809,24.544 -15.29332,56.231 -48.65427,65.0608 z"
         id="path8633" />
      <path
         style="opacity:1;fill:#ffffff;fill-opacity:1;fill-rule:nonzero;stroke:none;stroke-width:7.08661413;stroke-miterlimit:4;stroke-dasharray:none"
         d="m 792.83709,1676.7717 c 15.80652,-22.9482 44.36198,-83.6535 58.3642,-144.2391 8.21934,-35.5638 9.22963,-64.1755 43.40175,-61.6542 57.65601,4.254 47.10191,34.3224 42.66324,97.7094 -3.45671,49.364 -26.22174,160.6653 22.96439,182.343 78.89123,34.7697 126.39913,-133.2866 160.72953,-230.6339 6.4217,-12.1227 1.4722,-45.677 4.0506,-13.9878 22.7053,-2.6723 53.2103,-12.5166 66.6593,-9.0329 -26.1858,26.467 -23.2473,66.2675 -30.9669,101.7593 -20.3145,127.0151 -31.6366,313.4963 -51.0472,440.6964 -13.1393,94.1148 -21.9331,196.6744 -80.992,274.1394 -21.511,28.2151 -68.91558,57.6986 -103.60015,31.842 -42.89222,-31.9753 -38.80949,-93.0833 -24.93039,-137.4853 24.56384,-78.5846 82.75676,-145.0732 137.64854,-204.6509 63.1588,-68.5504 138.1957,-124.9049 213.2834,-180.4174 24.6929,-18.2556 62.9523,4.3845 85.6393,13.2894 -99.0047,48.4716 -192.1068,111.4643 -264.5537,195.3356 -47.1568,53.3559 -91.0091,114.0803 -107.84,184.2301 -8.2178,20.8359 -1.1825,66.8702 12.3345,67.1988 -15.5157,6.3644 -47.10761,31.6304 -12.368,13.0919 53.274,-39.9871 72.2775,-108.5656 90.3903,-169.6895 22.687,-88.5103 35.5231,-179.4859 43.3079,-270.4069 8.6337,-100.8357 12.2146,-259.5651 18.3833,-360.369 1.9934,-32.5755 60.0314,-32.2665 78.1687,-23.5956 20.8008,9.9441 -14.7104,53.5973 -27.4035,84.4032 -51.9345,84.5489 -131.4792,286.3054 -233.75965,247.8512 -84.67285,-31.8343 -69.46505,-131.2637 -67.05684,-182.6817 4.91857,-10.1052 24.48914,-50.9578 26.02343,-68.6351 -16.79251,32.4128 -28.07514,30.0218 -52.33244,75.8126 z"
         id="path8637" />
      <path
         style="opacity:1;fill:#ffffff;fill-opacity:1;stroke:none;stroke-width:7.08661413;stroke-miterlimit:4;stroke-dasharray:none"
         d="m 146.83659,1521.2595 c -25.57327,-30.9368 -84.174718,-58.2321 -128.937378,-34.528 -60.721088,32.1549 -96.196732,129.8244 -80.779842,197.7321 20.847146,91.8267 123.497339,68.1845 162.31066,7.07 93.04989,-146.514 137.51939,-312.64 152.29333,-491.3053 0.48158,-30.0561 4.76083,-65.0346 -8.55293,-91.69 2.67564,11.0599 21.32956,36.1377 33.64934,13.0426 11.88974,-8.7879 47.37723,-32.2863 21.5109,-4.0638 -29.18539,71.3565 -22.37945,151.1379 -39.51317,225.9643 -20.47526,97.0908 -39.12303,197.3801 -51.5679,295.7687 -4.97781,35.1578 -8.27766,91.3665 7.14076,120.4252 20.41732,4.0868 58.57137,-2.5052 65.58483,-45.8743 13.85281,51.6373 -32.16231,89.8326 -68.82509,89.6144 -38.15674,-0.2272 -67.85302,-33.2711 -76.20111,-85.6266 -7.81504,-49.0125 6.01194,-95.9893 15.006,-142.4537 39.93413,-150.2733 79.27589,-302.6223 83.70069,-458.9196 -3.1483,-25.9745 29.66499,-54.2204 51.90137,-60.6389 34.48744,15.2177 26.93075,50.9149 18.51012,80.4739 -34.73284,165.5325 -80.42044,339.0235 -161.36353,505.3598 -21.33525,43.8435 -69.141677,162.5209 -154.328708,164.4359 -141.027432,2.5078 -101.125982,-176.6993 -75.683455,-236.9539 25.540132,-60.4856 55.374998,-89.658 93.431225,-111.7092 36.199812,-20.9755 84.653288,-27.8093 124.581998,-16.937 25.39525,8.3377 62.32832,13.4499 76.81022,34.7064 -10.66914,20.1485 -36.24211,49.4606 -60.67833,46.107 z"
         id="path8947" />
      <path
         style="opacity:1;fill:#ffffff;fill-opacity:1;fill-rule:nonzero;stroke:none;stroke-width:7.08661413;stroke-miterlimit:4;stroke-dasharray:none"
         id="path8984"
         d="m -682.28462,1245.0611 c 3.07936,0.8715 6.0791,2.1018 9.23807,2.6146 11.52905,1.8713 30.8911,2.0819 41.33065,1.8379 23.89016,-0.5584 47.1537,-2.4982 70.8279,-5.982 13.05428,-1.921 25.97306,-4.671 38.95959,-7.0065 51.57471,-10.9052 102.45324,-25.9902 150.65516,-47.4503 13.84697,-6.2903 7.23216,-3.2675 19.84785,-9.0611 16.12593,4.2254 -4.47971,82.8651 -20.60564,78.6396 l 0,0 c -12.49823,2.3969 -5.8293,1.129 -20.00854,3.7943 -48.52666,6.6515 -97.5679,9.6542 -145.64047,19.4745 -34.71786,6.5673 -44.95696,8.1657 -79.47041,16.0556 -39.58657,9.0496 -29.75171,7.5433 -66.19271,16.6307 -11.85533,2.9564 -23.83216,5.411 -35.65997,8.4835 -16.00108,-7.5295 20.71744,-85.5604 36.71852,-78.0308 z" />
      <path
         style="fill:#ffffff;fill-rule:evenodd;stroke:none;stroke-width:1px;stroke-linecap:butt;stroke-linejoin:miter;stroke-opacity:1"
         d="m -1232.5937,1319.4466 c -4.103,13.7803 20.6454,47.8346 35.8065,46.4208 27.8522,-2.5973 73.9277,-48.9784 59.0802,-78.7555 -11.2782,-22.6188 -82.8788,-7.9947 -94.8867,32.3347 z"
         id="path4167" />
    </g>
  </g>
</svg>
